<svg width="16" height="16" viewBox="0 0 16 16" fill="none" xmlns="http://www.w3.org/2000/svg">
<g id="ic:round-cancel">
<path id="Vector" d="M7.99992 1.33325C4.31325 1.33325 1.33325 4.31325 1.33325 7.99992C1.33325 11.6866 4.31325 14.6666 7.99992 14.6666C11.6866 14.6666 14.6666 11.6866 14.6666 7.99992C14.6666 4.31325 11.6866 1.33325 7.99992 1.33325ZM10.8666 10.8666C10.8049 10.9284 10.7317 10.9774 10.651 11.0109C10.5704 11.0443 10.4839 11.0615 10.3966 11.0615C10.3093 11.0615 10.2228 11.0443 10.1422 11.0109C10.0615 10.9774 9.98826 10.9284 9.92659 10.8666L7.99992 8.93992L6.07325 10.8666C5.9486 10.9912 5.77954 11.0613 5.60325 11.0613C5.42697 11.0613 5.2579 10.9912 5.13325 10.8666C5.0086 10.7419 4.93857 10.5729 4.93857 10.3966C4.93857 10.3093 4.95576 10.2229 4.98917 10.1422C5.02257 10.0616 5.07153 9.98831 5.13325 9.92659L7.05992 7.99992L5.13325 6.07325C5.0086 5.9486 4.93857 5.77954 4.93857 5.60325C4.93857 5.42697 5.0086 5.2579 5.13325 5.13325C5.2579 5.0086 5.42697 4.93857 5.60325 4.93857C5.77954 4.93857 5.9486 5.0086 6.07325 5.13325L7.99992 7.05992L9.92659 5.13325C9.98831 5.07153 10.0616 5.02257 10.1422 4.98917C10.2229 4.95576 10.3093 4.93857 10.3966 4.93857C10.4839 4.93857 10.5703 4.95576 10.6509 4.98917C10.7316 5.02257 10.8049 5.07153 10.8666 5.13325C10.9283 5.19497 10.9773 5.26825 11.0107 5.34889C11.0441 5.42953 11.0613 5.51596 11.0613 5.60325C11.0613 5.69054 11.0441 5.77697 11.0107 5.85761C10.9773 5.93826 10.9283 6.01153 10.8666 6.07325L8.93992 7.99992L10.8666 9.92659C11.1199 10.1799 11.1199 10.6066 10.8666 10.8666Z" fill="#5A5C63"/>
</g>
</svg>
