<svg width="20" height="20" viewBox="0 0 20 20" fill="none" xmlns="http://www.w3.org/2000/svg">
<g id="Close">
<path id="Vector" d="M11.458 9.99992L16.7497 4.70825C16.833 4.62492 16.833 4.49992 16.7497 4.41659L15.583 3.24992C15.4997 3.16659 15.3747 3.16659 15.2913 3.24992L9.99967 8.54158L4.70801 3.20825C4.62467 3.12492 4.49967 3.12492 4.41634 3.20825L3.24967 4.37492C3.16634 4.45825 3.16634 4.58325 3.24967 4.66659L8.54134 9.99992L3.20801 15.2916C3.12467 15.3749 3.12467 15.4999 3.20801 15.5833L4.37467 16.7499C4.45801 16.8333 4.58301 16.8333 4.66634 16.7499L9.99967 11.4583L15.2913 16.7499C15.3747 16.8333 15.4997 16.8333 15.583 16.7499L16.7497 15.5833C16.833 15.4999 16.833 15.3749 16.7497 15.2916L11.458 9.99992Z" fill="black"/>
</g>
</svg>
