<svg width="18" height="18" viewBox="0 0 18 18" fill="none" xmlns="http://www.w3.org/2000/svg">
<g id="Group 3157">
<circle id="Ellipse 292" cx="9" cy="9" r="9" fill="white"/>
<path id="Vector" d="M7.92673 12.4388L13.0254 7.10372C13.174 6.94985 13.2563 6.74378 13.2544 6.52987C13.2525 6.31596 13.1667 6.11135 13.0155 5.96009C12.8642 5.80883 12.6596 5.72303 12.4457 5.72117C12.2318 5.71931 12.0257 5.80154 11.8719 5.95015L7.34994 10.7084L5.47926 8.83774C5.3254 8.68914 5.11932 8.6069 4.90541 8.60876C4.69151 8.61062 4.48689 8.69642 4.33563 8.84768C4.18437 8.99894 4.09857 9.20356 4.09671 9.41747C4.09485 9.63137 4.17708 9.83745 4.32569 9.99132L6.77316 12.4388C6.92615 12.5917 7.13362 12.6776 7.34994 12.6776C7.56627 12.6776 7.77374 12.5917 7.92673 12.4388Z" fill="#00BF40"/>
</g>
</svg>
