<svg width="18" height="18" viewBox="0 0 18 18" fill="none" xmlns="http://www.w3.org/2000/svg">
<g id="Group 3157">
<circle id="Ellipse 292" cx="9" cy="9" r="9" fill="white"/>
<path id="Vector" d="M7.92649 12.4388L13.0252 7.10377C13.1738 6.94991 13.256 6.74383 13.2542 6.52993C13.2523 6.31602 13.1665 6.1114 13.0152 5.96014C12.864 5.80888 12.6594 5.72308 12.4455 5.72122C12.2316 5.71936 12.0255 5.80159 11.8716 5.9502L7.3497 10.7085L5.47902 8.8378C5.32515 8.68919 5.11908 8.60696 4.90517 8.60882C4.69126 8.61068 4.48664 8.69648 4.33538 8.84774C4.18412 8.999 4.09833 9.20361 4.09647 9.41752C4.09461 9.63143 4.17684 9.83751 4.32545 9.99137L6.77291 12.4388C6.9259 12.5918 7.13337 12.6777 7.3497 12.6777C7.56603 12.6777 7.7735 12.5918 7.92649 12.4388Z" fill="#00BF40"/>
</g>
</svg>
