<svg width="16" height="20" viewBox="0 0 16 20" fill="none" xmlns="http://www.w3.org/2000/svg">
<path id="Union" fill-rule="evenodd" clip-rule="evenodd" d="M3.47452 3.47452C4.67475 2.27428 6.30261 1.6 8 1.6C9.69739 1.6 11.3253 2.27428 12.5255 3.47452C13.7257 4.67475 14.4 6.30261 14.4 8C14.4 10.4784 12.7874 12.8834 11.0192 14.7498C10.1515 15.6657 9.28107 16.4156 8.62666 16.9367C8.38311 17.1306 8.17038 17.2922 8 17.4181C7.82962 17.2922 7.61689 17.1306 7.37334 16.9367C6.71893 16.4156 5.84849 15.6657 4.98076 14.7498C3.21259 12.8834 1.6 10.4784 1.6 8C1.6 6.30261 2.27428 4.67475 3.47452 3.47452ZM7.55581 19.0654C7.55604 19.0655 7.55624 19.0656 8 18.4L8.44376 19.0656C8.17504 19.2448 7.82453 19.2445 7.55581 19.0654ZM7.55581 19.0654L8 18.4C8.44376 19.0656 8.44456 19.0651 8.44479 19.065L8.44648 19.0638L8.45181 19.0602L8.47015 19.0478C8.48572 19.0373 8.50794 19.0221 8.53635 19.0024C8.59318 18.963 8.67483 18.9057 8.77777 18.8314C8.98356 18.6827 9.27491 18.4658 9.62334 18.1883C10.3189 17.6344 11.2485 16.8343 12.1808 15.8502C14.0126 13.9166 16 11.1216 16 8C16 5.87827 15.1571 3.84344 13.6569 2.34315C12.1566 0.842855 10.1217 0 8 0C5.87827 0 3.84344 0.842855 2.34315 2.34315C0.842855 3.84344 0 5.87827 0 8C0 11.1216 1.98741 13.9166 3.81924 15.8502C4.75151 16.8343 5.68107 17.6344 6.37666 18.1883C6.72509 18.4658 7.01644 18.6827 7.22223 18.8314C7.32517 18.9057 7.40682 18.963 7.46365 19.0024C7.49206 19.0221 7.51428 19.0373 7.52985 19.0478L7.54819 19.0602L7.55352 19.0638L7.55581 19.0654ZM6.39957 8.00008C6.39957 7.11643 7.11592 6.40008 7.99957 6.40008C8.88323 6.40008 9.59957 7.11643 9.59957 8.00008C9.59957 8.88374 8.88323 9.60008 7.99957 9.60008C7.11592 9.60008 6.39957 8.88374 6.39957 8.00008ZM7.99957 4.80008C6.23226 4.80008 4.79957 6.23277 4.79957 8.00008C4.79957 9.76739 6.23226 11.2001 7.99957 11.2001C9.76688 11.2001 11.1996 9.76739 11.1996 8.00008C11.1996 6.23277 9.76688 4.80008 7.99957 4.80008Z" fill="#171719"/>
</svg>
