<svg width="24" height="24" viewBox="0 0 24 24" fill="none" xmlns="http://www.w3.org/2000/svg">
<g id="icon/doubledown" clip-path="url(#clip0_3268_9081)">
<path id="Vector" d="M7.57008e-06 11.8322C-0.00012784 11.5355 0.0877742 11.2453 0.252586 10.9985C0.417398 10.7517 0.651716 10.5593 0.92589 10.4458C1.20006 10.3322 1.50177 10.3025 1.79283 10.3604C2.08389 10.4183 2.35123 10.5613 2.56101 10.7712L10.232 18.4432C10.4642 18.6754 10.7398 18.8596 11.0431 18.9853C11.3465 19.111 11.6716 19.1757 12 19.1757C12.3284 19.1757 12.6535 19.111 12.9569 18.9853C13.2602 18.8596 13.5359 18.6754 13.768 18.4432L21.439 10.7712C21.5783 10.6319 21.7438 10.5214 21.9258 10.446C22.1078 10.3706 22.303 10.3317 22.5 10.3317C22.898 10.3317 23.2796 10.4898 23.561 10.7712C23.8424 11.0526 24.0005 11.4343 24.0005 11.8322C24.0005 12.0293 23.9617 12.2244 23.8863 12.4064C23.8109 12.5885 23.7003 12.7539 23.561 12.8932L15.889 20.5642C14.8576 21.5956 13.4587 22.175 12 22.175C10.5414 22.175 9.14245 21.5956 8.11101 20.5642L0.439007 12.8932C0.29974 12.7539 0.189291 12.5884 0.113966 12.4064C0.0386409 12.2243 -8.20831e-05 12.0292 7.57008e-06 11.8322Z" fill="white"/>
<path id="Vector_2" d="M-0.000131666 2.28728C-6.68047e-05 1.99059 0.0879764 1.70059 0.252867 1.45394C0.417755 1.2073 0.652081 1.01509 0.926214 0.901625C1.20035 0.788161 1.50197 0.758539 1.79294 0.816505C2.08391 0.874471 2.35115 1.01742 2.56087 1.22728L11.6459 10.3123C11.6923 10.3588 11.7475 10.3958 11.8082 10.421C11.869 10.4462 11.9341 10.4592 11.9999 10.4592C12.0656 10.4592 12.1308 10.4462 12.1915 10.421C12.2522 10.3958 12.3074 10.3588 12.3539 10.3123L21.4389 1.22728C21.7201 0.945883 22.1017 0.787745 22.4995 0.787651C22.8974 0.787557 23.279 0.945516 23.5604 1.22678C23.8418 1.50804 23.9999 1.88957 24 2.28742C24.0001 2.68528 23.8421 3.06688 23.5609 3.34828L14.4749 12.4343C13.8176 13.0887 12.9279 13.4561 12.0004 13.4561C11.0729 13.4561 10.1831 13.0887 9.52587 12.4343L0.438869 3.34828C0.299602 3.20892 0.189152 3.04349 0.113829 2.86145C0.0385036 2.6794 -0.000219412 2.48429 -0.000131666 2.28728Z" fill="white"/>
</g>
<defs>
<clipPath id="clip0_3268_9081">
<rect width="24" height="24" fill="white" transform="translate(24) rotate(90)"/>
</clipPath>
</defs>
</svg>
