<svg width="20" height="20" viewBox="0 0 20 20" fill="none" xmlns="http://www.w3.org/2000/svg">
<g id="alert-circle" clip-path="url(#clip0_3268_9208)">
<path id="Union" fill-rule="evenodd" clip-rule="evenodd" d="M10.0002 2.49999C5.85803 2.49999 2.50016 5.85786 2.50016 10C2.50016 14.1421 5.85803 17.5 10.0002 17.5C14.1423 17.5 17.5002 14.1421 17.5002 10C17.5002 5.85786 14.1423 2.49999 10.0002 2.49999ZM0.833496 10C0.833496 4.93738 4.93755 0.833328 10.0002 0.833328C15.0628 0.833328 19.1668 4.93738 19.1668 10C19.1668 15.0626 15.0628 19.1667 10.0002 19.1667C4.93755 19.1667 0.833496 15.0626 0.833496 10ZM10.0002 5.83333C10.4604 5.83333 10.8335 6.20642 10.8335 6.66666V10C10.8335 10.4602 10.4604 10.8333 10.0002 10.8333C9.53993 10.8333 9.16683 10.4602 9.16683 10V6.66666C9.16683 6.20642 9.53993 5.83333 10.0002 5.83333ZM10.0002 12.5C9.53993 12.5 9.16683 12.8731 9.16683 13.3333C9.16683 13.7936 9.53993 14.1667 10.0002 14.1667H10.0085C10.4687 14.1667 10.8418 13.7936 10.8418 13.3333C10.8418 12.8731 10.4687 12.5 10.0085 12.5H10.0002Z" fill="#5A5C63"/>
</g>
<defs>
<clipPath id="clip0_3268_9208">
<rect width="20" height="20" fill="white"/>
</clipPath>
</defs>
</svg>
