<svg width="141" height="66" viewBox="0 0 141 66" fill="none" xmlns="http://www.w3.org/2000/svg">
<g id="Group">
<g id="Clip path group">
<mask id="mask0_3306_20319" style="mask-type:luminance" maskUnits="userSpaceOnUse" x="17" y="0" width="54" height="63">
<g id="clip0_2190_7795">
<path id="Vector" d="M70.2106 0H17.0527V62.3136H70.2106V0Z" fill="white"/>
</g>
</mask>
<g mask="url(#mask0_3306_20319)">
<g id="Group_2">
<path id="Vector_2" d="M62.8801 0H24.3834C20.3358 0 17.0527 3.31514 17.0527 7.40222V54.9116C17.0527 58.9982 20.3358 62.3136 24.3834 62.3136H62.8801C66.9275 62.3136 70.2106 58.9982 70.2106 54.9116V7.40222C70.2106 3.31514 66.9275 0 62.8801 0Z" fill="#72D4D5"/>
<path id="Vector_3" d="M34.1325 4.26068H25.2362C23.9141 4.26068 22.8423 5.3337 22.8423 6.65736C22.8423 7.98102 23.9141 9.05404 25.2362 9.05404H34.1325C35.4547 9.05404 36.5265 7.98102 36.5265 6.65736C36.5265 5.3337 35.4547 4.26068 34.1325 4.26068Z" fill="white"/>
<path id="Vector_4" d="M48.3685 9.05415C49.3858 9.05415 50.2106 8.21958 50.2106 7.19007C50.2106 6.16057 49.3858 5.32599 48.3685 5.32599C47.3511 5.32599 46.5264 6.16057 46.5264 7.19007C46.5264 8.21958 47.3511 9.05415 48.3685 9.05415Z" fill="white"/>
<path id="Vector_5" d="M54.6844 9.05415C55.7018 9.05415 56.5265 8.21958 56.5265 7.19007C56.5265 6.16057 55.7018 5.32599 54.6844 5.32599C53.667 5.32599 52.8423 6.16057 52.8423 7.19007C52.8423 8.21958 53.667 9.05415 54.6844 9.05415Z" fill="white"/>
<path id="Vector_6" d="M61.5262 9.05415C62.5436 9.05415 63.3683 8.21958 63.3683 7.19007C63.3683 6.16057 62.5436 5.32599 61.5262 5.32599C60.5088 5.32599 59.6841 6.16057 59.6841 7.19007C59.6841 8.21958 60.5088 9.05415 61.5262 9.05415Z" fill="white"/>
<path id="Vector_7" d="M43.1055 56.9876C53.715 56.9876 62.3161 48.2839 62.3161 37.5479C62.3161 26.8116 53.715 18.1082 43.1055 18.1082C32.4959 18.1082 23.895 26.8116 23.895 37.5479C23.895 48.2839 32.4959 56.9876 43.1055 56.9876Z" fill="#13C2C2"/>
<path id="Vector_8" d="M43.1056 51.1291C50.8085 51.1291 57.0529 44.9292 57.0529 37.2816C57.0529 29.6339 50.8085 23.4341 43.1056 23.4341C35.4027 23.4341 29.1582 29.6339 29.1582 37.2816C29.1582 44.9292 35.4027 51.1291 43.1056 51.1291Z" fill="white"/>
<path id="Vector_9" d="M58.1055 32.4882H62.4781C63.5518 32.4882 64.4213 33.374 64.4213 34.4624V40.6333C64.4213 41.7244 63.5492 42.6075 62.4781 42.6075H58.1055V32.4882Z" fill="#13C2C2"/>
<g id="Mask group">
<mask id="mask1_3306_20319" style="mask-type:luminance" maskUnits="userSpaceOnUse" x="29" y="23" width="29" height="29">
<g id="Group_3">
<path id="Vector_10" d="M43.1056 51.1291C50.8085 51.1291 57.0529 44.9292 57.0529 37.2816C57.0529 29.6339 50.8085 23.4341 43.1056 23.4341C35.4027 23.4341 29.1582 29.6339 29.1582 37.2816C29.1582 44.9292 35.4027 51.1291 43.1056 51.1291Z" fill="white"/>
</g>
</mask>
<g mask="url(#mask1_3306_20319)">
<g id="Group_4">
<path id="Vector_11" d="M54.5452 35.9076C53.0883 35.4866 51.579 35.05 48.6549 35.1721C45.7309 35.2943 44.2636 35.8556 42.8492 36.3962C41.4559 36.9264 40.0176 37.4774 37.1465 37.5969C34.278 37.7165 32.7948 37.2877 31.3671 36.8744C29.9078 36.4534 28.4008 36.0168 25.4741 36.1389L25.4873 36.4638H25.4926C26.0531 45.2535 33.6699 52.0212 42.6588 51.6468L44.4539 51.5717C49.0065 51.3816 53.0515 49.396 55.9094 46.3374C58.2731 43.8059 59.8252 40.5442 60.182 36.9576C60.1925 36.851 60.2031 36.7419 60.211 36.6353C57.4189 36.7393 55.9546 36.3157 54.5425 35.9076H54.5452Z" fill="#0066FF"/>
</g>
</g>
</g>
</g>
</g>
</g>
<g id="Clip path group_2">
<mask id="mask2_3306_20319" style="mask-type:luminance" maskUnits="userSpaceOnUse" x="0" y="31" width="41" height="35">
<g id="clip3_2190_7795">
<path id="Vector_12" d="M40.2109 31.0785H0.210938V66H40.2109V31.0785Z" fill="white"/>
</g>
</mask>
<g mask="url(#mask2_3306_20319)">
<g id="Group_5">
<path id="Vector_13" d="M25.6896 39.8089H11.5967C10.503 39.8089 9.62354 38.9382 9.62354 37.8715V33.4079C9.62354 32.3341 10.5104 31.4706 11.5967 31.4706C13.6881 31.238 16.0381 31.0785 18.5951 31.0785C21.1964 31.0785 23.576 31.2309 25.6896 31.4706C25.8226 31.4706 26.5173 31.4849 27.0864 32.0365C27.441 32.3849 27.6627 32.8714 27.6627 33.4079V37.8715C27.6627 38.9454 26.7759 39.8089 25.6896 39.8089Z" fill="#B7EB8F"/>
<path id="Vector_14" d="M34.4157 46.9519H15.4185C13.9519 46.9519 12.7603 45.7678 12.7603 44.3098V38.2208C12.7603 36.7628 13.9519 35.5786 15.4185 35.5786C18.2371 35.2596 21.3995 35.0469 24.8522 35.0469C28.3507 35.0469 31.5589 35.2596 34.4157 35.5786C34.5914 35.5786 35.5386 35.5937 36.2948 36.3525C36.7761 36.831 37.074 37.4914 37.074 38.2208V44.3098C37.074 45.7678 35.8824 46.9519 34.4157 46.9519Z" fill="#FFA938"/>
<path id="Vector_15" d="M13.9362 51.7141C19.3508 51.7141 23.7402 48.8712 23.7402 45.3648C23.7402 41.8583 19.3508 39.0154 13.9362 39.0154C8.52166 39.0154 4.13232 41.8583 4.13232 45.3648C4.13232 48.8712 8.52166 51.7141 13.9362 51.7141Z" fill="#FF4D4F"/>
<path id="Vector_16" d="M37.8207 45.3648H2.5936C1.28163 45.3648 0.210938 46.4267 0.210938 47.7458C0.210938 49.0649 1.27408 50.1268 2.5936 50.1268H37.8283C39.1403 50.1268 40.2109 49.0649 40.2109 47.7458C40.2109 46.4267 39.1478 45.3648 37.8283 45.3648H37.8207Z" fill="#EAEBEC"/>
<path id="Vector_17" d="M31.1631 66H8.46614C6.48113 66 4.8032 64.5793 4.50358 62.6555L2.56348 50.1266H37.0733L35.1332 62.6555C34.8335 64.5793 33.1481 66 31.1706 66H31.1631Z" fill="#1677FF"/>
<path id="Vector_18" d="M11.9435 52.5078H8.87179C8.41782 52.5078 8.05469 52.8681 8.05469 53.3014C8.05469 53.7348 8.42543 54.0951 8.87179 54.0951H11.9435C12.3974 54.0951 12.7606 53.7348 12.7606 53.3014C12.7606 52.8681 12.3898 52.5078 11.9435 52.5078Z" fill="#005EEB"/>
<path id="Vector_19" d="M15.8649 57.2698H12.7932C12.3392 57.2698 11.9761 57.6302 11.9761 58.0635C11.9761 58.4969 12.3468 58.8572 12.7932 58.8572H15.8649C16.3188 58.8572 16.682 58.4969 16.682 58.0635C16.682 57.6302 16.3112 57.2698 15.8649 57.2698Z" fill="#005EEB"/>
<path id="Vector_20" d="M27.63 57.2698H24.5583C24.1043 57.2698 23.7412 57.6302 23.7412 58.0635C23.7412 58.4969 24.112 58.8572 24.5583 58.8572H27.63C28.084 58.8572 28.4471 58.4969 28.4471 58.0635C28.4471 57.6302 28.0763 57.2698 27.63 57.2698Z" fill="#005EEB"/>
<path id="Vector_21" d="M21.3546 52.5078H18.2829C17.829 52.5078 17.4658 52.8681 17.4658 53.3014C17.4658 53.7348 17.8366 54.0951 18.2829 54.0951H21.3546C21.8086 54.0951 22.1717 53.7348 22.1717 53.3014C22.1717 52.8681 21.801 52.5078 21.3546 52.5078Z" fill="#005EEB"/>
<path id="Vector_22" d="M31.5509 52.5078H28.4792C28.0252 52.5078 27.6621 52.8681 27.6621 53.3014C27.6621 53.7348 28.0329 54.0951 28.4792 54.0951H31.5509C32.0049 54.0951 32.368 53.7348 32.368 53.3014C32.368 52.8681 31.9972 52.5078 31.5509 52.5078Z" fill="#005EEB"/>
<path id="Vector_23" d="M11.9435 61.2381H8.87179C8.41782 61.2381 8.05469 61.5984 8.05469 62.0318C8.05469 62.4651 8.42543 62.8254 8.87179 62.8254H11.9435C12.3974 62.8254 12.7606 62.4651 12.7606 62.0318C12.7606 61.5984 12.3898 61.2381 11.9435 61.2381Z" fill="#005EEB"/>
<path id="Vector_24" d="M21.3546 61.2381H18.2829C17.829 61.2381 17.4658 61.5984 17.4658 62.0318C17.4658 62.4651 17.8366 62.8254 18.2829 62.8254H21.3546C21.8086 62.8254 22.1717 62.4651 22.1717 62.0318C22.1717 61.5984 21.801 61.2381 21.3546 61.2381Z" fill="#005EEB"/>
<path id="Vector_25" d="M31.5509 61.2381H28.4792C28.0252 61.2381 27.6621 61.5984 27.6621 62.0318C27.6621 62.4651 28.0329 62.8254 28.4792 62.8254H31.5509C32.0049 62.8254 32.368 62.4651 32.368 62.0318C32.368 61.5984 31.9972 61.2381 31.5509 61.2381Z" fill="#005EEB"/>
</g>
</g>
</g>
<g id="Clip path group_3">
<mask id="mask3_3306_20319" style="mask-type:luminance" maskUnits="userSpaceOnUse" x="87" y="0" width="54" height="63">
<g id="clip4_2190_7795">
<path id="Vector_26" d="M141 0H87.8423V62.3136H141V0Z" fill="white"/>
</g>
</mask>
<g mask="url(#mask3_3306_20319)">
<g id="Group_6">
<path id="Vector_27" d="M133.67 0H95.1728C91.1254 0 87.8423 3.31514 87.8423 7.40222V54.9116C87.8423 58.9982 91.1254 62.3136 95.1728 62.3136H133.67C137.717 62.3136 141 58.9982 141 54.9116V7.40222C141 3.31514 137.717 0 133.67 0Z" fill="#72D4D5"/>
<path id="Vector_28" d="M104.922 4.26068H96.026C94.7034 4.26068 93.6318 5.3337 93.6318 6.65736C93.6318 7.98102 94.7034 9.05404 96.026 9.05404H104.922C106.244 9.05404 107.316 7.98102 107.316 6.65736C107.316 5.3337 106.244 4.26068 104.922 4.26068Z" fill="white"/>
<path id="Vector_29" d="M119.158 9.05415C120.175 9.05415 121 8.21958 121 7.19007C121 6.16057 120.175 5.32599 119.158 5.32599C118.141 5.32599 117.316 6.16057 117.316 7.19007C117.316 8.21958 118.141 9.05415 119.158 9.05415Z" fill="white"/>
<path id="Vector_30" d="M125.474 9.05415C126.491 9.05415 127.316 8.21958 127.316 7.19007C127.316 6.16057 126.491 5.32599 125.474 5.32599C124.457 5.32599 123.632 6.16057 123.632 7.19007C123.632 8.21958 124.457 9.05415 125.474 9.05415Z" fill="white"/>
<path id="Vector_31" d="M132.316 9.05415C133.333 9.05415 134.158 8.21958 134.158 7.19007C134.158 6.16057 133.333 5.32599 132.316 5.32599C131.298 5.32599 130.474 6.16057 130.474 7.19007C130.474 8.21958 131.298 9.05415 132.316 9.05415Z" fill="white"/>
<path id="Vector_32" d="M113.895 56.9876C124.505 56.9876 133.106 48.2839 133.106 37.5479C133.106 26.8116 124.505 18.1082 113.895 18.1082C103.286 18.1082 94.6846 26.8116 94.6846 37.5479C94.6846 48.2839 103.286 56.9876 113.895 56.9876Z" fill="#13C2C2"/>
<path id="Vector_33" d="M113.895 51.1291C121.598 51.1291 127.842 44.9292 127.842 37.2816C127.842 29.6339 121.598 23.4341 113.895 23.4341C106.192 23.4341 99.9478 29.6339 99.9478 37.2816C99.9478 44.9292 106.192 51.1291 113.895 51.1291Z" fill="white"/>
<path id="Vector_34" d="M128.895 32.4882H133.268C134.341 32.4882 135.211 33.374 135.211 34.4624V40.6333C135.211 41.7244 134.339 42.6075 133.268 42.6075H128.895V32.4882Z" fill="#13C2C2"/>
<g id="Mask group_2">
<mask id="mask4_3306_20319" style="mask-type:luminance" maskUnits="userSpaceOnUse" x="99" y="23" width="29" height="29">
<g id="Group_7">
<path id="Vector_35" d="M113.895 51.1291C121.598 51.1291 127.842 44.9292 127.842 37.2816C127.842 29.6339 121.598 23.4341 113.895 23.4341C106.192 23.4341 99.9478 29.6339 99.9478 37.2816C99.9478 44.9292 106.192 51.1291 113.895 51.1291Z" fill="white"/>
</g>
</mask>
<g mask="url(#mask4_3306_20319)">
<g id="Group_8">
<path id="Vector_36" d="M125.335 35.9076C123.878 35.4866 122.368 35.05 119.445 35.1721C116.521 35.2943 115.053 35.8556 113.639 36.3962C112.245 36.9264 110.807 37.4774 107.936 37.5969C105.067 37.7165 103.584 37.2877 102.157 36.8744C100.697 36.4534 99.1905 36.0168 96.2637 36.1389L96.2768 36.4638H96.2821C96.8426 45.2535 104.459 52.0212 113.448 51.6468L115.244 51.5717C119.796 51.3816 123.841 49.396 126.699 46.3374C129.063 43.8059 130.615 40.5442 130.972 36.9576C130.982 36.851 130.993 36.7419 131.001 36.6353C128.208 36.7393 126.744 36.3157 125.332 35.9076H125.335Z" fill="#0066FF"/>
</g>
</g>
</g>
</g>
</g>
</g>
<g id="Clip path group_4">
<mask id="mask5_3306_20319" style="mask-type:luminance" maskUnits="userSpaceOnUse" x="75" y="31" width="41" height="35">
<g id="clip7_2190_7795">
<path id="Vector_37" d="M115.211 31.0785H75.2109V66H115.211V31.0785Z" fill="white"/>
</g>
</mask>
<g mask="url(#mask5_3306_20319)">
<g id="Group_9">
<path id="Vector_38" d="M100.689 39.8089H86.5969C85.5028 39.8089 84.6235 38.9382 84.6235 37.8715V33.4079C84.6235 32.3341 85.5106 31.4706 86.5969 31.4706C88.6879 31.238 91.0384 31.0785 93.5953 31.0785C96.1961 31.0785 98.5757 31.2309 100.689 31.4706C100.823 31.4706 101.518 31.4849 102.086 32.0365C102.441 32.3849 102.663 32.8714 102.663 33.4079V37.8715C102.663 38.9454 101.776 39.8089 100.689 39.8089Z" fill="#FFADD2"/>
<path id="Vector_39" d="M109.416 46.9519H90.4183C88.9516 46.9519 87.7603 45.7678 87.7603 44.3098V38.2208C87.7603 36.7628 88.9516 35.5786 90.4183 35.5786C93.2371 35.2596 96.3995 35.0469 99.852 35.0469C103.351 35.0469 106.559 35.2596 109.416 35.5786C109.592 35.5786 110.538 35.5937 111.295 36.3525C111.776 36.831 112.074 37.4914 112.074 38.2208V44.3098C112.074 45.7678 110.883 46.9519 109.416 46.9519Z" fill="#70D2FF"/>
<path id="Vector_40" d="M88.9362 51.7141C94.3511 51.7141 98.7402 48.8712 98.7402 45.3648C98.7402 41.8583 94.3511 39.0154 88.9362 39.0154C83.5213 39.0154 79.1323 41.8583 79.1323 45.3648C79.1323 48.8712 83.5213 51.7141 88.9362 51.7141Z" fill="#52C41A"/>
<path id="Vector_41" d="M112.82 45.3648H77.5937C76.2815 45.3648 75.2109 46.4267 75.2109 47.7458C75.2109 49.0649 76.2745 50.1268 77.5937 50.1268H112.828C114.14 50.1268 115.211 49.0649 115.211 47.7458C115.211 46.4267 114.147 45.3648 112.828 45.3648H112.82Z" fill="#EAEBEC"/>
<path id="Vector_42" d="M106.163 66H83.4662C81.4811 66 79.8035 64.5793 79.5039 62.6555L77.5635 50.1266H112.073L110.133 62.6555C109.833 64.5793 108.148 66 106.171 66H106.163Z" fill="#FAAD14"/>
<path id="Vector_43" d="M86.9433 52.5078H83.8719C83.4178 52.5078 83.0547 52.8681 83.0547 53.3014C83.0547 53.7348 83.4257 54.0951 83.8719 54.0951H86.9433C87.3974 54.0951 87.7606 53.7348 87.7606 53.3014C87.7606 52.8681 87.3896 52.5078 86.9433 52.5078Z" fill="#FA8C16"/>
<path id="Vector_44" d="M90.8647 57.2698H87.7933C87.3392 57.2698 86.9761 57.6302 86.9761 58.0635C86.9761 58.4969 87.3471 58.8572 87.7933 58.8572H90.8647C91.3188 58.8572 91.682 58.4969 91.682 58.0635C91.682 57.6302 91.311 57.2698 90.8647 57.2698Z" fill="#FA8C16"/>
<path id="Vector_45" d="M102.63 57.2698H99.5585C99.1044 57.2698 98.7412 57.6302 98.7412 58.0635C98.7412 58.4969 99.1122 58.8572 99.5585 58.8572H102.63C103.084 58.8572 103.447 58.4969 103.447 58.0635C103.447 57.6302 103.076 57.2698 102.63 57.2698Z" fill="#FA8C16"/>
<path id="Vector_46" d="M96.3544 52.5078H93.2831C92.829 52.5078 92.4658 52.8681 92.4658 53.3014C92.4658 53.7348 92.8368 54.0951 93.2831 54.0951H96.3544C96.8086 54.0951 97.1717 53.7348 97.1717 53.3014C97.1717 52.8681 96.8007 52.5078 96.3544 52.5078Z" fill="#FA8C16"/>
<path id="Vector_47" d="M106.551 52.5078H103.479C103.025 52.5078 102.662 52.8681 102.662 53.3014C102.662 53.7348 103.033 54.0951 103.479 54.0951H106.551C107.005 54.0951 107.368 53.7348 107.368 53.3014C107.368 52.8681 106.997 52.5078 106.551 52.5078Z" fill="#FA8C16"/>
<path id="Vector_48" d="M86.9433 61.2381H83.8719C83.4178 61.2381 83.0547 61.5984 83.0547 62.0318C83.0547 62.4651 83.4257 62.8254 83.8719 62.8254H86.9433C87.3974 62.8254 87.7606 62.4651 87.7606 62.0318C87.7606 61.5984 87.3896 61.2381 86.9433 61.2381Z" fill="#FA8C16"/>
<path id="Vector_49" d="M96.3544 61.2381H93.2831C92.829 61.2381 92.4658 61.5984 92.4658 62.0318C92.4658 62.4651 92.8368 62.8254 93.2831 62.8254H96.3544C96.8086 62.8254 97.1717 62.4651 97.1717 62.0318C97.1717 61.5984 96.8007 61.2381 96.3544 61.2381Z" fill="#FA8C16"/>
<path id="Vector_50" d="M106.551 61.2381H103.479C103.025 61.2381 102.662 61.5984 102.662 62.0318C102.662 62.4651 103.033 62.8254 103.479 62.8254H106.551C107.005 62.8254 107.368 62.4651 107.368 62.0318C107.368 61.5984 106.997 61.2381 106.551 61.2381Z" fill="#FA8C16"/>
</g>
</g>
</g>
</g>
</svg>
