<svg width="110" height="84" viewBox="0 0 110 84" fill="none" xmlns="http://www.w3.org/2000/svg">
<g id="Group 3566">
<g id="Clip path group">
<mask id="mask0_3306_20388" style="mask-type:luminance" maskUnits="userSpaceOnUse" x="30" y="-1" width="54" height="63">
<g id="clip0_2190_8118">
<path id="Vector" d="M83.9633 -0.00012207H30.0029V61.6943H83.9633V-0.00012207Z" fill="white"/>
</g>
</mask>
<g mask="url(#mask0_3306_20388)">
<g id="Group">
<path id="Vector_2" d="M76.5219 -0.00012207H37.4443C33.3356 -0.00012207 30.0029 3.2821 30.0029 7.32855V54.3654C30.0029 58.412 33.3356 61.6943 37.4443 61.6943H76.5219C80.6307 61.6943 83.9633 58.412 83.9633 54.3654V7.32855C83.9633 3.2821 80.6307 -0.00012207 76.5219 -0.00012207Z" fill="#72D4D5"/>
<path id="Vector_3" d="M47.2693 4.1983H38.1536C36.7989 4.1983 35.7007 5.27935 35.7007 6.61284C35.7007 7.94637 36.7989 9.02738 38.1536 9.02738H47.2693C48.624 9.02738 49.7223 7.94637 49.7223 6.61284C49.7223 5.27935 48.624 4.1983 47.2693 4.1983Z" fill="white"/>
<path id="Vector_4" d="M61.9894 9.02461C63.0816 9.02461 63.9667 8.15278 63.9667 7.07728C63.9667 6.00181 63.0816 5.12994 61.9894 5.12994C60.8976 5.12994 60.0122 6.00181 60.0122 7.07728C60.0122 8.15278 60.8976 9.02461 61.9894 9.02461Z" fill="white"/>
<path id="Vector_5" d="M68.5436 9.02461C69.6358 9.02461 70.5209 8.15278 70.5209 7.07728C70.5209 6.00181 69.6358 5.12994 68.5436 5.12994C67.4518 5.12994 66.5664 6.00181 66.5664 7.07728C66.5664 8.15278 67.4518 9.02461 68.5436 9.02461Z" fill="white"/>
<path id="Vector_6" d="M75.1008 9.02461C76.193 9.02461 77.078 8.15278 77.078 7.07728C77.078 6.00181 76.193 5.12994 75.1008 5.12994C74.009 5.12994 73.1235 6.00181 73.1235 7.07728C73.1235 8.15278 74.009 9.02461 75.1008 9.02461Z" fill="white"/>
<path id="Vector_7" d="M56.1506 56.3705C66.8785 56.3705 75.5752 47.8058 75.5752 37.2402C75.5752 26.6747 66.8785 18.1097 56.1506 18.1097C45.4228 18.1097 36.7261 26.6747 36.7261 37.2402C36.7261 47.8058 45.4228 56.3705 56.1506 56.3705Z" fill="#13C2C2"/>
<path id="Vector_8" d="M56.1506 51.0623C63.902 51.0623 70.1854 44.8738 70.1854 37.24C70.1854 29.6062 63.902 23.4177 56.1506 23.4177C48.3993 23.4177 42.1157 29.6062 42.1157 37.24C42.1157 44.8738 48.3993 51.0623 56.1506 51.0623Z" fill="white"/>
<path id="Vector_9" d="M71.9038 32.2774H76.329C77.4156 32.2774 78.2956 33.1466 78.2956 34.2144V40.2686C78.2956 41.3391 77.4133 42.2052 76.329 42.2052H71.9038V32.2774Z" fill="#13C2C2"/>
<g id="Mask group">
<mask id="mask1_3306_20388" style="mask-type:luminance" maskUnits="userSpaceOnUse" x="42" y="23" width="29" height="29">
<g id="Group_2">
<path id="Vector_10" d="M56.1506 51.0623C63.902 51.0623 70.1854 44.8738 70.1854 37.24C70.1854 29.6062 63.902 23.4177 56.1506 23.4177C48.3993 23.4177 42.1157 29.6062 42.1157 37.24C42.1157 44.8738 48.3993 51.0623 56.1506 51.0623Z" fill="white"/>
</g>
</mask>
<g mask="url(#mask1_3306_20388)">
<g id="Group_3">
<path id="Vector_11" d="M67.8526 35.7142C66.3881 35.2904 64.871 34.8504 61.9315 34.9734C58.992 35.0964 57.517 35.6622 56.0955 36.2065C54.6949 36.7405 53.249 37.2953 50.3628 37.4156C47.4793 37.5359 45.9884 37.104 44.5533 36.6881C43.0862 36.264 41.5714 35.8243 38.6294 35.9473L38.6427 36.2744H38.648C39.2114 45.1266 46.868 51.9421 55.9041 51.5653L57.7084 51.4893C62.2848 51.2984 66.3511 49.2986 69.224 46.2177C71.5998 43.6685 73.16 40.3839 73.5188 36.7719C73.5294 36.6644 73.5401 36.5546 73.5479 36.4471C70.7416 36.5519 69.2693 36.1251 67.8498 35.7142H67.8526Z" fill="#0066FF"/>
</g>
</g>
</g>
</g>
</g>
</g>
<g id="Clip path group_2">
<mask id="mask2_3306_20388" style="mask-type:luminance" maskUnits="userSpaceOnUse" x="0" y="30" width="45" height="39">
<g id="clip3_2190_8118">
<path id="Vector_12" d="M44.725 30.6656H0.566406V68.4935H44.725V30.6656Z" fill="white"/>
</g>
</mask>
<g mask="url(#mask2_3306_20388)">
<g id="Group_4">
<path id="Vector_13" d="M29.0226 40.4947H13.1458C11.9136 40.4947 10.9229 39.5143 10.9229 38.3133V33.2885C10.9229 32.0793 11.9219 31.1071 13.1458 31.1071C15.5019 30.8455 18.1494 30.6658 21.0301 30.6658C23.9606 30.6658 26.6415 30.8373 29.0226 31.1071C29.1725 31.1071 29.955 31.1235 30.5961 31.7445C30.9958 32.1366 31.2455 32.6839 31.2455 33.2885V38.3133C31.2455 39.5225 30.2465 40.4947 29.0226 40.4947Z" fill="#B7EB8F"/>
<path id="Vector_14" d="M37.6654 47.5864H16.9598C15.3613 47.5864 14.0625 46.3116 14.0625 44.743V38.1905C14.0625 36.622 15.3613 35.3472 16.9598 35.3472C20.0319 35.0042 23.4787 34.7753 27.2419 34.7753C31.0549 34.7753 34.5516 35.0042 37.6654 35.3472C37.8569 35.3472 38.8892 35.3635 39.7135 36.1806C40.238 36.6957 40.5627 37.4063 40.5627 38.1905V44.743C40.5627 46.3116 39.2639 47.5864 37.6654 47.5864Z" fill="#FFA938"/>
<path id="Vector_15" d="M15.344 52.6027C21.2893 52.6027 26.1089 49.5778 26.1089 45.846C26.1089 42.1143 21.2893 39.0894 15.344 39.0894C9.39869 39.0894 4.5791 42.1143 4.5791 45.846C4.5791 49.5778 9.39869 52.6027 15.344 52.6027Z" fill="#FF4D4F"/>
<path id="Vector_16" d="M42.0941 45.8462H3.19727C1.74863 45.8462 0.566406 46.9899 0.566406 48.4115C0.566406 49.8332 1.74031 50.9769 3.19727 50.9769H42.1024C43.5511 50.9769 44.7333 49.8332 44.7333 48.4115C44.7333 46.9899 43.5594 45.8462 42.1024 45.8462H42.0941Z" fill="#EAEBEC"/>
<path id="Vector_17" d="M34.9846 68.4936H9.75829C7.55202 68.4936 5.68709 66.925 5.35406 64.8009L3.19775 50.9686H41.5534L39.3972 64.8009C39.0641 66.925 37.1909 68.4936 34.9929 68.4936H34.9846Z" fill="#1677FF"/>
<path id="Vector_18" d="M13.1534 54.2042H9.7732C9.27363 54.2042 8.87402 54.6045 8.87402 55.0862C8.87402 55.5685 9.28201 55.9688 9.7732 55.9688H13.1534C13.6529 55.9688 14.0525 55.5685 14.0525 55.0862C14.0525 54.6045 13.6446 54.2042 13.1534 54.2042Z" fill="#005EEB"/>
<path id="Vector_19" d="M17.6846 58.6161H14.3044C13.8049 58.6161 13.4053 59.0165 13.4053 59.4982C13.4053 59.9805 13.8132 60.3808 14.3044 60.3808H17.6846C18.1841 60.3808 18.5837 59.9805 18.5837 59.4982C18.5837 59.0165 18.1757 58.6161 17.6846 58.6161Z" fill="#005EEB"/>
<path id="Vector_20" d="M31.0372 58.6161H27.657C27.1575 58.6161 26.7578 59.0165 26.7578 59.4982C26.7578 59.9805 27.1658 60.3808 27.657 60.3808H31.0372C31.5367 60.3808 31.9363 59.9805 31.9363 59.4982C31.9363 59.0165 31.5283 58.6161 31.0372 58.6161Z" fill="#005EEB"/>
<path id="Vector_21" d="M23.8184 54.2042H20.4382C19.9387 54.2042 19.5391 54.6045 19.5391 55.0862C19.5391 55.5685 19.947 55.9688 20.4382 55.9688H23.8184C24.3179 55.9688 24.7175 55.5685 24.7175 55.0862C24.7175 54.6045 24.3096 54.2042 23.8184 54.2042Z" fill="#005EEB"/>
<path id="Vector_22" d="M35.5337 54.2042H32.1536C31.654 54.2042 31.2544 54.6045 31.2544 55.0862C31.2544 55.5685 31.6624 55.9688 32.1536 55.9688H35.5337C36.0332 55.9688 36.4329 55.5685 36.4329 55.0862C36.4329 54.6045 36.0249 54.2042 35.5337 54.2042Z" fill="#005EEB"/>
<path id="Vector_23" d="M13.1534 63.3384H9.7732C9.27363 63.3384 8.87402 63.7387 8.87402 64.2204C8.87402 64.7027 9.28201 65.103 9.7732 65.103H13.1534C13.6529 65.103 14.0525 64.7027 14.0525 64.2204C14.0525 63.7387 13.6446 63.3384 13.1534 63.3384Z" fill="#005EEB"/>
<path id="Vector_24" d="M23.8184 63.3384H20.4382C19.9387 63.3384 19.5391 63.7387 19.5391 64.2204C19.5391 64.7027 19.947 65.103 20.4382 65.103H23.8184C24.3179 65.103 24.7175 64.7027 24.7175 64.2204C24.7175 63.7387 24.3096 63.3384 23.8184 63.3384Z" fill="#005EEB"/>
<path id="Vector_25" d="M35.5337 63.3384H32.1536C31.654 63.3384 31.2544 63.7387 31.2544 64.2204C31.2544 64.7027 31.6624 65.103 32.1536 65.103H35.5337C36.0332 65.103 36.4329 64.7027 36.4329 64.2204C36.4329 63.7387 36.0249 63.3384 35.5337 63.3384Z" fill="#005EEB"/>
</g>
</g>
</g>
<g id="Clip path group_3">
<mask id="mask3_3306_20388" style="mask-type:luminance" maskUnits="userSpaceOnUse" x="70" y="44" width="40" height="35">
<g id="clip4_2190_7879">
<path id="Vector_26" d="M109.906 44.1585H70.4834V78.1974H109.906V44.1585Z" fill="white"/>
</g>
</mask>
<g mask="url(#mask3_3306_20388)">
<g id="Group_5">
<path id="Vector_27" d="M103.545 59.2868H85.1818C83.7641 59.2868 82.6123 58.1582 82.6123 56.7687V50.9654C82.6123 49.5759 83.7641 48.4473 85.1818 48.4473C87.9063 48.1432 90.963 47.9405 94.3003 47.9405C97.6823 47.9405 100.783 48.1432 103.545 48.4473C103.715 48.4473 104.63 48.4617 105.361 49.1848C105.826 49.6409 106.114 50.2703 106.114 50.9654V56.7687C106.114 58.1582 104.963 59.2868 103.545 59.2868Z" fill="#FFA938"/>
<path id="Vector_28" d="M83.7505 63.8255C88.9846 63.8255 93.227 61.116 93.227 57.7741C93.227 54.4323 88.9846 51.7228 83.7505 51.7228C78.5167 51.7228 74.2739 54.4323 74.2739 57.7741C74.2739 61.116 78.5167 63.8255 83.7505 63.8255Z" fill="#FF4D4F"/>
<path id="Vector_29" d="M107.55 57.7741H72.8317C71.5386 57.7741 70.4834 58.7862 70.4834 60.0434C70.4834 61.3005 71.5312 62.3126 72.8317 62.3126H107.558C108.851 62.3126 109.906 61.3005 109.906 60.0434C109.906 58.7862 108.858 57.7741 107.558 57.7741H107.55Z" fill="#EAEBEC"/>
<path id="Vector_30" d="M101.031 78.1975H78.5931C76.6307 78.1975 74.972 76.7754 74.6757 74.8503L72.7578 62.3126H106.873L104.955 74.8503C104.659 76.7754 102.993 78.1975 101.038 78.1975H101.031Z" fill="#A0D911"/>
<path id="Vector_31" d="M81.8239 65.3384H78.8548C78.416 65.3384 78.0649 65.6819 78.0649 66.0949C78.0649 66.5079 78.4233 66.8513 78.8548 66.8513H81.8239C82.2627 66.8513 82.6137 66.5079 82.6137 66.0949C82.6137 65.6819 82.2553 65.3384 81.8239 65.3384Z" fill="#58CF04"/>
<path id="Vector_32" d="M85.6134 69.1205H82.6443C82.2055 69.1205 81.8545 69.4639 81.8545 69.8769C81.8545 70.2899 82.2129 70.6333 82.6443 70.6333H85.6134C86.0522 70.6333 86.4032 70.2899 86.4032 69.8769C86.4032 69.4639 86.0449 69.1205 85.6134 69.1205Z" fill="#58CF04"/>
<path id="Vector_33" d="M97.7432 69.1205H94.7743C94.3354 69.1205 93.9844 69.4639 93.9844 69.8769C93.9844 70.2899 94.343 70.6333 94.7743 70.6333H97.7432C98.1821 70.6333 98.5331 70.2899 98.5331 69.8769C98.5331 69.4639 98.1745 69.1205 97.7432 69.1205Z" fill="#58CF04"/>
<path id="Vector_34" d="M90.9214 65.3384H87.9526C87.5136 65.3384 87.1626 65.6819 87.1626 66.0949C87.1626 66.5079 87.5212 66.8513 87.9526 66.8513H90.9214C91.3603 66.8513 91.7113 66.5079 91.7113 66.0949C91.7113 65.6819 91.3528 65.3384 90.9214 65.3384Z" fill="#58CF04"/>
<path id="Vector_35" d="M101.534 65.3384H98.5649C98.1259 65.3384 97.7749 65.6819 97.7749 66.0949C97.7749 66.5079 98.1335 66.8513 98.5649 66.8513H101.534C101.973 66.8513 102.324 66.5079 102.324 66.0949C102.324 65.6819 101.965 65.3384 101.534 65.3384Z" fill="#58CF04"/>
<path id="Vector_36" d="M81.8239 73.6588H78.8548C78.416 73.6588 78.0649 74.0022 78.0649 74.4152C78.0649 74.8282 78.4233 75.1716 78.8548 75.1716H81.8239C82.2627 75.1716 82.6137 74.8282 82.6137 74.4152C82.6137 74.0022 82.2553 73.6588 81.8239 73.6588Z" fill="#58CF04"/>
<path id="Vector_37" d="M90.9214 73.6588H87.9526C87.5136 73.6588 87.1626 74.0022 87.1626 74.4152C87.1626 74.8282 87.5212 75.1716 87.9526 75.1716H90.9214C91.3603 75.1716 91.7113 74.8282 91.7113 74.4152C91.7113 74.0022 91.3528 73.6588 90.9214 73.6588Z" fill="#58CF04"/>
<path id="Vector_38" d="M101.534 73.6588H98.5649C98.1259 73.6588 97.7749 74.0022 97.7749 74.4152C97.7749 74.8282 98.1335 75.1716 98.5649 75.1716H101.534C101.973 75.1716 102.324 74.8282 102.324 74.4152C102.324 74.0022 101.965 73.6588 101.534 73.6588Z" fill="#58CF04"/>
</g>
</g>
</g>
<g id="Clip path group_4">
<mask id="mask4_3306_20388" style="mask-type:luminance" maskUnits="userSpaceOnUse" x="44" y="53" width="36" height="31">
<g id="clip5_2190_7879">
<path id="Vector_39" d="M79.5016 53.9718H44.7241V84.0001H79.5016V53.9718Z" fill="white"/>
</g>
</mask>
<g mask="url(#mask4_3306_20388)">
<g id="Group_6">
<path id="Vector_40" d="M73.8915 67.3175H57.6919C56.4412 67.3175 55.4253 66.3219 55.4253 65.0961V59.9766C55.4253 58.7508 56.4412 57.7552 57.6919 57.7552C60.0955 57.4869 62.7921 57.3081 65.7362 57.3081C68.7197 57.3081 71.455 57.4869 73.8915 57.7552C74.0413 57.7552 74.8485 57.7679 75.4939 58.4058C75.9039 58.8082 76.158 59.3634 76.158 59.9766V65.0961C76.158 66.3219 75.1421 67.3175 73.8915 67.3175Z" fill="#6BE016"/>
<path id="Vector_41" d="M56.4283 71.3213C61.0457 71.3213 64.7883 68.9311 64.7883 65.983C64.7883 63.0348 61.0457 60.6446 56.4283 60.6446C51.811 60.6446 48.0684 63.0348 48.0684 65.983C48.0684 68.9311 51.811 71.3213 56.4283 71.3213Z" fill="#FA73E3"/>
<path id="Vector_42" d="M77.4237 65.9829H46.7954C45.6551 65.9829 44.7241 66.8758 44.7241 67.9848C44.7241 69.0938 45.6484 69.9867 46.7954 69.9867H77.4303C78.5706 69.9867 79.5016 69.0938 79.5016 67.9848C79.5016 66.8758 78.5773 65.9829 77.4303 65.9829H77.4237Z" fill="#EAEBEC"/>
<path id="Vector_43" d="M71.6734 83.9999H51.8797C50.1488 83.9999 48.6855 82.7454 48.424 81.0472L46.7319 69.9868H76.8278L75.1358 81.0472C74.8743 82.7454 73.4049 83.9999 71.6801 83.9999H71.6734Z" fill="#EB2F96"/>
<path id="Vector_44" d="M54.728 72.6556H52.109C51.7218 72.6556 51.4121 72.9586 51.4121 73.3229C51.4121 73.6873 51.7285 73.9902 52.109 73.9902H54.728C55.1152 73.9902 55.4249 73.6873 55.4249 73.3229C55.4249 72.9586 55.1086 72.6556 54.728 72.6556Z" fill="#C41D7F"/>
<path id="Vector_45" d="M58.0718 75.9924H55.4528C55.0655 75.9924 54.7559 76.2954 54.7559 76.6597C54.7559 77.0241 55.0722 77.327 55.4528 77.327H58.0718C58.459 77.327 58.7686 77.0241 58.7686 76.6597C58.7686 76.2954 58.4523 75.9924 58.0718 75.9924Z" fill="#C41D7F"/>
<path id="Vector_46" d="M68.7724 75.9924H66.1534C65.7662 75.9924 65.4565 76.2954 65.4565 76.6597C65.4565 77.0241 65.7729 77.327 66.1534 77.327H68.7724C69.1597 77.327 69.4693 77.0241 69.4693 76.6597C69.4693 76.2954 69.153 75.9924 68.7724 75.9924Z" fill="#C41D7F"/>
<path id="Vector_47" d="M62.7553 72.6556H60.1363C59.7491 72.6556 59.4395 72.9586 59.4395 73.3229C59.4395 73.6873 59.7558 73.9902 60.1363 73.9902H62.7553C63.1426 73.9902 63.4522 73.6873 63.4522 73.3229C63.4522 72.9586 63.1359 72.6556 62.7553 72.6556Z" fill="#C41D7F"/>
<path id="Vector_48" d="M72.1162 72.6556H69.4972C69.11 72.6556 68.8003 72.9586 68.8003 73.3229C68.8003 73.6873 69.1166 73.9902 69.4972 73.9902H72.1162C72.5034 73.9902 72.8131 73.6873 72.8131 73.3229C72.8131 72.9586 72.4967 72.6556 72.1162 72.6556Z" fill="#C41D7F"/>
<path id="Vector_49" d="M54.728 79.996H52.109C51.7218 79.996 51.4121 80.2989 51.4121 80.6633C51.4121 81.0276 51.7285 81.3306 52.109 81.3306H54.728C55.1152 81.3306 55.4249 81.0276 55.4249 80.6633C55.4249 80.2989 55.1086 79.996 54.728 79.996Z" fill="#C41D7F"/>
<path id="Vector_50" d="M62.7553 79.996H60.1363C59.7491 79.996 59.4395 80.2989 59.4395 80.6633C59.4395 81.0276 59.7558 81.3306 60.1363 81.3306H62.7553C63.1426 81.3306 63.4522 81.0276 63.4522 80.6633C63.4522 80.2989 63.1359 79.996 62.7553 79.996Z" fill="#C41D7F"/>
<path id="Vector_51" d="M72.1162 79.996H69.4972C69.11 79.996 68.8003 80.2989 68.8003 80.6633C68.8003 81.0276 69.1166 81.3306 69.4972 81.3306H72.1162C72.5034 81.3306 72.8131 81.0276 72.8131 80.6633C72.8131 80.2989 72.4967 79.996 72.1162 79.996Z" fill="#C41D7F"/>
</g>
</g>
</g>
</g>
</svg>
