<svg width="84" height="80" viewBox="0 0 84 80" fill="none" xmlns="http://www.w3.org/2000/svg">
<g id="Group">
<g id="Clip path group">
<mask id="mask0_3306_20265" style="mask-type:luminance" maskUnits="userSpaceOnUse" x="20" y="0" width="64" height="76">
<g id="clip0_2190_8118">
<path id="Vector" d="M83.9998 0H20.9756V75.7267H83.9998V0Z" fill="white"/>
</g>
</mask>
<g mask="url(#mask0_3306_20265)">
<g id="Group_2">
<path id="Vector_2" d="M75.3084 0H29.6669C24.868 0 20.9756 4.02875 20.9756 8.99557V66.7309C20.9756 71.6979 24.868 75.7267 29.6669 75.7267H75.3084C80.1075 75.7267 83.9998 71.6979 83.9998 66.7309V8.99557C83.9998 4.02875 80.1075 0 75.3084 0Z" fill="#72D4D5"/>
<path id="Vector_3" d="M41.1417 5.15314H30.4949C28.9126 5.15314 27.6299 6.48007 27.6299 8.11686C27.6299 9.7537 28.9126 11.0806 30.4949 11.0806H41.1417C42.724 11.0806 44.0067 9.7537 44.0067 8.11686C44.0067 6.48007 42.724 5.15314 41.1417 5.15314Z" fill="white"/>
<path id="Vector_4" d="M58.3352 11.0773C59.6109 11.0773 60.6446 10.0072 60.6446 8.68706C60.6446 7.36699 59.6109 6.29681 58.3352 6.29681C57.06 6.29681 56.0259 7.36699 56.0259 8.68706C56.0259 10.0072 57.06 11.0773 58.3352 11.0773Z" fill="white"/>
<path id="Vector_5" d="M65.99 11.0773C67.2657 11.0773 68.2994 10.0072 68.2994 8.68706C68.2994 7.36699 67.2657 6.29681 65.99 6.29681C64.7148 6.29681 63.6807 7.36699 63.6807 8.68706C63.6807 10.0072 64.7148 11.0773 65.99 11.0773Z" fill="white"/>
<path id="Vector_6" d="M73.6472 11.0773C74.9229 11.0773 75.9566 10.0072 75.9566 8.68706C75.9566 7.36699 74.9229 6.29681 73.6472 6.29681C72.372 6.29681 71.3379 7.36699 71.3379 8.68706C71.3379 10.0072 72.372 11.0773 73.6472 11.0773Z" fill="white"/>
<path id="Vector_7" d="M51.5159 69.1917C64.0458 69.1917 74.2033 58.679 74.2033 45.7102C74.2033 32.7417 64.0458 22.2286 51.5159 22.2286C38.9861 22.2286 28.8286 32.7417 28.8286 45.7102C28.8286 58.679 38.9861 69.1917 51.5159 69.1917Z" fill="#13C2C2"/>
<path id="Vector_8" d="M51.5154 62.6764C60.5688 62.6764 67.9076 55.0804 67.9076 45.7103C67.9076 36.3402 60.5688 28.744 51.5154 28.744C42.4621 28.744 35.123 36.3402 35.123 45.7103C35.123 55.0804 42.4621 62.6764 51.5154 62.6764Z" fill="white"/>
<path id="Vector_9" d="M69.9131 39.6189H75.0815C76.3508 39.6189 77.3785 40.6857 77.3785 41.9964V49.4276C77.3785 50.7417 76.348 51.8047 75.0815 51.8047H69.9131V39.6189Z" fill="#13C2C2"/>
<g id="Mask group">
<mask id="mask1_3306_20265" style="mask-type:luminance" maskUnits="userSpaceOnUse" x="35" y="28" width="33" height="35">
<g id="Group_3">
<path id="Vector_10" d="M51.5154 62.6764C60.5688 62.6764 67.9076 55.0804 67.9076 45.7103C67.9076 36.3402 60.5688 28.744 51.5154 28.744C42.4621 28.744 35.123 36.3402 35.123 45.7103C35.123 55.0804 42.4621 62.6764 51.5154 62.6764Z" fill="white"/>
</g>
</mask>
<g mask="url(#mask1_3306_20265)">
<g id="Group_4">
<path id="Vector_11" d="M65.1826 43.837C63.4722 43.3169 61.7002 42.7768 58.267 42.9278C54.8338 43.0788 53.111 43.7732 51.4507 44.4414C49.8148 45.0967 48.1261 45.7778 44.7551 45.9254C41.3872 46.0731 39.6459 45.543 37.9697 45.0324C36.2563 44.5119 34.487 43.9722 31.0508 44.1232L31.0663 44.5247H31.0725C31.7306 55.3903 40.6733 63.756 51.2271 63.2935L53.3345 63.2002C58.6796 62.9658 63.429 60.5111 66.7844 56.7296C69.5593 53.6005 71.3815 49.5689 71.8006 45.1353C71.813 45.0034 71.8255 44.8686 71.8347 44.7367C68.5569 44.8652 66.8373 44.3414 65.1794 43.837H65.1826Z" fill="#0066FF"/>
</g>
</g>
</g>
</g>
</g>
</g>
<g id="Clip path group_2">
<mask id="mask2_3306_20265" style="mask-type:luminance" maskUnits="userSpaceOnUse" x="0" y="36" width="53" height="44">
<g id="clip3_2190_8118">
<path id="Vector_12" d="M52.3104 36.1032H0.734375V80H52.3104V36.1032Z" fill="white"/>
</g>
</mask>
<g mask="url(#mask2_3306_20265)">
<g id="Group_5">
<path id="Vector_13" d="M33.971 47.509H15.4274C13.9882 47.509 12.8311 46.3713 12.8311 44.9776V39.1467C12.8311 37.7434 13.9979 36.6153 15.4274 36.6153C18.1793 36.3117 21.2715 36.1031 24.636 36.1031C28.0588 36.1031 31.1899 36.3021 33.971 36.6153C34.1461 36.6153 35.0601 36.6343 35.8088 37.3549C36.2756 37.81 36.5673 38.445 36.5673 39.1467V44.9776C36.5673 46.3809 35.4005 47.509 33.971 47.509Z" fill="#B7EB8F"/>
<path id="Vector_14" d="M44.0651 55.7383H19.8815C18.0146 55.7383 16.4976 54.2589 16.4976 52.4387V44.835C16.4976 43.0148 18.0146 41.5355 19.8815 41.5355C23.4697 41.1375 27.4954 40.8719 31.8907 40.8719C36.3442 40.8719 40.4283 41.1375 44.0651 41.5355C44.2887 41.5355 45.4945 41.5545 46.4572 42.5026C47.0698 43.1004 47.4491 43.9249 47.4491 44.835V52.4387C47.4491 54.2589 45.9321 55.7383 44.0651 55.7383Z" fill="#FFA938"/>
<path id="Vector_15" d="M17.9945 61.5596C24.9384 61.5596 30.5676 58.0493 30.5676 53.7189C30.5676 49.3885 24.9384 45.8782 17.9945 45.8782C11.0505 45.8782 5.42139 49.3885 5.42139 53.7189C5.42139 58.0493 11.0505 61.5596 17.9945 61.5596Z" fill="#FF4D4F"/>
<path id="Vector_16" d="M49.2376 53.7189H3.80715C2.11518 53.7189 0.734375 55.0461 0.734375 56.6959C0.734375 58.3457 2.10546 59.6728 3.80715 59.6728H49.2473C50.9393 59.6728 52.3201 58.3457 52.3201 56.6959C52.3201 55.0461 50.949 53.7189 49.2473 53.7189H49.2376Z" fill="#EAEBEC"/>
<path id="Vector_17" d="M40.9343 80H11.4706C8.89377 80 6.71558 78.1798 6.32661 75.715L3.80811 59.6634H48.6065L46.088 75.715C45.699 78.1798 43.5111 80 40.944 80H40.9343Z" fill="#1677FF"/>
<path id="Vector_18" d="M15.9583 63H12.0418C11.463 63 11 63.4537 11 63.9996C11 64.5463 11.4727 65 12.0418 65H15.9583C16.537 65 17 64.5463 17 63.9996C17 63.4537 16.5274 63 15.9583 63Z" fill="#005EEB"/>
<path id="Vector_19" d="M20.9582 69H17.0417C16.463 69 16 69.4537 16 69.9996C16 70.5463 16.4726 71 17.0417 71H20.9582C21.537 71 22 70.5463 22 69.9996C22 69.4537 21.5273 69 20.9582 69Z" fill="#005EEB"/>
<path id="Vector_20" d="M35.9583 69H32.0418C31.4631 69 31 69.4537 31 69.9996C31 70.5463 31.4727 71 32.0418 71H35.9583C36.537 71 37 70.5463 37 69.9996C37 69.4537 36.5274 69 35.9583 69Z" fill="#005EEB"/>
<path id="Vector_21" d="M27.9583 63H24.0418C23.463 63 23 63.4537 23 63.9996C23 64.5463 23.4726 65 24.0418 65H27.9583C28.537 65 29 64.5463 29 63.9996C29 63.4537 28.5274 63 27.9583 63Z" fill="#005EEB"/>
<path id="Vector_22" d="M41.9583 63H38.0418C37.463 63 37 63.4537 37 63.9996C37 64.5463 37.4727 65 38.0418 65H41.9583C42.537 65 43 64.5463 43 63.9996C43 63.4537 42.5274 63 41.9583 63Z" fill="#005EEB"/>
<path id="Vector_23" d="M15.4371 74.0175H11.4892C10.9057 74.0175 10.439 74.482 10.439 75.041C10.439 75.6007 10.9155 76.0652 11.4892 76.0652H15.4371C16.0205 76.0652 16.4873 75.6007 16.4873 75.041C16.4873 74.482 16.0108 74.0175 15.4371 74.0175Z" fill="#005EEB"/>
<path id="Vector_24" d="M27.9583 74H24.0418C23.463 74 23 74.4537 23 74.9996C23 75.5463 23.4726 76 24.0418 76H27.9583C28.537 76 29 75.5463 29 74.9996C29 74.4537 28.5274 74 27.9583 74Z" fill="#005EEB"/>
<path id="Vector_25" d="M41.9583 74H38.0418C37.463 74 37 74.4537 37 74.9996C37 75.5463 37.4727 76 38.0418 76H41.9583C42.537 76 43 75.5463 43 74.9996C43 74.4537 42.5274 74 41.9583 74Z" fill="#005EEB"/>
</g>
</g>
</g>
</g>
</svg>
