<svg width="18" height="18" viewBox="0 0 18 18" fill="none" xmlns="http://www.w3.org/2000/svg">
<g id="Group">
<path id="Ellipse 13" d="M8.99996 13.142C8.83656 13.142 8.7041 13.0095 8.7041 12.8462C8.7041 12.6828 8.83656 12.5503 8.99996 12.5503" stroke="black" stroke-linecap="round" stroke-linejoin="round"/>
<path id="Union" fill-rule="evenodd" clip-rule="evenodd" d="M8.99984 1.94868C5.10552 1.94868 1.94856 5.10564 1.94856 8.99996C1.94856 12.8943 5.10552 16.0512 8.99984 16.0512C12.8942 16.0512 16.0511 12.8943 16.0511 8.99996C16.0511 5.10564 12.8942 1.94868 8.99984 1.94868ZM0.666504 8.99996C0.666504 4.39759 4.39746 0.666626 8.99984 0.666626C13.6022 0.666626 17.3332 4.39759 17.3332 8.99996C17.3332 13.6023 13.6022 17.3333 8.99984 17.3333C4.39746 17.3333 0.666504 13.6023 0.666504 8.99996ZM9.22109 6.11241C9.00109 6.06865 8.77306 6.09111 8.56582 6.17695C8.35859 6.26279 8.18147 6.40815 8.05685 6.59466C7.93223 6.78116 7.86571 7.00043 7.86571 7.22474C7.86571 7.57877 7.57872 7.86577 7.22469 7.86577C6.87066 7.86577 6.58366 7.57877 6.58366 7.22474C6.58366 6.74687 6.72537 6.27972 6.99086 5.88239C7.25635 5.48505 7.63371 5.17536 8.07521 4.99249C8.5167 4.80961 9.00251 4.76176 9.47121 4.85499C9.9399 4.94822 10.3704 5.17834 10.7083 5.51625C11.0462 5.85416 11.2764 6.28468 11.3696 6.75337C11.4628 7.22206 11.415 7.70787 11.2321 8.14937C11.0492 8.59087 10.7395 8.96822 10.3422 9.23372C10.1259 9.37822 9.88897 9.48606 9.64086 9.55433V10.1833C9.64086 10.5373 9.35386 10.8243 8.99984 10.8243C8.64581 10.8243 8.35881 10.5373 8.35881 10.1833V8.99989C8.35881 8.64586 8.64581 8.35886 8.99984 8.35886C9.22414 8.35886 9.44341 8.29235 9.62992 8.16773C9.81642 8.04311 9.96179 7.86598 10.0476 7.65875C10.1335 7.45152 10.1559 7.22348 10.1122 7.00348C10.0684 6.78349 9.96039 6.5814 9.80178 6.42279C9.64317 6.26418 9.44109 6.15617 9.22109 6.11241ZM8.99984 11.9093C8.64581 11.9093 8.35881 12.1963 8.35881 12.5503C8.35881 12.657 8.38489 12.7577 8.43102 12.8462C8.38489 12.9347 8.35881 13.0353 8.35881 13.142C8.35881 13.4961 8.64581 13.7831 8.99984 13.7831C9.51726 13.7831 9.93672 13.3636 9.93672 12.8462C9.93672 12.3288 9.51726 11.9093 8.99984 11.9093Z" fill="#5A5C63"/>
</g>
</svg>
