<svg width="22" height="22" viewBox="0 0 22 22" fill="none" xmlns="http://www.w3.org/2000/svg">
<g id="Group 3566">
<path id="Vector" d="M10.7 1.00003C5.2 1.00003 0.75 5.45003 0.75 10.95C0.75 16.45 5.2 20.9 10.7 20.9V1.00003Z" fill="white"/>
<path id="Vector_2" d="M10.7031 1.00003C16.2031 1.00003 20.6531 5.45003 20.6531 10.95C20.6531 16.45 16.2031 20.9 10.7031 20.9V1.00003Z" fill="#E6F4FF"/>
<path id="Vector_3" d="M8.0879 16.905C8.0879 16.905 2.98341 15.0631 5.90026 10.6783C6.44408 9.87023 7.06206 9.60881 7.5688 9.08595C8.07554 8.5631 9.59577 7.11338 9.52161 4.00003C9.52161 4.00003 14.6632 6.8163 15.8991 10.9397C15.8991 10.9397 16.9003 16.2514 12.5003 16.5722C12.5003 16.5722 11.5857 16.3702 11.7216 14.4927C11.8576 12.6152 10.3126 12.6152 9.45981 13.8629C8.95307 14.5997 8.61936 14.8492 8.78004 16.5009C8.81712 16.8337 8.68116 17.1426 8.10026 16.8931L8.0879 16.905Z" fill="#FA8C16"/>
<path id="Union" fill-rule="evenodd" clip-rule="evenodd" d="M4.78564 3.90274C6.38483 2.55923 8.44792 1.75003 10.7 1.75003C15.781 1.75003 19.9 5.86901 19.9 10.95C19.9 13.2021 19.0908 15.2652 17.7473 16.8644L4.78564 3.90274ZM3.7191 4.95753C2.33591 6.56738 1.5 8.66109 1.5 10.95C1.5 16.031 5.61898 20.15 10.7 20.15C12.9889 20.15 15.0826 19.3141 16.6925 17.9309L3.7191 4.95753ZM10.7 0.250031C4.79055 0.250031 0 5.04058 0 10.95C0 16.8595 4.79055 21.65 10.7 21.65C16.6094 21.65 21.4 16.8595 21.4 10.95C21.4 5.04058 16.6094 0.250031 10.7 0.250031Z" fill="#FF4242"/>
</g>
</svg>
