<svg width="32" height="32" viewBox="0 0 32 32" fill="none" xmlns="http://www.w3.org/2000/svg">
<g id="mingcute:dry-line" clip-path="url(#clip0_2666_16664)">
<g id="Group">
<path id="Vector" fill-rule="evenodd" clip-rule="evenodd" d="M9.82789 4.09471C9.99047 4.15975 10.1386 4.25618 10.264 4.37849C10.3893 4.5008 10.4893 4.64659 10.5582 4.80755C10.6272 4.96851 10.6638 5.14147 10.6659 5.31657C10.668 5.49167 10.6356 5.66547 10.5706 5.82804L9.46789 8.58804C9.06634 9.59201 8.91502 10.6786 9.02698 11.7541C9.13894 12.8295 9.51082 13.8616 10.1106 14.7614L10.7746 15.7587C11.6144 17.0185 12.1352 18.4636 12.292 19.9696C12.4488 21.4755 12.2369 22.997 11.6746 24.4027L10.5706 27.1627C10.5054 27.3253 10.4089 27.4734 10.2865 27.5987C10.1641 27.724 10.0182 27.8239 9.85723 27.8928C9.69621 27.9617 9.5232 27.9982 9.34807 28.0003C9.17294 28.0023 8.99913 27.9698 8.83655 27.9047C8.67398 27.8396 8.52582 27.7431 8.40055 27.6207C8.27527 27.4983 8.17533 27.3524 8.10643 27.1914C8.03753 27.0304 8.00102 26.8574 7.99898 26.6822C7.99694 26.5071 8.02942 26.3333 8.09455 26.1707L9.19855 23.4107C9.6001 22.4067 9.75142 21.3202 9.63945 20.2447C9.52749 19.1692 9.15561 18.1371 8.55589 17.2374L7.89189 16.2414C7.052 14.9816 6.5312 13.5364 6.3744 12.0305C6.21761 10.5246 6.42953 9.00313 6.99189 7.59738L8.09455 4.83738C8.15959 4.67479 8.25602 4.52661 8.37833 4.4013C8.50064 4.27598 8.64644 4.17599 8.80739 4.10703C8.96835 4.03806 9.14132 4.00148 9.31641 3.99936C9.49151 3.99725 9.66531 4.02965 9.82789 4.09471ZM16.4946 4.09471C16.6571 4.15975 16.8053 4.25618 16.9306 4.37849C17.0559 4.5008 17.1559 4.64659 17.2249 4.80755C17.2939 4.96851 17.3305 5.14147 17.3326 5.31657C17.3347 5.49167 17.3023 5.66547 17.2372 5.82804L16.1346 8.58804C15.733 9.59201 15.5817 10.6786 15.6936 11.7541C15.8056 12.8295 16.1775 13.8616 16.7772 14.7614L17.4412 15.7587C18.2811 17.0185 18.8019 18.4636 18.9587 19.9696C19.1155 21.4755 18.9036 22.997 18.3412 24.4027L17.2372 27.1627C17.1057 27.491 16.8491 27.7537 16.5239 27.8928C16.1987 28.032 15.8316 28.0363 15.5032 27.9047C15.1749 27.7732 14.9122 27.5166 14.7731 27.1914C14.6339 26.8662 14.6297 26.499 14.7612 26.1707L15.8652 23.4107C16.2668 22.4067 16.4181 21.3202 16.3061 20.2447C16.1942 19.1692 15.8223 18.1371 15.2226 17.2374L14.5586 16.2414C13.7187 14.9816 13.1979 13.5364 13.0411 12.0305C12.8843 10.5246 13.0962 9.00313 13.6586 7.59738L14.7612 4.83738C14.8263 4.67479 14.9227 4.52661 15.045 4.4013C15.1673 4.27598 15.3131 4.17599 15.4741 4.10703C15.635 4.03806 15.808 4.00148 15.9831 3.99936C16.1582 3.99725 16.332 4.02965 16.4946 4.09471ZM23.1612 4.09471C23.3238 4.15975 23.472 4.25618 23.5973 4.37849C23.7226 4.5008 23.8226 4.64659 23.8916 4.80755C23.9605 4.96851 23.9971 5.14147 23.9992 5.31657C24.0013 5.49167 23.9689 5.66547 23.9039 5.82804L22.8012 8.58804C22.3997 9.59201 22.2484 10.6786 22.3603 11.7541C22.4723 12.8295 22.8442 13.8616 23.4439 14.7614L24.1079 15.7587C24.9478 17.0185 25.4686 18.4636 25.6254 19.9696C25.7822 21.4755 25.5702 22.997 25.0079 24.4027L23.9039 27.1627C23.8387 27.3253 23.7422 27.4734 23.6198 27.5987C23.4974 27.724 23.3516 27.8239 23.1906 27.8928C23.0295 27.9617 22.8565 27.9982 22.6814 28.0003C22.5063 28.0023 22.3325 27.9698 22.1699 27.9047C22.0073 27.8396 21.8592 27.7431 21.7339 27.6207C21.6086 27.4983 21.5087 27.3524 21.4398 27.1914C21.3709 27.0304 21.3344 26.8574 21.3323 26.6822C21.3303 26.5071 21.3627 26.3333 21.4279 26.1707L22.5319 23.4107C22.9334 22.4067 23.0848 21.3202 22.9728 20.2447C22.8608 19.1692 22.4889 18.1371 21.8892 17.2374L21.2252 16.2414C20.3853 14.9816 19.8645 13.5364 19.7077 12.0305C19.5509 10.5246 19.7629 9.00313 20.3252 7.59738L21.4279 4.83738C21.4929 4.67479 21.5894 4.52661 21.7117 4.4013C21.834 4.27598 21.9798 4.17599 22.1407 4.10703C22.3017 4.03806 22.4747 4.00148 22.6497 3.99936C22.8248 3.99725 22.9986 4.02965 23.1612 4.09471Z" fill="#CF1322"/>
</g>
</g>
<defs>
<clipPath id="clip0_2666_16664">
<rect width="32" height="32" fill="white"/>
</clipPath>
</defs>
</svg>
