<svg width="22" height="22" viewBox="0 0 22 22" fill="none" xmlns="http://www.w3.org/2000/svg">
<g id="Group 3566">
<path id="Vector" d="M10.95 1.00003C5.45 1.00003 1 5.45003 1 10.95C1 16.45 5.45 20.9 10.95 20.9V1.00003Z" fill="white"/>
<path id="Vector_2" d="M10.9531 1.00003C16.4531 1.00003 20.9031 5.45003 20.9031 10.95C20.9031 16.45 16.4531 20.9 10.9531 20.9V1.00003Z" fill="#E6F4FF"/>
<path id="Vector_3" d="M16.0794 11.0801C14.3794 11.0801 14.3794 10.0801 12.6794 10.0801C10.9794 10.0801 10.9794 11.0801 9.26938 11.0801C7.55938 11.0801 7.56938 10.0801 5.85938 10.0801L6.57937 14.0401H15.4694L16.0794 11.0801Z" fill="#13C2C2"/>
<path id="Vector_4" d="M16.8361 7.66002C16.5661 7.60002 16.2961 7.77002 16.2461 8.04002L14.9461 14.01H6.95611L5.65611 8.04002C5.59611 7.77002 5.33611 7.60002 5.05611 7.66002C4.78611 7.72002 4.61611 7.99002 4.67611 8.26002L6.06611 14.62C6.11611 14.85 6.31611 15.01 6.55611 15.01H15.3361C15.5761 15.01 15.7761 14.85 15.8261 14.62L17.2161 8.26002C17.2761 7.99002 17.1061 7.72002 16.8361 7.66002Z" fill="#00A5A1"/>
<path id="Union" fill-rule="evenodd" clip-rule="evenodd" d="M5.03564 3.90274C6.63483 2.55923 8.69792 1.75003 10.95 1.75003C16.031 1.75003 20.15 5.86901 20.15 10.95C20.15 13.2021 19.3408 15.2652 17.9973 16.8644L5.03564 3.90274ZM3.9691 4.95753C2.58591 6.56738 1.75 8.66109 1.75 10.95C1.75 16.031 5.86898 20.15 10.95 20.15C13.2389 20.15 15.3326 19.3141 16.9425 17.9309L3.9691 4.95753ZM10.95 0.250031C5.04055 0.250031 0.25 5.04058 0.25 10.95C0.25 16.8595 5.04055 21.65 10.95 21.65C16.8594 21.65 21.65 16.8595 21.65 10.95C21.65 5.04058 16.8594 0.250031 10.95 0.250031Z" fill="#FF4242"/>
</g>
</svg>
