<svg width="36" height="12" viewBox="0 0 36 12" fill="none" xmlns="http://www.w3.org/2000/svg">
<g id="Group">
<path id="Vector" d="M35.922 6.36409C35.922 7.85916 35.4244 9.29299 34.5387 10.3502C33.6529 11.4073 32.4516 12.0013 31.199 12.0013H2.86146C2.23517 12.0013 1.63452 11.7043 1.19166 11.1757C0.748796 10.6471 0.5 9.93021 0.5 9.18267C0.5 8.43514 0.748796 7.71822 1.19166 7.18964C1.63452 6.66105 2.23517 6.36409 2.86146 6.36409C2.23517 6.36409 1.63452 6.06714 1.19166 5.53855C0.748796 5.00996 0.5 4.29305 0.5 3.54551C0.5 2.79798 0.748796 2.08106 1.19166 1.55248C1.63452 1.02389 2.23517 0.726934 2.86146 0.726934H31.199C31.8195 0.725914 32.434 0.871027 33.0074 1.15396C33.5808 1.43689 34.1018 1.85208 34.5406 2.37574C34.9793 2.89941 35.3272 3.52125 35.5642 4.20564C35.8012 4.89003 35.9228 5.62352 35.922 6.36409Z" fill="#00A5A1"/>
<path id="Vector_2" d="M0.5 9.18267H29.4279C30.1783 9.18446 30.9182 8.97241 31.586 8.56415C32.2539 8.15588 32.8304 7.56321 33.2677 6.83541C33.705 6.10761 33.9904 5.26572 34.1002 4.37974C34.2099 3.49377 34.1409 2.58932 33.8988 1.74162C33.1073 1.08097 32.1648 0.726737 31.199 0.726929H2.86146C2.23516 0.726929 1.63452 1.02389 1.19166 1.55247C0.748796 2.08106 0.5 2.79797 0.5 3.54551C0.5 4.29304 0.748796 5.00996 1.19166 5.53854C1.63452 6.06713 2.23516 6.36409 2.86146 6.36409C2.23516 6.36409 1.63452 6.66104 1.19166 7.18963C0.748796 7.71822 0.5 8.43513 0.5 9.18267Z" fill="#13C2C2"/>
<path id="Vector_3" d="M32.3773 5.65985H1.31104C1.73879 6.11014 2.28863 6.36044 2.85898 6.36449C2.28849 6.36654 1.73826 6.6171 1.31163 7.06914H32.3773V5.65985Z" fill="#008781"/>
</g>
</svg>
