<svg width="37" height="28" viewBox="0 0 37 28" fill="none" xmlns="http://www.w3.org/2000/svg">
<g id="Group 3563">
<path id="Vector" d="M14.6531 3.74312C14.6531 3.74312 13.8721 1.44744 12.4721 0.568117C11.769 0.12655 11.0451 0.00835567 10.4986 0.000120823C9.95691 -0.00852491 9.5474 0.448021 9.55883 0.985272C9.58312 2.12749 9.36667 4.08813 10.795 5.18449C12.8951 6.79657 15.0252 6.83321 15.0252 6.83321C15.0252 6.83321 14.3222 4.40843 14.6531 3.74312Z" fill="#91CAFF"/>
<path id="Vector_2" d="M3.90437 4.10007C2.71988 4.10007 2.58639 5.10011 2.63175 5.58677C2.89667 8.42912 2.86644 10.8866 2.66409 11.4706C1.76144 14.076 1.46363 18.2941 1.36572 21.2787L20.3933 21.8653C22.1684 21.92 24.5604 19.9373 26.3941 17.8397C27.2213 16.8933 28.0397 15.7316 28.6985 15.371C24.1511 12.7182 18.7837 10.7777 16.5221 8.66649C15.5713 7.77889 14.8833 5.40351 14.5297 4.10007H3.90437Z" fill="#91CAFF"/>
<path id="Vector_3" d="M28.2442 15.0331C27.5976 15.4014 26.7944 15.9891 25.9825 16.9557C24.183 19.0982 21.8361 21.0675 20.0933 21.0675H1.41464C1.33503 23.1113 1.37654 24.5996 1.37654 24.5996H35.5318C35.5318 20.4161 32.2049 17.4378 28.2442 15.0331Z" fill="#1677FF"/>
<path id="Vector_4" d="M36.0708 23.2327C33.5999 23.8294 32.4404 23.8985 30.9256 23.8985H0.66784C-0.222613 23.8985 -0.222613 27.3326 0.66784 27.3326H30.7673C32.1508 27.3326 34.391 26.7267 35.8829 25.5364C38.0546 23.8036 36.0708 23.2327 36.0708 23.2327Z" fill="#1677FF"/>
<path id="Vector_5" d="M24.5691 12.6486L23.248 13.8052C22.9264 14.0868 22.9264 14.5401 23.248 14.8216C23.5695 15.1032 24.0873 15.1032 24.4089 14.8216L25.73 13.665C26.0516 13.3835 26.0516 12.9302 25.73 12.6486C25.4084 12.3671 24.8906 12.3671 24.5691 12.6486ZM20.4644 10.3562L19.1433 11.5128C18.8217 11.7943 18.8217 12.2477 19.1433 12.5292C19.4649 12.8107 19.9827 12.8107 20.3043 12.5292L21.6254 11.3726C21.947 11.0911 21.947 10.6377 21.6254 10.3562C21.3038 10.0747 20.786 10.0747 20.4644 10.3562ZM16.6004 8.41074L15.2793 9.56734C14.9577 9.84888 14.9577 10.3022 15.2793 10.5837C15.6009 10.8653 16.1187 10.8653 16.4402 10.5837L17.7614 9.42714C18.0829 9.1456 18.0829 8.69228 17.7614 8.41074C17.4398 8.12919 16.922 8.1292 16.6004 8.41074Z" fill="white"/>
</g>
</svg>
