<svg width="41" height="28" viewBox="0 0 41 28" fill="none" xmlns="http://www.w3.org/2000/svg">
<g id="Group 3560">
<path id="Vector" d="M39.5 22.3334L23.9 27.5334C22.9757 27.8419 22.0077 27.9995 21.0333 28.0001C19.8051 28.0002 18.5896 27.7507 17.4607 27.2667L2.86067 21.0101C2.16054 20.7108 1.56366 20.2126 1.14402 19.5773C0.724384 18.942 0.500455 18.1975 0.5 17.4361C0.499976 16.6275 0.751983 15.839 1.22096 15.1802C1.68994 14.5215 2.35257 14.0253 3.11667 13.7607L15.1727 9.58808C16.9342 8.97806 18.7852 8.66666 20.6493 8.66675C22.3182 8.66658 23.9777 8.91623 25.5727 9.40741L38.106 13.2627C38.7994 13.4767 39.4061 13.9072 39.8369 14.4911C40.2678 15.0751 40.5002 15.7817 40.5 16.5074C40.5002 17.4884 40.2719 18.4559 39.8333 19.3334C40.2601 19.7603 40.4999 20.3391 40.5 20.9427C40.5 21.2501 40.4035 21.5497 40.2241 21.7992C40.0447 22.0488 39.7914 22.2356 39.5 22.3334Z" fill="#1677FF"/>
<path id="Vector_2" d="M23.7552 20.3654L38.0032 16.0287L38.3912 17.3047L24.1432 21.6381C23.9446 21.6989 23.7745 21.829 23.6638 22.0046C23.5531 22.1803 23.5091 22.3898 23.5399 22.5952C23.5707 22.8005 23.6741 22.988 23.8315 23.1235C23.9888 23.259 24.1895 23.3335 24.3972 23.3334C25.0806 23.3334 25.7599 23.228 26.4112 23.0207L39.9772 18.7047L40.5325 18.5087C40.4403 18.7912 40.3283 19.0668 40.1972 19.3334C40.3585 19.5004 40.4934 19.691 40.5972 19.8987L40.3972 19.9687L26.8138 24.2914C26.0324 24.5403 25.2173 24.6669 24.3972 24.6667C23.8717 24.6642 23.3645 24.4736 22.9673 24.1296C22.5702 23.7855 22.3093 23.3106 22.2319 22.7909C22.1545 22.2711 22.2656 21.7409 22.5453 21.296C22.8249 20.8511 23.2546 20.521 23.7565 20.3654H23.7552ZM21.0132 8.66675C22.682 8.66658 24.3415 8.91623 25.9365 9.40741L38.4698 13.2627C38.8405 13.3779 39.1884 13.556 39.4985 13.7894L24.2598 18.8667C22.1527 19.5695 19.861 19.4746 17.8192 18.6001L5.1665 13.1774L15.5365 9.58808C17.298 8.97806 19.149 8.66666 21.0132 8.66675Z" fill="#91CAFF"/>
<path id="Vector_3" d="M1.5 13.6667L17.1 18.8667C18.0243 19.1751 18.9923 19.3327 19.9667 19.3333C21.1949 19.3334 22.4104 19.0839 23.5393 18.6L38.1393 12.3433C38.8395 12.0441 39.4363 11.5459 39.856 10.9106C40.2756 10.2753 40.4995 9.53073 40.5 8.76933C40.5 7.96072 40.248 7.17221 39.779 6.51348C39.3101 5.85476 38.6474 5.35859 37.8833 5.094L25.8273 0.921333C24.0658 0.31131 22.2148 -8.91828e-05 20.3507 8.85246e-08C18.6818 -0.000171631 17.0223 0.249484 15.4273 0.740667L2.9 4.596C2.20543 4.80886 1.59747 5.23891 1.16547 5.82295C0.733466 6.40699 0.500216 7.11422 0.5 7.84067C0.499815 8.82165 0.728065 9.7892 1.16667 10.6667C0.739891 11.0935 0.500095 11.6724 0.5 12.276C0.499953 12.5833 0.596462 12.8829 0.775897 13.1325C0.955332 13.382 1.20862 13.5689 1.5 13.6667Z" fill="#13C2C2"/>
<path id="Vector_4" d="M17.6062 11.6986L3.35816 7.36523L2.97016 8.64123L17.2182 12.9746C17.4142 13.0373 17.5814 13.1678 17.69 13.3426C17.7986 13.5174 17.8415 13.7251 17.811 13.9286C17.7804 14.1321 17.6784 14.3181 17.5233 14.4533C17.3681 14.5885 17.1699 14.6641 16.9642 14.6666C16.2807 14.6666 15.6014 14.5611 14.9502 14.3539L1.38549 10.0379L0.830827 9.8419C0.922357 10.1243 1.03375 10.3999 1.16416 10.6666C1.00279 10.8335 0.867893 11.0242 0.76416 11.2319L0.96416 11.3019L14.5495 15.6246C15.3303 15.8732 16.1448 15.9998 16.9642 15.9999C17.4896 15.9973 17.9968 15.8068 18.394 15.4627C18.7911 15.1186 19.052 14.6438 19.1294 14.124C19.2069 13.6043 19.0957 13.074 18.816 12.6291C18.5364 12.1842 18.1067 11.8541 17.6048 11.6986H17.6062Z" fill="#DFF4F5"/>
<path id="Vector_5" d="M20.3465 8.85246e-08C18.6776 -0.000171631 17.0181 0.249484 15.4232 0.740667L2.89585 4.596C2.52524 4.71113 2.17726 4.88929 1.86719 5.12267L17.0999 10.2C19.207 10.9028 21.4987 10.8079 23.5405 9.93333L36.1932 4.51067L25.8232 0.921333C24.0617 0.31131 22.2106 -8.91828e-05 20.3465 8.85246e-08Z" fill="#DFF4F5"/>
</g>
</svg>
