<svg width="36" height="30" viewBox="0 0 36 30" fill="none" xmlns="http://www.w3.org/2000/svg">
<g id="Group">
<path id="Vector" d="M7.58321 18.7272C6.64376 18.7272 5.74279 18.2817 5.0785 17.4888C4.41421 16.696 4.04102 15.6206 4.04102 14.4993C4.04102 13.378 4.41421 12.3026 5.0785 11.5097C5.74279 10.7169 6.64376 10.2714 7.58321 10.2714H30.6075C31.0772 10.2714 31.5277 10.4941 31.8598 10.8906C32.192 11.287 32.3786 11.8247 32.3786 12.3854C32.3786 12.946 32.192 13.4837 31.8598 13.8801C31.5277 14.2766 31.0772 14.4993 30.6075 14.4993C31.0772 14.4993 31.5277 14.722 31.8598 15.1185C32.192 15.5149 32.3786 16.0526 32.3786 16.6132C32.3786 17.1739 32.192 17.7116 31.8598 18.108C31.5277 18.5044 31.0772 18.7272 30.6075 18.7272H7.58321Z" fill="#72D4D5"/>
<path id="Vector_2" d="M32.2707 17.3179C32.3407 17.0922 32.3774 16.8538 32.3793 16.6132C32.3793 16.0526 32.1927 15.5149 31.8606 15.1185C31.5284 14.722 31.078 14.4993 30.6082 14.4993C31.078 14.4993 31.5284 14.2766 31.8606 13.8801C32.1927 13.4837 32.3793 12.946 32.3793 12.3854C32.3793 11.8247 32.1927 11.287 31.8606 10.8906C31.5284 10.4941 31.078 10.2714 30.6082 10.2714H7.58396C7.24967 10.2721 6.91714 10.3293 6.59628 10.4412C6.17793 11.0624 5.91522 11.8121 5.83844 12.6039C5.76166 13.3956 5.87394 14.1971 6.16232 14.9159C6.45071 15.6348 6.90346 16.2417 7.46837 16.6667C8.03327 17.0917 8.68731 17.3174 9.35506 17.3179H32.2707Z" fill="#DFF4F5"/>
<path id="Vector_3" d="M35.922 24.3641C35.922 25.8592 35.4244 27.293 34.5387 28.3502C33.6529 29.4073 32.4516 30.0012 31.199 30.0012H2.86146C2.23517 30.0012 1.63452 29.7043 1.19166 29.1757C0.748796 28.6471 0.5 27.9302 0.5 27.1827C0.5 26.4351 0.748796 25.7182 1.19166 25.1896C1.63452 24.661 2.23517 24.3641 2.86146 24.3641C2.23517 24.3641 1.63452 24.0671 1.19166 23.5385C0.748796 23.01 0.5 22.293 0.5 21.5455C0.5 20.798 0.748796 20.0811 1.19166 19.5525C1.63452 19.0239 2.23517 18.7269 2.86146 18.7269H31.199C31.8195 18.7259 32.434 18.871 33.0074 19.154C33.5808 19.4369 34.1018 19.8521 34.5406 20.3757C34.9793 20.8994 35.3272 21.5212 35.5642 22.2056C35.8012 22.89 35.9228 23.6235 35.922 24.3641Z" fill="#00A5A1"/>
<path id="Vector_4" d="M0.5 27.1827H29.4279C30.1783 27.1845 30.9182 26.9724 31.586 26.5641C32.2539 26.1559 32.8304 25.5632 33.2677 24.8354C33.705 24.1076 33.9904 23.2657 34.1002 22.3797C34.2099 21.4938 34.1409 20.5893 33.8988 19.7416C33.1073 19.081 32.1648 18.7267 31.199 18.7269H2.86146C2.23516 18.7269 1.63452 19.0239 1.19166 19.5525C0.748796 20.0811 0.5 20.798 0.5 21.5455C0.5 22.293 0.748796 23.01 1.19166 23.5385C1.63452 24.0671 2.23516 24.3641 2.86146 24.3641C2.23516 24.3641 1.63452 24.661 1.19166 25.1896C0.748796 25.7182 0.5 26.4351 0.5 27.1827Z" fill="#13C2C2"/>
<path id="Vector_5" d="M18.2133 10.2445C23.9105 10.2439 29.4801 8.76051 34.2205 5.98122L35.6859 5.12223L35.03 4.40102C33.7809 3.02813 32.1967 1.9198 30.3948 1.15801C28.5928 0.396214 26.6192 0.000453741 24.6199 0H11.8067C9.80736 0.000453741 7.83374 0.396214 6.0318 1.15801C4.22986 1.9198 2.64571 3.02813 1.39653 4.40102L0.740723 5.12223L2.20609 5.98122C6.94649 8.76051 12.5161 10.2439 18.2133 10.2445Z" fill="#91CAFF"/>
<path id="Vector_6" d="M34.509 5.8507L35.6852 5.16527L35.02 4.438C33.7529 3.05358 32.146 1.93593 30.3182 1.16774C28.4904 0.399543 26.4884 0.000457554 24.4604 0H11.4633C9.59164 0.00145103 7.74077 0.343042 6.02812 1.0031C5.22574 1.55774 4.49797 2.19023 3.85878 2.88842L3.19238 3.61569L4.67878 4.48191C9.48723 7.28455 15.1368 8.78037 20.9158 8.78096C25.6512 8.77969 30.3156 7.77419 34.509 5.8507Z" fill="#1677FF"/>
<path id="Vector_7" d="M32.3773 23.6599H1.31104C1.73879 24.1101 2.28863 24.3604 2.85898 24.3645C2.28849 24.3665 1.73826 24.6171 1.31163 25.0691H32.3773V23.6599Z" fill="#008781"/>
<path id="Vector_8" d="M6.99316 15.2039H31.919C31.7544 14.9828 31.5525 14.8057 31.3265 14.6843C31.1006 14.5628 30.8556 14.4998 30.6078 14.4993C30.8556 14.4987 31.1006 14.4357 31.3265 14.3143C31.5525 14.1928 31.7544 14.0157 31.919 13.7946H6.99316" fill="#00B4B2"/>
</g>
</svg>
