<svg width="32" height="32" viewBox="0 0 32 32" fill="none" xmlns="http://www.w3.org/2000/svg">
<g id="ion:water">
<path id="Vector" d="M16.57 3.75755C16.4996 3.67533 16.4122 3.60931 16.3139 3.56406C16.2155 3.5188 16.1086 3.49536 16.0003 3.49536C15.8921 3.49536 15.7851 3.5188 15.6867 3.56406C15.5884 3.60931 15.501 3.67533 15.4306 3.75755C13.4519 6.07193 7 14.0732 7 20.0001C7 25.5232 10.4775 29.0001 16 29.0001C21.5225 29.0001 25 25.5232 25 20.0001C25 14.0732 18.5481 6.07193 16.57 3.75755ZM17 25.7501C16.8799 25.7503 16.7614 25.7217 16.6547 25.6667C16.5479 25.6116 16.4559 25.5317 16.3865 25.4337C16.317 25.3357 16.2721 25.2225 16.2555 25.1035C16.239 24.9845 16.2512 24.8633 16.2913 24.7501C16.3424 24.6023 16.4388 24.4744 16.5669 24.3846C16.6949 24.2949 16.848 24.2478 17.0044 24.2501C17.9971 24.2479 18.9486 23.8526 19.6506 23.1506C20.3525 22.4486 20.7479 21.4972 20.75 20.5044C20.7477 20.3481 20.7948 20.195 20.8846 20.0669C20.9744 19.9389 21.1022 19.8424 21.25 19.7913C21.3633 19.7513 21.4845 19.739 21.6034 19.7556C21.7224 19.7721 21.8357 19.817 21.9337 19.8865C22.0317 19.956 22.1116 20.048 22.1666 20.1547C22.2217 20.2615 22.2503 20.3799 22.25 20.5001C22.2485 21.892 21.6949 23.2265 20.7107 24.2107C19.7264 25.195 18.3919 25.7486 17 25.7501Z" fill="#13C2C2"/>
</g>
</svg>
