<svg width="28" height="28" viewBox="0 0 28 28" fill="none" xmlns="http://www.w3.org/2000/svg">
<g id="icon/1">
<path id="Vector (Stroke)" fill-rule="evenodd" clip-rule="evenodd" d="M14.0027 3.50585C13.4357 3.4967 12.8878 3.7253 12.4739 4.12975C12.067 4.52742 11.8358 5.07298 11.8358 5.64675C11.8358 5.87274 11.6985 6.07609 11.489 6.16066C10.2616 6.65593 9.19489 7.51789 8.452 8.62685C7.70776 9.7378 7.30909 11.0422 7.30909 12.3784V15.5868C7.30909 15.8204 7.25542 16.0808 7.10579 16.3159C6.98298 16.5089 6.8022 16.6963 6.57977 16.8184C6.17345 17.0456 5.86174 17.37 5.66956 17.7713C5.48151 18.1768 5.4092 18.6313 5.48011 19.0685C5.5846 19.5804 5.86539 20.0473 6.27751 20.3845C6.68354 20.7167 7.19554 20.8872 7.73687 20.8777L7.74659 20.8775L20.2398 20.8776C20.7704 20.8871 21.2938 20.7161 21.699 20.3845L21.7049 20.3797C22.1105 20.057 22.3914 19.5939 22.4963 19.0695C22.5687 18.6253 22.503 18.1754 22.3009 17.7712C22.0978 17.3649 21.7735 17.0387 21.3685 16.8221C21.3562 16.8155 21.3442 16.8084 21.3324 16.8009C21.1203 16.666 20.9522 16.4777 20.8401 16.2721C20.7086 16.031 20.6791 15.7755 20.6791 15.5751V12.6351C20.6791 12.396 20.6683 12.1678 20.6464 11.9269C20.6187 11.6221 20.8433 11.3526 21.1481 11.3249C21.4529 11.2972 21.7224 11.5218 21.7501 11.8266C21.7749 12.0991 21.7874 12.3608 21.7874 12.6351V15.5751C21.7874 15.678 21.8046 15.7258 21.8131 15.7414C21.8384 15.7878 21.8754 15.8293 21.9154 15.8578C22.5029 16.1781 22.9863 16.6636 23.2923 17.2756C23.6023 17.8957 23.7004 18.5863 23.5882 19.2595L23.5856 19.2753C23.4328 20.053 23.0153 20.7525 22.3979 21.2447C21.7783 21.7504 20.9983 21.9986 20.2252 21.9859H7.75115C6.96428 21.9986 6.19496 21.749 5.57567 21.2423C4.96348 20.7414 4.54512 20.0451 4.39152 19.2771L4.3883 19.2595C4.2751 18.5803 4.38929 17.8958 4.66578 17.3014L4.66811 17.2964C4.96572 16.6728 5.44626 16.1818 6.04151 15.8495L6.04621 15.8469C6.07916 15.8289 6.13071 15.7838 6.17073 15.7209C6.18443 15.6994 6.20076 15.6564 6.20076 15.5868V12.3784C6.20076 10.8213 6.66542 9.30237 7.53118 8.00999C8.332 6.81457 9.45373 5.86622 10.7491 5.27284C10.8344 4.53919 11.1687 3.85554 11.6993 3.33709C12.311 2.73922 13.138 2.38467 14.0161 2.39759C14.8873 2.39879 15.7166 2.75073 16.3213 3.36943C16.9201 3.98224 17.2749 4.81096 17.2607 5.69069C17.2557 5.99671 17.0037 6.24078 16.6977 6.23585C16.3916 6.23091 16.1476 5.97883 16.1525 5.67281C16.1616 5.10588 15.933 4.55794 15.5286 4.14408C15.1309 3.73716 14.5854 3.50592 14.0116 3.50592L14.0027 3.50585ZM10.3936 22.9741C10.4927 22.803 10.6755 22.6976 10.8733 22.6976H17.1033C17.301 22.6976 17.4838 22.803 17.5829 22.9741C17.6819 23.1453 17.6823 23.3563 17.5838 23.5278C17.2199 24.1612 16.6944 24.6867 16.061 25.0506C15.434 25.4108 14.7211 25.6143 13.9883 25.6143C13.2554 25.6143 12.5425 25.4108 11.9155 25.0506C11.2822 24.6867 10.7566 24.1612 10.3927 23.5278C10.2942 23.3563 10.2946 23.1453 10.3936 22.9741ZM12.0568 23.8059C12.1852 23.9113 12.3225 24.0062 12.4676 24.0896C12.9373 24.3594 13.4611 24.5059 13.9883 24.5059C14.5154 24.5059 15.0392 24.3594 15.5089 24.0896C15.654 24.0062 15.7913 23.9113 15.9197 23.8059H12.0568Z" fill="#5A5C62"/>
<path id="Vector" d="M19.716 11.1297C21.4106 11.1297 22.7844 9.75601 22.7844 8.06141C22.7844 6.36682 21.4106 4.99308 19.716 4.99308C18.0214 4.99308 16.6477 6.36682 16.6477 8.06141C16.6477 9.75601 18.0214 11.1297 19.716 11.1297Z" fill="#FF4242"/>
</g>
</svg>
