<svg width="36" height="36" viewBox="0 0 36 36" fill="none" xmlns="http://www.w3.org/2000/svg">
<path d="M8.83698 21.9743C8.04701 21.9743 7.2894 21.5997 6.73081 20.933C6.17221 20.2663 5.8584 19.362 5.8584 18.4191C5.8584 17.4762 6.17221 16.572 6.73081 15.9052C7.2894 15.2385 8.04701 14.864 8.83698 14.864H28.1978C28.5928 14.864 28.9716 15.0512 29.2509 15.3846C29.5302 15.718 29.6871 16.1701 29.6871 16.6415C29.6871 17.113 29.5302 17.5651 29.2509 17.8985C28.9716 18.2318 28.5928 18.4191 28.1978 18.4191C28.5928 18.4191 28.9716 18.6064 29.2509 18.9398C29.5302 19.2731 29.6871 19.7252 29.6871 20.1967C29.6871 20.6681 29.5302 21.1203 29.2509 21.4536C28.9716 21.787 28.5928 21.9743 28.1978 21.9743H8.83698Z" fill="#ADE4E5"/>
<path d="M29.5954 20.7892C29.6543 20.5995 29.6852 20.399 29.6868 20.1967C29.6868 19.7252 29.5299 19.2731 29.2506 18.9398C28.9713 18.6064 28.5925 18.4191 28.1975 18.4191C28.5925 18.4191 28.9713 18.2318 29.2506 17.8985C29.5299 17.5651 29.6868 17.113 29.6868 16.6415C29.6868 16.1701 29.5299 15.718 29.2506 15.3846C28.9713 15.0512 28.5925 14.864 28.1975 14.864H8.83666C8.55556 14.8645 8.27595 14.9126 8.00614 15.0068C7.65435 15.5291 7.43344 16.1595 7.36888 16.8253C7.30431 17.491 7.39873 18.165 7.64123 18.7695C7.88373 19.3739 8.26445 19.8843 8.73946 20.2416C9.21448 20.599 9.76445 20.7888 10.326 20.7892H29.5954Z" fill="#DFF4F5"/>
<path d="M32.6657 26.7144C32.6657 27.9716 32.2473 29.1773 31.5025 30.0662C30.7577 30.9552 29.7476 31.4546 28.6943 31.4546H4.86561C4.33896 31.4546 3.83388 31.2049 3.46149 30.7604C3.08909 30.3159 2.87988 29.7131 2.87988 29.0845C2.87988 28.4559 3.08909 27.8531 3.46149 27.4086C3.83388 26.9641 4.33896 26.7144 4.86561 26.7144C4.33896 26.7144 3.83388 26.4647 3.46149 26.0202C3.08909 25.5757 2.87988 24.9729 2.87988 24.3443C2.87988 23.7157 3.08909 23.1129 3.46149 22.6684C3.83388 22.2239 4.33896 21.9742 4.86561 21.9742H28.6943C29.216 21.9733 29.7328 22.0954 30.2149 22.3333C30.6971 22.5712 31.1352 22.9203 31.5041 23.3606C31.8731 23.801 32.1656 24.3239 32.3649 24.8994C32.5642 25.4749 32.6665 26.0917 32.6657 26.7144Z" fill="#3385FF"/>
<path d="M2.87988 29.0845H27.205C27.836 29.086 28.4581 28.9077 29.0197 28.5644C29.5813 28.2211 30.0661 27.7227 30.4338 27.1107C30.8015 26.4987 31.0415 25.7908 31.1338 25.0458C31.2261 24.3008 31.168 23.5402 30.9645 22.8274C30.2989 22.2719 29.5064 21.974 28.6943 21.9742H4.86561C4.33896 21.9742 3.83388 22.2239 3.46149 22.6684C3.08909 23.1129 2.87988 23.7157 2.87988 24.3443C2.87988 24.9729 3.08909 25.5757 3.46149 26.0202C3.83388 26.4647 4.33896 26.7144 4.86561 26.7144C4.33896 26.7144 3.83388 26.9641 3.46149 27.4086C3.08909 27.8531 2.87988 28.4559 2.87988 29.0845Z" fill="#91CAFF"/>
<path d="M17.773 14.8413C22.5637 14.8408 27.2471 13.5935 31.2332 11.2564L32.4655 10.5341L31.914 9.92762C30.8636 8.77318 29.5315 7.8412 28.0163 7.20062C26.501 6.56004 24.8414 6.22725 23.1602 6.22687H12.3858C10.7046 6.22725 9.04499 6.56004 7.52976 7.20062C6.01453 7.8412 4.68244 8.77318 3.63202 9.92762L3.08057 10.5341L4.31277 11.2564C8.29892 13.5935 12.9823 14.8408 17.773 14.8413Z" fill="#91CAFF"/>
<path d="M31.4763 11.1466L32.4654 10.5703L31.906 9.95872C30.8405 8.79458 29.4893 7.85477 27.9523 7.2088C26.4153 6.56284 24.7319 6.22725 23.0266 6.22687H12.0975C10.5236 6.22809 8.96725 6.51533 7.52711 7.07036C6.8524 7.53675 6.24043 8.0686 5.70294 8.6557L5.14258 9.26725L6.39247 9.99564C10.4358 12.3523 15.1865 13.6102 20.0459 13.6107C24.0279 13.6096 27.9501 12.7641 31.4763 11.1466Z" fill="#1677FF"/>
<path d="M29.6867 26.122H3.56348C3.92317 26.5007 4.38552 26.7111 4.86512 26.7145C4.38541 26.7163 3.92273 26.927 3.56397 27.3071H29.6867V26.122Z" fill="#0054D1"/>
<path d="M8.34082 19.0117H29.3006C29.1622 18.8258 28.9924 18.6769 28.8024 18.5748C28.6124 18.4726 28.4064 18.4196 28.1981 18.4192C28.4064 18.4188 28.6124 18.3657 28.8024 18.2636C28.9924 18.1615 29.1622 18.0126 29.3006 17.8267H8.34082" fill="#0066FF"/>
</svg>
