<svg width="53" height="53" viewBox="0 0 53 53" fill="none" xmlns="http://www.w3.org/2000/svg">
<g id="T-shirt/Bulk">
<g id="Group">
<path id="Vector" d="M13.3945 32.5956C12.2358 32.5956 11.1247 32.0462 10.3054 31.0684C9.48614 30.0905 9.02588 28.7642 9.02588 27.3813C9.02588 25.9984 9.48614 24.6722 10.3054 23.6943C11.1247 22.7165 12.2358 22.1671 13.3945 22.1671H41.7903C42.3696 22.1671 42.9252 22.4418 43.3348 22.9307C43.7445 23.4197 43.9746 24.0828 43.9746 24.7742C43.9746 25.4657 43.7445 26.1288 43.3348 26.6177C42.9252 27.1067 42.3696 27.3813 41.7903 27.3813C42.3696 27.3813 42.9252 27.656 43.3348 28.145C43.7445 28.6339 43.9746 29.297 43.9746 29.9885C43.9746 30.6799 43.7445 31.343 43.3348 31.832C42.9252 32.3209 42.3696 32.5956 41.7903 32.5956H13.3945Z" fill="#ADE4E5"/>
<path id="Vector_2" d="M43.8403 30.8575C43.9266 30.5792 43.9719 30.2852 43.9743 29.9885C43.9743 29.297 43.7441 28.6339 43.3345 28.145C42.9249 27.656 42.3693 27.3813 41.79 27.3813C42.3693 27.3813 42.9249 27.1067 43.3345 26.6177C43.7441 26.1288 43.9743 25.4657 43.9743 24.7742C43.9743 24.0828 43.7441 23.4197 43.3345 22.9307C42.9249 22.4418 42.3693 22.1671 41.79 22.1671H13.3941C12.9819 22.168 12.5717 22.2385 12.176 22.3766C11.6601 23.1427 11.3361 24.0673 11.2414 25.0437C11.1467 26.0201 11.2852 27.0086 11.6408 27.8952C11.9965 28.7818 12.5549 29.5303 13.2516 30.0544C13.9483 30.5785 14.7549 30.8569 15.5784 30.8575H43.8403Z" fill="#DFF4F5"/>
<path id="Vector_3" d="M48.3431 39.5477C48.3431 41.3916 47.7295 43.1599 46.6371 44.4637C45.5447 45.7675 44.0632 46.5 42.5184 46.5H7.56962C6.79721 46.5 6.05643 46.1338 5.51025 45.4819C4.96407 44.83 4.65723 43.9458 4.65723 43.0239C4.65723 42.1019 4.96407 41.2178 5.51025 40.5659C6.05643 39.914 6.79721 39.5477 7.56962 39.5477C6.79721 39.5477 6.05643 39.1815 5.51025 38.5296C4.96407 37.8777 4.65723 36.9935 4.65723 36.0716C4.65723 35.1496 4.96407 34.2655 5.51025 33.6135C6.05643 32.9616 6.79721 32.5954 7.56962 32.5954H42.5184C43.2836 32.5941 44.0415 32.7731 44.7487 33.1221C45.4558 33.471 46.0984 33.9831 46.6395 34.6289C47.1805 35.2747 47.6096 36.0416 47.9019 36.8857C48.1943 37.7298 48.3442 38.6344 48.3431 39.5477Z" fill="#3385FF"/>
<path id="Vector_4" d="M4.65723 43.0239H40.3341C41.2595 43.0261 42.172 42.7646 42.9956 42.261C43.8193 41.7575 44.5304 41.0266 45.0697 40.129C45.609 39.2314 45.9609 38.1931 46.0963 37.1004C46.2317 36.0077 46.1465 34.8923 45.8479 33.8468C44.8719 33.032 43.7095 32.5952 42.5184 32.5954H7.56962C6.79721 32.5954 6.05643 32.9616 5.51025 33.6135C4.96407 34.2654 4.65723 35.1496 4.65723 36.0716C4.65723 36.9935 4.96407 37.8777 5.51025 38.5296C6.05643 39.1815 6.79721 39.5477 7.56962 39.5477C6.79721 39.5477 6.05643 39.9139 5.51025 40.5659C4.96407 41.2178 4.65723 42.1019 4.65723 43.0239Z" fill="#91CAFF"/>
<path id="Vector_5" d="M26.5006 22.1338C33.5269 22.1331 40.3959 20.3037 46.2423 16.876L48.0495 15.8166L47.2407 14.9271C45.7001 13.2339 43.7463 11.867 41.524 10.9275C39.3017 9.98798 36.8676 9.49989 34.4018 9.49933H18.5993C16.1335 9.49989 13.6995 9.98798 11.4771 10.9275C9.25481 11.867 7.30108 13.2339 5.76046 14.9271L4.95166 15.8166L6.7589 16.876C12.6052 20.3037 19.4742 22.1331 26.5006 22.1338Z" fill="#91CAFF"/>
<path id="Vector_6" d="M46.5989 16.715L48.0495 15.8697L47.2291 14.9727C45.6664 13.2653 43.6846 11.8869 41.4304 10.9395C39.1761 9.99209 36.7071 9.49989 34.206 9.49933H18.1766C15.8683 9.50112 13.5856 9.9224 11.4734 10.7364C10.4838 11.4205 9.58625 12.2005 8.79794 13.0616L7.97607 13.9586L9.80925 15.0269C15.7395 18.4834 22.7071 20.3282 29.8343 20.3289C35.6745 20.3273 41.4272 19.0872 46.5989 16.715Z" fill="#1677FF"/>
<path id="Vector_7" d="M43.9742 38.6789H5.66016C6.18771 39.2342 6.86583 39.5429 7.56923 39.5479C6.86566 39.5505 6.18706 39.8595 5.66088 40.417H43.9742V38.6789Z" fill="#0054D1"/>
<path id="Vector_8" d="M12.6665 28.2505H43.4076C43.2046 27.9778 42.9555 27.7594 42.6769 27.6096C42.3982 27.4598 42.0961 27.3821 41.7905 27.3814C42.0961 27.3808 42.3982 27.303 42.6769 27.1533C42.9555 27.0035 43.2046 26.7851 43.4076 26.5124H12.6665" fill="#0066FF"/>
</g>
</g>
</svg>
