<svg width="48" height="48" viewBox="0 0 48 48" fill="none" xmlns="http://www.w3.org/2000/svg">
<g id="icon_Tshirt">
<path id="Vector" fill-rule="evenodd" clip-rule="evenodd" d="M28.7818 6C28.7818 7.26 28.2818 8.46 27.4018 9.34C26.5218 10.22 25.3018 10.72 24.0618 10.72C22.8218 10.72 21.6018 10.22 20.7218 9.34C19.8218 8.46 19.3218 7.26 19.3218 6H18.5818C18.3418 6 18.1218 6.06 17.9218 6.2L9.6818 10.38C9.4218 10.54 9.2418 10.78 9.1618 11.08L6.0418 21.48C6.0018 21.64 5.9818 21.8 6.0218 21.96C6.0418 22.12 6.1018 22.28 6.1818 22.42C6.2618 22.56 6.3818 22.68 6.5018 22.78C6.6418 22.88 6.7818 22.94 6.9418 22.98L12.6018 24.28V35.56C12.6018 36.58 13.0018 37.58 13.7218 38.32C14.4218 39.06 15.4018 39.5 16.4218 39.56C18.8618 40 21.3418 40.22 23.8218 40.24H24.2818C26.7618 40.24 29.2418 40 31.6818 39.56C32.7018 39.5 33.6818 39.06 34.3818 38.32C35.0818 37.58 35.4818 36.6 35.5018 35.56V24.28L41.1618 22.98C41.3218 22.94 41.4618 22.88 41.6018 22.78C41.7418 22.68 41.8418 22.56 41.9218 22.42C42.0018 22.28 42.0618 22.12 42.0818 21.96C42.1018 21.8 42.0818 21.64 42.0418 21.48L38.9218 11.08C38.8418 10.8 38.6618 10.54 38.4018 10.38L30.1618 6.2C29.9618 6.06 29.7218 6 29.5018 6H28.8018H28.7818Z" fill="#13C2C2"/>
</g>
</svg>
