<svg width="24" height="24" viewBox="0 0 24 24" fill="none" xmlns="http://www.w3.org/2000/svg">
<g id="location">
<path id="Vector" d="M12 1.5C9.81196 1.5 7.71354 2.36919 6.16637 3.91637C4.61919 5.46354 3.75 7.56196 3.75 9.75C3.75 16.185 11.25 22.095 11.535 22.3425C11.6674 22.4471 11.8312 22.504 12 22.504C12.1688 22.504 12.3326 22.4471 12.465 22.3425C12.75 22.095 20.25 16.185 20.25 9.75C20.25 7.56196 19.3808 5.46354 17.8336 3.91637C16.2865 2.36919 14.188 1.5 12 1.5ZM12 13.5C11.2583 13.5 10.5333 13.2801 9.91661 12.868C9.29993 12.456 8.81928 11.8703 8.53545 11.1851C8.25162 10.4998 8.17736 9.74584 8.32205 9.01841C8.46675 8.29098 8.8239 7.6228 9.34835 7.09835C9.8728 6.5739 10.541 6.21675 11.2684 6.07205C11.9958 5.92736 12.7498 6.00162 13.4351 6.28545C14.1203 6.56928 14.706 7.04993 15.118 7.66661C15.5301 8.2833 15.75 9.00832 15.75 9.75C15.75 10.7446 15.3549 11.6984 14.6517 12.4016C13.9484 13.1049 12.9946 13.5 12 13.5Z" fill="#F5222D"/>
</g>
</svg>
