<svg width="52" height="52" viewBox="0 0 24 24" fill="none" xmlns="http://www.w3.org/2000/svg">
<path fill-rule="evenodd" clip-rule="evenodd" d="M9.59394 6C9.59394 6.42 9.42727 6.82 9.13393 7.11333C8.8406 7.40667 8.43393 7.57333 8.0206 7.57333C7.60727 7.57333 7.2006 7.40667 6.90727 7.11333C6.60727 6.82 6.4406 6.42 6.4406 6H6.19393C6.11393 6 6.0406 6.02 5.97393 6.06667L3.22727 7.46C3.1406 7.51333 3.0806 7.59333 3.05393 7.69333L2.01393 11.16C2.0006 11.2133 1.99393 11.2667 2.00727 11.32C2.01393 11.3733 2.03393 11.4267 2.0606 11.4733C2.08727 11.52 2.12727 11.56 2.16727 11.5933C2.21393 11.6267 2.2606 11.6467 2.31393 11.66L4.2006 12.0933V15.8533C4.2006 16.1933 4.33393 16.5267 4.57393 16.7733C4.80727 17.02 5.13393 17.1667 5.47393 17.1867C6.28727 17.3333 7.11393 17.4067 7.9406 17.4133H8.09394C8.9206 17.4133 9.74727 17.3333 10.5606 17.1867C10.9006 17.1667 11.2273 17.02 11.4606 16.7733C11.6939 16.5267 11.8273 16.2 11.8339 15.8533V12.0933L13.7206 11.66C13.7739 11.6467 13.8206 11.6267 13.8673 11.5933C13.9139 11.56 13.9473 11.52 13.9739 11.4733C14.0006 11.4267 14.0206 11.3733 14.0273 11.32C14.0339 11.2667 14.0273 11.2133 14.0139 11.16L12.9739 7.69333C12.9473 7.6 12.8873 7.51333 12.8006 7.46L10.0539 6.06667C9.98727 6.02 9.90727 6 9.83393 6H9.59394Z" fill="#13C2C2"/>
<path d="M11.4058 17.3595C11.0868 17.3595 10.7808 17.2083 10.5552 16.939C10.3296 16.6698 10.2029 16.3046 10.2029 15.9238C10.2029 15.543 10.3296 15.1778 10.5552 14.9086C10.7808 14.6393 11.0868 14.4881 11.4058 14.4881H19.2246C19.3841 14.4881 19.5371 14.5637 19.6499 14.6983C19.7627 14.8329 19.826 15.0155 19.826 15.2059C19.826 15.3963 19.7627 15.5789 19.6499 15.7135C19.5371 15.8482 19.3841 15.9238 19.2246 15.9238C19.3841 15.9238 19.5371 15.9994 19.6499 16.1341C19.7627 16.2687 19.826 16.4513 19.826 16.6417C19.826 16.8321 19.7627 17.0147 19.6499 17.1493C19.5371 17.2839 19.3841 17.3595 19.2246 17.3595H11.4058Z" fill="#ADE4E5"/>
<path d="M19.789 16.881C19.8128 16.8043 19.8254 16.7234 19.826 16.6417C19.826 16.4513 19.7627 16.2687 19.6499 16.1341C19.5371 15.9994 19.3841 15.9238 19.2246 15.9238C19.3841 15.9238 19.5371 15.8482 19.6499 15.7135C19.7627 15.5789 19.826 15.3963 19.826 15.2059C19.826 15.0155 19.7627 14.8329 19.6499 14.6983C19.5371 14.5637 19.3841 14.4881 19.2246 14.4881H11.4058C11.2923 14.4883 11.1793 14.5077 11.0703 14.5457C10.9282 14.7567 10.839 15.0113 10.8129 15.2801C10.7869 15.549 10.825 15.8212 10.9229 16.0653C11.0209 16.3094 11.1746 16.5155 11.3664 16.6598C11.5583 16.8041 11.7804 16.8808 12.0071 16.881H19.789Z" fill="#DFF4F5"/>
<path d="M21.0289 19.2738C21.0289 19.7815 20.8599 20.2684 20.5591 20.6274C20.2584 20.9864 19.8504 21.1881 19.425 21.1881H9.80193C9.58924 21.1881 9.38527 21.0873 9.23488 20.9078C9.08449 20.7283 9 20.4848 9 20.231C9 19.9771 9.08449 19.7337 9.23488 19.5542C9.38527 19.3747 9.58924 19.2738 9.80193 19.2738C9.58924 19.2738 9.38527 19.173 9.23488 18.9935C9.08449 18.814 9 18.5705 9 18.3166C9 18.0628 9.08449 17.8193 9.23488 17.6398C9.38527 17.4603 9.58924 17.3595 9.80193 17.3595H19.425C19.6358 17.3591 19.8444 17.4084 20.0392 17.5045C20.2339 17.6006 20.4108 17.7416 20.5598 17.9194C20.7088 18.0972 20.8269 18.3084 20.9074 18.5408C20.9879 18.7732 21.0292 19.0223 21.0289 19.2738Z" fill="#3385FF"/>
<path d="M9 20.231L18.8236 20.231C19.0784 20.2316 19.3297 20.1596 19.5565 20.0209C19.7833 19.8823 19.9791 19.681 20.1276 19.4339C20.276 19.1867 20.373 18.9008 20.4102 18.5999C20.4475 18.2991 20.4241 17.9919 20.3419 17.7041C20.0731 17.4797 19.753 17.3594 19.425 17.3595H9.80193C9.58924 17.3595 9.38527 17.4603 9.23488 17.6398C9.08449 17.8193 9 18.0628 9 18.3166C9 18.5705 9.08449 18.814 9.23488 18.9935C9.38527 19.173 9.58924 19.2738 9.80193 19.2738C9.58924 19.2738 9.38527 19.3747 9.23488 19.5542C9.08449 19.7337 9 19.9771 9 20.231Z" fill="#91CAFF"/>
<path d="M15.0146 14.4789C16.9493 14.4787 18.8406 13.975 20.4504 13.0312L20.948 12.7395L20.7253 12.4945C20.3011 12.0283 19.7632 11.6519 19.1513 11.3932C18.5393 11.1345 17.8691 11.0002 17.1902 11H12.8389C12.16 11.0002 11.4898 11.1345 10.8779 11.3932C10.2659 11.6519 9.72798 12.0283 9.30378 12.4945L9.08107 12.7395L9.57869 13.0312C11.1885 13.975 13.0799 14.4787 15.0146 14.4789Z" fill="#91CAFF"/>
<path d="M20.5486 12.9868L20.948 12.7541L20.7221 12.5071C20.2919 12.037 19.7462 11.6574 19.1255 11.3966C18.5048 11.1357 17.8249 11.0002 17.1362 11H12.7226C12.087 11.0005 11.4584 11.1165 10.8768 11.3406C10.6043 11.529 10.3572 11.7438 10.1401 11.9809L9.91384 12.2278L10.4186 12.522C12.0515 13.4738 13.97 13.9817 15.9325 13.9819C17.5406 13.9815 19.1246 13.64 20.5486 12.9868Z" fill="#1677FF"/>
<path d="M19.8259 19.0346H9.27616C9.42142 19.1875 9.60824 19.2724 9.80193 19.2738C9.6082 19.2745 9.42124 19.3597 9.27636 19.5132H19.8259V19.0346Z" fill="#0054D1"/>
<path d="M11.2054 16.1631H19.6699C19.614 16.088 19.5454 16.0279 19.4687 15.9866C19.392 15.9454 19.3087 15.924 19.2246 15.9238C19.3087 15.9236 19.392 15.9022 19.4687 15.861C19.5454 15.8198 19.614 15.7596 19.6699 15.6845H11.2054" fill="#0066FF"/>
</svg>
