<svg width="53" height="53" viewBox="0 0 53 53" fill="none" xmlns="http://www.w3.org/2000/svg">
<g id="sneakers">
<path id="Vector" d="M20.8533 13.6509C20.8533 13.6509 19.8463 10.3241 18.0411 9.04979C17.1346 8.40989 16.2013 8.23861 15.4967 8.22668C14.7982 8.21415 14.2702 8.87575 14.285 9.65431C14.3163 11.3096 14.0372 14.1508 15.8788 15.7396C18.5866 18.0758 21.333 18.1289 21.333 18.1289C21.333 18.1289 20.4266 14.615 20.8533 13.6509Z" fill="#91CAFF"/>
<path id="Vector_2" d="M6.49455 13.6506C4.8939 13.6506 4.71352 14.9751 4.77481 15.6196C5.1328 19.3841 5.09196 22.6388 4.8185 23.4123C3.59872 26.8629 3.19627 32.4495 3.06396 36.4023L28.7768 37.1792C31.1756 37.2517 34.4081 34.6258 36.8859 31.8476C38.0038 30.5942 39.1097 29.0556 40.0001 28.5781C33.8549 25.0646 26.6017 22.4946 23.5456 19.6985C22.2607 18.5229 21.3309 15.3769 20.853 13.6506H6.49455Z" fill="#13C2C2"/>
<path id="Vector_3" d="M40.0005 28.5776C39.1101 29.0552 38.0041 29.8172 36.8862 31.0706C34.4083 33.8488 31.1767 36.4024 28.7769 36.4024H3.05711C2.94748 39.0526 3.00464 40.9826 3.00464 40.9826H50.0352C50.0352 35.5578 45.4542 31.6958 40.0005 28.5776Z" fill="#00A5A1"/>
<path id="Vector_4" d="M49.7827 38.762C46.5178 39.6368 44.9858 39.7381 42.9843 39.7381H3.00449C1.82793 39.7381 1.82793 44.773 3.00449 44.773H42.7751C44.6032 44.773 47.5631 43.8846 49.5344 42.1394C52.4038 39.5991 49.7827 38.762 49.7827 38.762Z" fill="#008781"/>
<path id="Vector_5" d="M34.5347 24.9089L32.8254 26.6182C32.4094 27.0342 32.4094 27.7041 32.8254 28.1202C33.2415 28.5363 33.9114 28.5363 34.3275 28.1202L36.0367 26.411C36.4528 25.9949 36.4528 25.325 36.0367 24.9089C35.6207 24.4929 34.9507 24.4929 34.5347 24.9089ZM29.2241 21.5212L27.5149 23.2304C27.0988 23.6465 27.0988 24.3164 27.5149 24.7325C27.931 25.1485 28.6009 25.1485 29.017 24.7325L30.7262 23.0232C31.1422 22.6072 31.1422 21.9372 30.7262 21.5212C30.3101 21.1051 29.6402 21.1051 29.2241 21.5212ZM24.2249 18.6462L22.5157 20.3554C22.0996 20.7715 22.0996 21.4414 22.5157 21.8574C22.9317 22.2735 23.6017 22.2735 24.0177 21.8574L25.7269 20.1482C26.143 19.7321 26.143 19.0622 25.7269 18.6462C25.3109 18.2301 24.641 18.2301 24.2249 18.6462Z" fill="white"/>
</g>
</svg>
