<svg width="30" height="29" viewBox="0 0 30 29" fill="none" xmlns="http://www.w3.org/2000/svg">
<path d="M5.86133 15.8526L1.21938 14.7871C1.09019 14.7569 0.968386 14.7011 0.861204 14.6229C0.754023 14.5447 0.663649 14.4457 0.595447 14.3319C0.527244 14.2181 0.482607 14.0918 0.464184 13.9604C0.44576 13.829 0.453927 13.6953 0.4882 13.5671L3.04942 5.04364C3.11314 4.80885 3.26212 4.60625 3.46724 4.47542L10.2233 1.04513C10.3837 0.940834 10.571 0.885649 10.7623 0.886359H19.6911C19.8836 0.886038 20.0722 0.941159 20.2342 1.04513L26.9903 4.47542C27.1933 4.60854 27.3416 4.81022 27.4082 5.04364L29.9652 13.5671C30.0001 13.695 30.0089 13.8286 29.991 13.96C29.9731 14.0914 29.9289 14.2178 29.861 14.3317C29.7932 14.4456 29.703 14.5446 29.596 14.6229C29.489 14.7011 29.3673 14.757 29.2382 14.7871L24.5962 15.8526" fill="#13C2C2"/>
<path d="M5.86133 12.769V25.0946C5.86659 25.9357 6.19314 26.743 6.77414 27.3512C7.35514 27.9594 8.14664 28.3225 8.9866 28.3662C10.9845 28.7283 13.0103 28.9142 15.0408 28.9218H15.4168C17.4486 28.9144 19.4759 28.7285 21.4752 28.3662C22.3151 28.3225 23.1066 27.9594 23.6876 27.3512C24.2686 26.743 24.5952 25.9357 24.6004 25.0946V12.769" fill="#13C2C2"/>
<path d="M19.1062 0.886353C19.1062 1.91358 18.6981 2.89873 17.9718 3.62509C17.2454 4.35145 16.2603 4.75953 15.233 4.75953C14.2058 4.75953 13.2206 4.35145 12.4943 3.62509C11.7679 2.89873 11.3599 1.91358 11.3599 0.886353" fill="white"/>
</svg>
