<svg width="53" height="53" viewBox="0 0 53 53" fill="none" xmlns="http://www.w3.org/2000/svg">
<g id="T-shirt/Bulk">
<g id="T-shirt/Bulk_2">
<path id="Vector" d="M12.7634 28.9505L5.95519 27.3878C5.76571 27.3435 5.58706 27.2616 5.42986 27.1469C5.27266 27.0322 5.14012 26.8871 5.04009 26.7202C4.94006 26.5533 4.87459 26.368 4.84757 26.1753C4.82055 25.9826 4.83252 25.7864 4.88279 25.5984L8.63925 13.0974C8.73271 12.753 8.9512 12.4558 9.25205 12.264L19.161 7.23288C19.3962 7.07991 19.6709 6.99897 19.9515 7.00001H33.047C33.3294 6.99954 33.606 7.08038 33.8436 7.23288L43.7526 12.264C44.0503 12.4592 44.2678 12.755 44.3654 13.0974L48.1157 25.5984C48.167 25.786 48.1798 25.982 48.1536 26.1747C48.1274 26.3674 48.0625 26.5527 47.963 26.7198C47.8634 26.8868 47.7312 27.0321 47.5743 27.1469C47.4173 27.2617 47.2388 27.3436 47.0495 27.3878L40.2413 28.9505" fill="#13C2C2"/>
<path id="Vector_2" d="M12.7632 24.428V42.5055C12.7709 43.7391 13.2498 44.9231 14.102 45.8151C14.9541 46.7071 16.115 47.2397 17.3469 47.3038C20.2772 47.8349 23.2484 48.1075 26.2264 48.1188H26.7779C29.7579 48.1079 32.7312 47.8352 35.6635 47.3038C36.8954 47.2397 38.0563 46.7071 38.9084 45.8151C39.7605 44.9231 40.2395 43.7391 40.2472 42.5055V24.428" fill="#13C2C2"/>
<path id="Vector_3" d="M32.1889 7C32.1889 8.5066 31.5904 9.95149 30.5251 11.0168C29.4598 12.0821 28.0149 12.6807 26.5083 12.6807C25.0017 12.6807 23.5568 12.0821 22.4915 11.0168C21.4261 9.95149 20.8276 8.5066 20.8276 7" fill="white"/>
</g>
</g>
</svg>
