<svg width="20" height="20" viewBox="0 0 20 20" fill="none" xmlns="http://www.w3.org/2000/svg">
<g id="Music and sound Player/Volume">
<path id="Icon" d="M13.3916 3.23331L8.05831 6.79164C7.75328 6.99816 7.39334 7.10847 7.02498 7.10831H5.58331C5.09122 7.10609 4.61852 7.30002 4.26977 7.6472C3.92102 7.99439 3.72497 8.46621 3.72498 8.95831V11.0416C3.72497 11.5337 3.92102 12.0056 4.26977 12.3527C4.61852 12.6999 5.09122 12.8939 5.58331 12.8916H7.02498C7.39334 12.8915 7.75328 13.0018 8.05831 13.2083L13.3916 16.7666C13.961 17.1431 14.6909 17.1772 15.2929 16.8554C15.8948 16.5335 16.2719 15.9076 16.275 15.225V4.77497C16.2719 4.09239 15.8948 3.46645 15.2929 3.1446C14.6909 2.82275 13.961 2.85681 13.3916 3.23331Z" fill="#13C2C2"/>
</g>
</svg>
