<svg width="14" height="14" viewBox="0 0 14 14" fill="none" xmlns="http://www.w3.org/2000/svg">
<g id="calendar">
<path id="Union" fill-rule="evenodd" clip-rule="evenodd" d="M9.9165 1.16666C9.9165 0.844495 9.65534 0.583328 9.33317 0.583328C9.011 0.583328 8.74984 0.844495 8.74984 1.16666V1.74999H5.24984V1.16666C5.24984 0.844495 4.98867 0.583328 4.6665 0.583328C4.34434 0.583328 4.08317 0.844495 4.08317 1.16666V1.74999H2.9165C1.95001 1.74999 1.1665 2.5335 1.1665 3.49999V5.83333V11.6667C1.1665 12.6332 1.95001 13.4167 2.9165 13.4167H11.0832C12.0497 13.4167 12.8332 12.6332 12.8332 11.6667V5.83333V3.49999C12.8332 2.5335 12.0497 1.74999 11.0832 1.74999H9.9165V1.16666ZM11.6665 5.24999V3.49999C11.6665 3.17783 11.4053 2.91666 11.0832 2.91666H9.9165V3.49999C9.9165 3.82216 9.65534 4.08333 9.33317 4.08333C9.011 4.08333 8.74984 3.82216 8.74984 3.49999V2.91666H5.24984V3.49999C5.24984 3.82216 4.98867 4.08333 4.6665 4.08333C4.34434 4.08333 4.08317 3.82216 4.08317 3.49999V2.91666H2.9165C2.59434 2.91666 2.33317 3.17783 2.33317 3.49999V5.24999H11.6665ZM2.33317 6.41666H11.6665V11.6667C11.6665 11.9888 11.4053 12.25 11.0832 12.25H2.9165C2.59434 12.25 2.33317 11.9888 2.33317 11.6667V6.41666Z" fill="#E1E2E4"/>
</g>
</svg>
