<svg width="18" height="18" viewBox="0 0 18 18" fill="none" xmlns="http://www.w3.org/2000/svg">
<g id="Group 3157">
<circle id="Ellipse 292" cx="9" cy="9" r="9" fill="white"/>
<path id="Vector" d="M7.92673 12.4388L13.0254 7.10371C13.174 6.94985 13.2563 6.74377 13.2544 6.52986C13.2525 6.31596 13.1667 6.11134 13.0155 5.96008C12.8642 5.80882 12.6596 5.72302 12.4457 5.72116C12.2318 5.7193 12.0257 5.80153 11.8719 5.95014L7.34994 10.7084L5.47926 8.83774C5.3254 8.68913 5.11932 8.6069 4.90541 8.60876C4.69151 8.61062 4.48689 8.69642 4.33563 8.84768C4.18437 8.99894 4.09857 9.20355 4.09671 9.41746C4.09485 9.63137 4.17708 9.83744 4.32569 9.99131L6.77316 12.4388C6.92615 12.5917 7.13362 12.6776 7.34994 12.6776C7.56627 12.6776 7.77374 12.5917 7.92673 12.4388Z" fill="#00BF40"/>
</g>
</svg>
