<svg width="39" height="11" viewBox="0 0 39 11" fill="none" xmlns="http://www.w3.org/2000/svg">
<path d="M0.761719 10V8.80664L4.01172 5.6709C4.93848 4.74414 5.4209 4.19824 5.4209 3.42383C5.4209 2.57324 4.74805 2.02734 3.84668 2.02734C2.89453 2.02734 2.28516 2.62402 2.29785 3.55078H0.723633C0.710938 1.81152 2.01855 0.681641 3.85938 0.681641C5.73828 0.681641 7.00781 1.79883 7.00781 3.34766C7.00781 4.38867 6.5 5.22656 4.69727 6.92773L3.05957 8.55273V8.61621H7.14746V10H0.761719ZM11.9844 10.127C9.77539 10.127 8.45508 8.41309 8.45508 5.4043C8.45508 2.4082 9.77539 0.681641 11.9844 0.681641C14.1807 0.681641 15.5137 2.4082 15.5137 5.4043C15.5137 8.41309 14.1934 10.127 11.9844 10.127ZM11.9844 8.74316C13.1396 8.74316 13.8506 7.61328 13.8506 5.4043C13.8506 3.20801 13.127 2.05273 11.9844 2.05273C10.8418 2.05273 10.1182 3.20801 10.1182 5.4043C10.1182 7.61328 10.8291 8.74316 11.9844 8.74316ZM19.1572 5.29004C17.8496 5.29004 17.1387 4.3252 17.1387 2.91602C17.1387 1.51953 17.875 0.554688 19.1572 0.554688C20.4902 0.554688 21.1885 1.51953 21.1885 2.91602C21.1885 4.33789 20.4648 5.29004 19.1572 5.29004ZM19.1572 4.27441C19.7285 4.27441 20.0078 3.74121 20.0078 2.91602C20.0078 2.11621 19.7539 1.55762 19.1572 1.57031C18.5986 1.57031 18.3066 2.11621 18.3066 2.91602C18.3066 3.74121 18.5986 4.27441 19.1572 4.27441ZM25.1621 10.2412C23.8545 10.2539 23.1436 9.27637 23.1436 7.87988C23.1436 6.4707 23.8799 5.50586 25.1621 5.50586C26.4824 5.50586 27.1934 6.4707 27.1934 7.87988C27.1934 9.28906 26.4697 10.2539 25.1621 10.2412ZM25.1621 9.22559C25.7461 9.22559 26.0127 8.69238 26.0127 7.87988C26.0127 7.06738 25.7588 6.50879 25.1621 6.52148C24.6035 6.52148 24.3115 7.08008 24.3115 7.87988C24.3115 8.69238 24.6035 9.22559 25.1621 9.22559ZM18.3193 10L24.6416 0.808594H25.9238L19.6016 10H18.3193ZM34.8359 0.808594V7.5625L37.3877 4.99805L38.3145 5.9248L34.1758 10.0508L30.0371 5.9248L30.9512 4.99805L33.5029 7.5625V0.808594H34.8359Z" fill="#F5222D"/>
</svg>
