<svg width="14" height="14" viewBox="0 0 14 14" fill="none" xmlns="http://www.w3.org/2000/svg">
<g id="discount-tag" clip-path="url(#clip0_2666_14803)">
<path id="Vector" d="M13.7836 1.25126C13.7724 1.04539 13.6876 0.850389 13.5447 0.701816C13.4017 0.553243 13.2101 0.460994 13.0048 0.441886L8.57734 0.0546985C8.54672 0.052511 8.51609 0.0503235 8.48547 0.0503235C8.20766 0.0503235 7.94516 0.155323 7.74391 0.350011L0.269219 7.5447C0.185711 7.62501 0.118938 7.72106 0.072757 7.82731C0.0265757 7.93357 0.00190063 8.04792 0.000156487 8.16376C-0.00421851 8.39782 0.0832815 8.62095 0.245156 8.79157L4.95047 13.6806C5.11891 13.8534 5.34422 13.9497 5.58703 13.9497C5.81672 13.9497 6.03109 13.8622 6.19734 13.7047L13.672 6.50782C13.782 6.40248 13.8681 6.2747 13.9243 6.13316C13.9806 5.99161 14.0057 5.83962 13.998 5.68751L13.7836 1.25126ZM6.37234 7.31064C6.27547 7.40727 6.1605 7.48386 6.03401 7.53603C5.90752 7.58821 5.77199 7.61494 5.63516 7.6147C5.35516 7.6147 5.09266 7.50532 4.89578 7.31064C4.69891 7.11157 4.59172 6.85126 4.59172 6.57126C4.59172 6.29345 4.69891 6.03095 4.89578 5.83407C5.09266 5.6372 5.35516 5.53001 5.63516 5.53001C5.91516 5.53001 6.17547 5.6372 6.37234 5.83407C6.56777 6.03008 6.67751 6.29557 6.67751 6.57235C6.67751 6.84914 6.56777 7.11463 6.37234 7.31064ZM3.60297 8.07189L8.26234 7.34564H8.29297C8.43297 7.34564 8.54891 7.44626 8.57078 7.58189C8.58172 7.65626 8.56422 7.73064 8.52047 7.79189C8.47672 7.85095 8.41109 7.89251 8.33891 7.90126L3.67516 8.62751L3.64453 8.6297C3.50453 8.6297 3.38859 8.52907 3.36672 8.39345C3.34484 8.24032 3.44984 8.09595 3.60297 8.07189ZM11.7142 3.6247C11.5545 3.77782 11.3577 3.85876 11.1433 3.85876H11.117C11.0069 3.85686 10.8983 3.83328 10.7973 3.78936C10.6964 3.74545 10.605 3.68206 10.5286 3.60282C10.3733 3.44095 10.2923 3.23095 10.2945 3.00564C10.2989 2.78251 10.3908 2.57251 10.5505 2.41939C10.708 2.26845 10.9136 2.18532 11.1302 2.18532C11.362 2.18532 11.5742 2.2772 11.7339 2.44126C12.0555 2.77376 12.0467 3.30532 11.7142 3.6247ZM5.55859 8.76532C5.75547 8.56845 6.01797 8.46126 6.29578 8.46126C6.57578 8.46126 6.83828 8.56845 7.03516 8.76532C7.22984 8.9622 7.33922 9.22251 7.33922 9.50251C7.33922 9.78251 7.22984 10.045 7.03516 10.2419C6.83828 10.4366 6.57578 10.5459 6.29578 10.5459C6.01797 10.5459 5.75547 10.4366 5.55859 10.2419C5.36172 10.045 5.25453 9.78251 5.25453 9.50251C5.25453 9.22251 5.36172 8.9622 5.55859 8.76532Z" fill="#F5222D"/>
<path id="Vector_2" d="M6.29543 9.97938C6.42668 9.97938 6.55137 9.93125 6.63887 9.84594C6.73074 9.75188 6.78105 9.63156 6.78105 9.5025C6.78105 9.37344 6.73074 9.25313 6.63887 9.16125C6.59396 9.11621 6.5406 9.08047 6.48186 9.05609C6.42311 9.03171 6.36013 9.01915 6.29652 9.01915C6.23292 9.01915 6.16994 9.03171 6.11119 9.05609C6.05245 9.08047 5.99909 9.11621 5.95418 9.16125C5.8623 9.25313 5.81199 9.37344 5.81199 9.5025C5.81199 9.63156 5.8623 9.75188 5.95418 9.84594C6.03949 9.92906 6.16418 9.97938 6.29543 9.97938ZM5.29137 6.23C5.19949 6.32188 5.15137 6.44219 5.15137 6.57125C5.15137 6.70031 5.19949 6.82281 5.29137 6.91469C5.38324 7.00656 5.50574 7.05469 5.6348 7.05469C5.76387 7.05469 5.88418 7.00656 5.97605 6.91469C6.16418 6.72656 6.16418 6.41813 5.97605 6.23C5.88418 6.13813 5.76387 6.08781 5.6348 6.08781C5.50574 6.09 5.38543 6.14031 5.29137 6.23Z" fill="#F5222D"/>
</g>
<defs>
<clipPath id="clip0_2666_14803">
<rect width="14" height="14" fill="white"/>
</clipPath>
</defs>
</svg>
