<svg width="24" height="24" viewBox="0 0 24 24" fill="none" xmlns="http://www.w3.org/2000/svg">
<g id="lock">
<path id="Vector" fill-rule="evenodd" clip-rule="evenodd" d="M17.523 7.396V8.929C19.245 9.467 20.5 11.026 20.5 12.889V17.825C20.5 20.131 18.589 22 16.232 22H7.77C5.41 22 3.5 20.13 3.5 17.825V12.888C3.5 11.026 4.756 9.467 6.477 8.929V7.396C6.487 4.415 8.957 2 11.985 2C15.054 2 17.523 4.415 17.523 7.396ZM12.005 3.739C14.068 3.739 15.745 5.379 15.745 7.396V8.714H8.255V7.376C8.265 5.369 9.942 3.739 12.005 3.739ZM12.889 16.455C12.8882 16.5712 12.8644 16.6862 12.819 16.7932C12.7735 16.9002 12.7073 16.9971 12.6242 17.0784C12.5411 17.1596 12.4427 17.2236 12.3347 17.2666C12.2267 17.3097 12.1112 17.3309 11.995 17.329C11.8795 17.3299 11.7649 17.308 11.6579 17.2645C11.5509 17.2211 11.4535 17.1569 11.3714 17.0757C11.2893 16.9945 11.224 16.8978 11.1793 16.7913C11.1346 16.6848 11.1114 16.5705 11.111 16.455V14.249C11.111 13.772 11.507 13.384 11.995 13.384C12.493 13.384 12.889 13.772 12.889 14.249V16.455Z" fill="white"/>
</g>
</svg>
