<svg width="14" height="14" viewBox="0 0 14 14" fill="none" xmlns="http://www.w3.org/2000/svg">
<g id="package">
<path id="Union" fill-rule="evenodd" clip-rule="evenodd" d="M6.99984 0.584473C6.69313 0.584473 6.39182 0.66508 6.12609 0.818207L4.26297 1.88284C4.13968 1.90701 4.02467 1.97068 3.93826 2.06839L2.04375 3.15096L2.0415 3.15226C1.82646 3.27642 1.64088 3.44457 1.49652 3.64499C1.46061 3.68061 1.42877 3.72153 1.40222 3.76742C1.37935 3.80696 1.36163 3.84807 1.34887 3.88997C1.22941 4.13072 1.16678 4.39625 1.1665 4.66601V9.33387C1.16682 9.64076 1.24783 9.94217 1.40141 10.2079C1.55499 10.4735 1.77573 10.6942 2.0415 10.8476L2.04376 10.8489L6.12484 13.181L6.12592 13.1816C6.31091 13.2882 6.51315 13.3597 6.72246 13.3933C6.80495 13.438 6.89943 13.4633 6.99984 13.4633C7.10024 13.4633 7.19472 13.438 7.27722 13.3933C7.48654 13.3597 7.68879 13.2882 7.87379 13.1816L7.87484 13.181L11.9559 10.8489L11.9582 10.8476C12.2239 10.6942 12.4447 10.4735 12.5983 10.2079C12.7518 9.94217 12.8329 9.64076 12.8332 9.33387V4.66601C12.8329 4.39556 12.7699 4.12936 12.6499 3.88811C12.6372 3.84685 12.6196 3.80637 12.5971 3.76742C12.5709 3.72207 12.5395 3.68158 12.5041 3.64626C12.3596 3.44528 12.1737 3.27668 11.9582 3.15226L7.87484 0.818928L7.87362 0.818226C7.60788 0.665087 7.30656 0.584473 6.99984 0.584473ZM7.58317 12.0039L11.3748 9.83726L11.3758 9.83673C11.4639 9.7856 11.5372 9.71226 11.5882 9.62401C11.6394 9.53544 11.6664 9.43497 11.6665 9.33268V4.97963L7.58317 7.3417V12.0039ZM6.4165 7.3419L2.33317 4.97984V9.33293C2.33332 9.43514 2.36032 9.53551 2.41147 9.62401C2.46249 9.71226 2.53574 9.7856 2.62392 9.83673L2.62484 9.83726L6.4165 12.0039V7.3419ZM7.2915 1.8293L11.06 3.9827L9.62783 4.81113L5.57746 2.47542L6.70592 1.83059L6.70817 1.82929C6.79685 1.77809 6.89744 1.75114 6.99984 1.75114C7.10223 1.75114 7.20282 1.7781 7.2915 1.8293ZM6.99966 6.33144L8.46195 5.48556L4.40443 3.14572L2.93954 3.9828L6.99966 6.33144Z" fill="#E1E2E4"/>
<circle id="Ellipse 368" cx="3" cy="10" r="3" fill="white"/>
<path id="Union_2" fill-rule="evenodd" clip-rule="evenodd" d="M0.545455 10C0.545455 8.64439 1.64439 7.54545 3 7.54545C4.35561 7.54545 5.45455 8.64439 5.45455 10C5.45455 11.3556 4.35561 12.4545 3 12.4545C1.64439 12.4545 0.545455 11.3556 0.545455 10ZM3 7C1.34315 7 0 8.34315 0 10C0 11.6569 1.34315 13 3 13C4.65685 13 6 11.6569 6 10C6 8.34315 4.65685 7 3 7ZM3.27273 8.36364C3.27273 8.21301 3.15062 8.09091 3 8.09091C2.84938 8.09091 2.72727 8.21301 2.72727 8.36364V10C2.72727 10.1033 2.78564 10.1977 2.87803 10.2439L3.96894 10.7894C4.10366 10.8568 4.26748 10.8021 4.33484 10.6674C4.4022 10.5327 4.3476 10.3689 4.21288 10.3015L3.27273 9.83145V8.36364Z" fill="#E1E2E4"/>
</g>
</svg>
