<svg width="14" height="14" viewBox="0 0 14 14" fill="none" xmlns="http://www.w3.org/2000/svg">
<g id="truck">
<path id="Union" fill-rule="evenodd" clip-rule="evenodd" d="M0.583333 1.16667C0.261167 1.16667 0 1.42784 0 1.75001V9.33334C0 9.6555 0.261167 9.91667 0.583333 9.91667H1.36314C1.23716 10.1819 1.16667 10.4785 1.16667 10.7917C1.16667 11.9193 2.08075 12.8333 3.20833 12.8333C4.33592 12.8333 5.25 11.9193 5.25 10.7917C5.25 10.4785 5.17951 10.1819 5.05352 9.91667H8.94648C8.82049 10.1819 8.75 10.4785 8.75 10.7917C8.75 11.9193 9.66409 12.8333 10.7917 12.8333C11.9192 12.8333 12.8333 11.9193 12.8333 10.7917C12.8333 10.4785 12.7628 10.1819 12.6369 9.91667H13.4167C13.7388 9.91667 14 9.65551 14 9.33334V6.41667C14 6.26196 13.9385 6.11359 13.8291 6.00419L12.0791 4.25419C11.9697 4.1448 11.8214 4.08334 11.6667 4.08334H9.91667V1.75001C9.91667 1.42784 9.6555 1.16667 9.33333 1.16667H0.583333ZM10.7917 8.75001H12.8333V6.6583L11.425 5.25H9.91667V8.75001H10.7917ZM10.7917 9.91667C10.3084 9.91667 9.91667 10.3084 9.91667 10.7917C9.91667 11.2749 10.3084 11.6667 10.7917 11.6667C11.2749 11.6667 11.6667 11.2749 11.6667 10.7917C11.6667 10.3084 11.2749 9.91667 10.7917 9.91667ZM2.33333 10.7917C2.33333 10.3084 2.72508 9.91667 3.20833 9.91667C3.69158 9.91667 4.08333 10.3084 4.08333 10.7917C4.08333 11.2749 3.69158 11.6667 3.20833 11.6667C2.72508 11.6667 2.33333 11.2749 2.33333 10.7917ZM8.75 8.75L3.20833 8.75001L1.16667 8.75V2.33334H8.75V4.66561L8.75 4.66667L8.75 8.75Z" fill="#E1E2E4"/>
</g>
</svg>
