<svg width="20" height="18" viewBox="0 0 20 18" fill="none" xmlns="http://www.w3.org/2000/svg">
<g id="Group 3151">
<path id="Polygon 1" d="M7.72991 1.74718C8.73868 -7.28369e-05 11.2606 -7.7188e-05 12.2694 1.74717L19.1311 13.632C20.1398 15.3792 18.8789 17.5633 16.8613 17.5633H3.13797C1.12042 17.5633 -0.140551 15.3792 0.868223 13.632L7.72991 1.74718Z" fill="white"/>
<g id="Vector">
<path d="M9.61527 6.3115C9.73575 6.25799 9.8661 6.2303 9.99792 6.23022C10.1297 6.2303 10.2601 6.25799 10.3806 6.3115C10.501 6.36502 10.609 6.44317 10.6974 6.54094C10.7858 6.6387 10.8528 6.75391 10.894 6.87913C10.9352 7.00435 10.9497 7.13681 10.9366 7.26798L10.5716 10.9257C10.5593 11.0694 10.4935 11.2032 10.3873 11.3008C10.2811 11.3983 10.1421 11.4525 9.99792 11.4525C9.8537 11.4525 9.71474 11.3983 9.60852 11.3008C9.5023 11.2032 9.43655 11.0694 9.42428 10.9257L9.05924 7.26798C9.04613 7.13681 9.06065 7.00435 9.10184 6.87913C9.14304 6.75391 9.21001 6.6387 9.29844 6.54094C9.38687 6.44317 9.4948 6.36502 9.61527 6.3115Z" fill="#FF4242"/>
<path d="M9.26251 12.7935C9.45811 12.598 9.72339 12.4881 10 12.4881C10.2766 12.4881 10.5419 12.598 10.7375 12.7935C10.9331 12.9891 11.043 13.2544 11.043 13.531C11.043 13.8077 10.9331 14.0729 10.7375 14.2685C10.5419 14.4641 10.2766 14.574 10 14.574C9.72339 14.574 9.45811 14.4641 9.26251 14.2685C9.06692 14.0729 8.95703 13.8077 8.95703 13.531C8.95703 13.2544 9.06692 12.9891 9.26251 12.7935Z" fill="#FF4242"/>
</g>
</g>
</svg>
