<svg width="24" height="24" viewBox="0 0 24 24" fill="none" xmlns="http://www.w3.org/2000/svg">
<path d="M23 12C23 18.0751 18.0751 23 12 23C5.92487 23 1 18.0751 1 12C1 5.92487 5.92487 1 12 1C18.0751 1 23 5.92487 23 12Z" fill="#EAEBEC"/>
<path fill-rule="evenodd" clip-rule="evenodd" d="M12 22C17.5228 22 22 17.5228 22 12C22 6.47715 17.5228 2 12 2C6.47715 2 2 6.47715 2 12C2 17.5228 6.47715 22 12 22ZM12 23C18.0751 23 23 18.0751 23 12C23 5.92487 18.0751 1 12 1C5.92487 1 1 5.92487 1 12C1 18.0751 5.92487 23 12 23Z" fill="white"/>
<path d="M8.0475 14.9975C8.0475 14.9975 6.8475 14.9375 6.7875 15.9875C6.7275 17.03 6.6825 17.81 6.015 17.6375C6.195 17.93 6.3975 18.0425 6.5175 18.095C7.095 18.3425 7.7625 17.93 8.25 17.63C8.4975 17.48 8.67 17.375 8.8425 17.1725C9.2325 16.715 9.2775 16.175 9.285 15.935L8.0475 14.9975Z" fill="#FFA938"/>
<path d="M7.5075 16.3025C7.98385 16.3025 8.37 15.9163 8.37 15.44C8.37 14.9637 7.98385 14.5775 7.5075 14.5775C7.03115 14.5775 6.645 14.9637 6.645 15.44C6.645 15.9163 7.03115 16.3025 7.5075 16.3025Z" fill="#FFE58F"/>
<path d="M8.8725 17.315C9.34885 17.315 9.735 16.9288 9.735 16.4525C9.735 15.9762 9.34885 15.59 8.8725 15.59C8.39615 15.59 8.01 15.9762 8.01 16.4525C8.01 16.9288 8.39615 17.315 8.8725 17.315Z" fill="#FFE58F"/>
<path d="M14.9775 15.935C14.985 16.175 15.03 16.715 15.42 17.1725C15.5925 17.375 15.765 17.48 16.0125 17.63C16.5 17.93 17.1675 18.3425 17.745 18.095C17.865 18.0425 18.0675 17.93 18.2475 17.6375C17.58 17.81 17.535 17.03 17.475 15.9875C17.415 14.9375 16.215 14.9975 16.215 14.9975L14.9775 15.935Z" fill="#FFA938"/>
<path d="M16.7625 16.3025C17.2388 16.3025 17.625 15.9163 17.625 15.44C17.625 14.9637 17.2388 14.5775 16.7625 14.5775C16.2862 14.5775 15.9 14.9637 15.9 15.44C15.9 15.9163 16.2862 16.3025 16.7625 16.3025Z" fill="#FFE58F"/>
<path d="M15.3975 17.315C15.8738 17.315 16.26 16.9288 16.26 16.4525C16.26 15.9762 15.8738 15.59 15.3975 15.59C14.9212 15.59 14.535 15.9762 14.535 16.4525C14.535 16.9288 14.9212 17.315 15.3975 17.315Z" fill="#FFE58F"/>
<path d="M19.005 12.77C19.005 11.99 18.6 11.3075 17.9925 10.91C17.6625 7.9925 15.165 5.7275 12.1275 5.7275C9.09 5.7275 6.5775 7.9925 6.2625 10.925C5.655 11.3225 5.25 12.005 5.25 12.7775C5.25 13.955 6.18 14.9225 7.35 14.9825C8.4225 16.445 10.155 17.3975 12.12 17.3975C14.085 17.3975 15.8325 16.445 16.8975 14.975C18.0675 14.9075 18.9975 13.955 18.9975 12.77H19.005Z" fill="#FFD5B8"/>
<path d="M10.56 13.265C10.905 13.265 11.19 12.98 11.19 12.635C11.19 12.29 10.905 12.005 10.56 12.005C10.215 12.005 9.93 12.29 9.93 12.635C9.93 12.98 10.215 13.265 10.56 13.265Z" fill="black"/>
<path d="M13.695 13.265C14.04 13.265 14.325 12.98 14.325 12.635C14.325 12.29 14.04 12.005 13.695 12.005C13.35 12.005 13.065 12.29 13.065 12.635C13.065 12.98 13.35 13.265 13.695 13.265Z" fill="black"/>
<path d="M12.1275 14.6675C11.5875 14.6675 11.1375 14.2175 11.1375 13.6775C11.1375 13.58 11.2125 13.5125 11.3025 13.5125C11.3925 13.5125 11.4675 13.5875 11.4675 13.6775C11.4675 14.0375 11.76 14.3375 12.1275 14.3375C12.495 14.3375 12.7875 14.045 12.7875 13.6775C12.7875 13.58 12.8625 13.5125 12.9525 13.5125C13.0425 13.5125 13.1175 13.5875 13.1175 13.6775C13.1175 14.2175 12.6675 14.6675 12.1275 14.6675Z" fill="#FF4D4F"/>
<path d="M11.4825 5.0375C8.76 5.33 6.585 7.5425 6.3225 10.265C6.3 10.5425 6.2925 10.8125 6.3 11.0825C6.3 11.0825 8.1825 11.195 9.87 9.095V10.8125H14.2725V9.0875C14.325 9.1925 15.21 10.9625 17.9625 10.9625C18.015 7.49 15.0225 4.655 11.4825 5.0375Z" fill="#FFA938"/>
</svg>
