<svg width="24" height="24" viewBox="0 0 24 24" fill="none" xmlns="http://www.w3.org/2000/svg">
<path d="M23 12C23 18.0751 18.0751 23 12 23C5.92487 23 1 18.0751 1 12C1 5.92487 5.92487 1 12 1C18.0751 1 23 5.92487 23 12Z" fill="#EAEBEC"/>
<path fill-rule="evenodd" clip-rule="evenodd" d="M12 22C17.5228 22 22 17.5228 22 12C22 6.47715 17.5228 2 12 2C6.47715 2 2 6.47715 2 12C2 17.5228 6.47715 22 12 22ZM12 23C18.0751 23 23 18.0751 23 12C23 5.92487 18.0751 1 12 1C5.92487 1 1 5.92487 1 12C1 18.0751 5.92487 23 12 23Z" fill="white"/>
<path d="M14.0327 14.18C16.5677 14.18 18.6227 12.125 18.6227 9.59C18.6227 7.05501 16.5677 5 14.0327 5C11.4977 5 9.44268 7.05501 9.44268 9.59C9.44268 12.125 11.4977 14.18 14.0327 14.18Z" fill="#EAFF8F"/>
<path d="M10.2302 14.4425C12.703 14.4425 14.7077 12.4379 14.7077 9.965C14.7077 7.49215 12.703 5.4875 10.2302 5.4875C7.75732 5.4875 5.75268 7.49215 5.75268 9.965C5.75268 12.4379 7.75732 14.4425 10.2302 14.4425Z" fill="#EAFF8F"/>
<path d="M18.9977 13.4375C18.9977 12.6575 18.5927 11.975 17.9852 11.5775C17.6552 8.66 15.1577 6.395 12.1202 6.395C9.08268 6.3875 6.57018 8.66 6.25518 11.5925C5.64768 11.99 5.24268 12.6725 5.24268 13.445C5.24268 14.6225 6.17268 15.59 7.34268 15.65C8.41518 17.1125 10.1477 18.065 12.1127 18.065C14.0777 18.065 15.8252 17.1125 16.8902 15.6425C18.0602 15.575 18.9902 14.6225 18.9902 13.4375H18.9977Z" fill="#FFCCA8"/>
<path d="M16.8227 10.52H7.41018V15.2825H16.8227V10.52Z" fill="#F6CDAC"/>
<path d="M10.5527 13.9325C10.8977 13.9325 11.1827 13.6475 11.1827 13.3025C11.1827 12.9575 10.8977 12.6725 10.5527 12.6725C10.2077 12.6725 9.92268 12.9575 9.92268 13.3025C9.92268 13.6475 10.2077 13.9325 10.5527 13.9325Z" fill="black"/>
<path d="M13.6877 13.9325C14.0327 13.9325 14.3177 13.6475 14.3177 13.3025C14.3177 12.9575 14.0327 12.6725 13.6877 12.6725C13.3427 12.6725 13.0577 12.9575 13.0577 13.3025C13.0577 13.6475 13.3427 13.9325 13.6877 13.9325Z" fill="black"/>
<path d="M12.1202 15.335C11.5802 15.335 11.1302 14.885 11.1302 14.345C11.1302 14.2475 11.2052 14.18 11.2952 14.18C11.3852 14.18 11.4602 14.255 11.4602 14.345C11.4602 14.705 11.7527 15.005 12.1202 15.005C12.4877 15.005 12.7802 14.7125 12.7802 14.345C12.7802 14.2475 12.8552 14.18 12.9452 14.18C13.0352 14.18 13.1102 14.255 13.1102 14.345C13.1102 14.885 12.6602 15.335 12.1202 15.335Z" fill="#FF4D4F"/>
<path d="M12.8177 5.735H11.4152C8.47518 5.735 6.09018 8.405 6.09018 11.6975H7.41018C9.45018 11.6975 11.2277 11.78 12.1202 9.8825C13.0127 11.7725 14.7827 11.6975 16.8302 11.6975H18.1502C18.1502 8.405 15.7652 5.7275 12.8252 5.7275H12.8177V5.735Z" fill="#EAFF8F"/>
</svg>
