<svg width="24" height="24" viewBox="0 0 24 24" fill="none" xmlns="http://www.w3.org/2000/svg">
<path d="M23 12C23 18.0751 18.0751 23 12 23C5.92487 23 1 18.0751 1 12C1 5.92487 5.92487 1 12 1C18.0751 1 23 5.92487 23 12Z" fill="#EAEBEC"/>
<path fill-rule="evenodd" clip-rule="evenodd" d="M12 22C17.5228 22 22 17.5228 22 12C22 6.47715 17.5228 2 12 2C6.47715 2 2 6.47715 2 12C2 17.5228 6.47715 22 12 22ZM12 23C18.0751 23 23 18.0751 23 12C23 5.92487 18.0751 1 12 1C5.92487 1 1 5.92487 1 12C1 18.0751 5.92487 23 12 23Z" fill="white"/>
<path d="M18.9977 13.8105C18.9977 13.0305 18.5927 12.348 17.9852 11.9505C17.6552 9.03296 15.1577 6.76796 12.1202 6.76796C9.08268 6.76046 6.57018 9.03296 6.25518 11.9655C5.64768 12.363 5.24268 13.0455 5.24268 13.818C5.24268 14.9955 6.17268 15.963 7.34268 16.023C8.41518 17.4855 10.1477 18.438 12.1127 18.438C14.0777 18.438 15.8252 17.4855 16.8902 16.0155C18.0602 15.948 18.9902 14.9955 18.9902 13.8105H18.9977Z" fill="#FFC7A8"/>
<path d="M10.5527 14.3055C10.8977 14.3055 11.1827 14.0205 11.1827 13.6755C11.1827 13.3305 10.8977 13.0455 10.5527 13.0455C10.2077 13.0455 9.92268 13.3305 9.92268 13.6755C9.92268 14.0205 10.2077 14.3055 10.5527 14.3055Z" fill="black"/>
<path d="M13.6877 14.3055C14.0327 14.3055 14.3177 14.0205 14.3177 13.6755C14.3177 13.3305 14.0327 13.0455 13.6877 13.0455C13.3427 13.0455 13.0577 13.3305 13.0577 13.6755C13.0577 14.0205 13.3427 14.3055 13.6877 14.3055Z" fill="black"/>
<path d="M12.1202 15.708C11.5802 15.708 11.1302 15.258 11.1302 14.718C11.1302 14.6205 11.2052 14.553 11.2952 14.553C11.3852 14.553 11.4602 14.628 11.4602 14.718C11.4602 15.078 11.7527 15.378 12.1202 15.378C12.4877 15.378 12.7802 15.0855 12.7802 14.718C12.7802 14.6205 12.8552 14.553 12.9452 14.553C13.0352 14.553 13.1102 14.628 13.1102 14.718C13.1102 15.258 12.6602 15.708 12.1202 15.708Z" fill="#FF4D4F"/>
<path d="M17.9552 11.763C18.0077 8.41046 15.0152 5.66546 11.4752 6.03296C8.75268 6.31796 6.57768 8.45546 6.31518 11.088C6.29268 11.358 6.28518 11.6205 6.29268 11.883C6.29268 11.883 8.18268 11.9955 9.87768 9.94046C9.87768 9.94046 11.0027 11.4555 12.1202 11.4555C13.2377 11.4555 14.2577 9.94046 14.2577 9.94046C14.2577 9.94046 15.1202 11.763 17.9477 11.763H17.9552Z" fill="#A055FF"/>
<path d="M11.8727 10.893C11.8727 10.893 12.6227 10.8555 12.6527 11.508C12.6902 12.153 12.7202 12.6405 13.1327 12.5355C13.0202 12.7155 12.8927 12.7905 12.8177 12.8205C12.4577 12.978 12.0452 12.7155 11.7377 12.528C11.5802 12.438 11.4752 12.3705 11.3702 12.243C11.1302 11.958 11.1002 11.6205 11.0927 11.4705L11.8652 10.8855L11.8727 10.893Z" fill="#FF94ED"/>
<path d="M17.6702 9.89546H6.64518C6.37594 9.89546 6.15768 10.1137 6.15768 10.383V11.5755C6.15768 11.8447 6.37594 12.063 6.64518 12.063H17.6702C17.9394 12.063 18.1577 11.8447 18.1577 11.5755V10.383C18.1577 10.1137 17.9394 9.89546 17.6702 9.89546Z" fill="#D3ADF7"/>
</svg>
