<svg width="24" height="24" viewBox="0 0 24 24" fill="none" xmlns="http://www.w3.org/2000/svg">
<path d="M23 12C23 18.0751 18.0751 23 12 23C5.92487 23 1 18.0751 1 12C1 5.92487 5.92487 1 12 1C18.0751 1 23 5.92487 23 12Z" fill="#EAEBEC"/>
<path fill-rule="evenodd" clip-rule="evenodd" d="M12 22C17.5228 22 22 17.5228 22 12C22 6.47715 17.5228 2 12 2C6.47715 2 2 6.47715 2 12C2 17.5228 6.47715 22 12 22ZM12 23C18.0751 23 23 18.0751 23 12C23 5.92487 18.0751 1 12 1C5.92487 1 1 5.92487 1 12C1 18.0751 5.92487 23 12 23Z" fill="white"/>
<path d="M10.98 6H13.275C15.915 6 18.0525 8.145 18.0525 10.7775V17.1975C18.0525 17.64 17.6925 18 17.25 18H6.9975C6.555 18 6.195 17.64 6.195 17.1975V10.7775C6.195 8.145 8.34 6 10.98 6Z" fill="#D3ADF7"/>
<path d="M18.9975 13.305C18.9975 12.525 18.5925 11.8425 17.985 11.445C17.655 8.5275 15.1575 6.2625 12.12 6.2625C9.0825 6.2625 6.585 8.5425 6.2625 11.4525C5.655 11.85 5.25 12.5325 5.25 13.3125C5.25 14.49 6.18 15.45 7.35 15.5175C8.4225 16.98 10.155 17.9325 12.12 17.9325C14.085 17.9325 15.8325 16.98 16.8975 15.51C18.0675 15.4425 18.9975 14.49 18.9975 13.305Z" fill="#FFD5B8"/>
<path d="M10.56 13.8C10.905 13.8 11.19 13.515 11.19 13.17C11.19 12.825 10.905 12.54 10.56 12.54C10.215 12.54 9.93 12.825 9.93 13.17C9.93 13.515 10.215 13.8 10.56 13.8Z" fill="black"/>
<path d="M13.695 13.8C14.04 13.8 14.325 13.515 14.325 13.17C14.325 12.825 14.04 12.54 13.695 12.54C13.35 12.54 13.065 12.825 13.065 13.17C13.065 13.515 13.35 13.8 13.695 13.8Z" fill="black"/>
<path d="M12.12 15.2025C11.58 15.2025 11.13 14.7525 11.13 14.2125C11.13 14.115 11.205 14.0475 11.295 14.0475C11.385 14.0475 11.46 14.1225 11.46 14.2125C11.46 14.5725 11.7525 14.8725 12.12 14.8725C12.4875 14.8725 12.78 14.58 12.78 14.2125C12.78 14.115 12.855 14.0475 12.945 14.0475C13.035 14.0475 13.11 14.1225 13.11 14.2125C13.11 14.7525 12.66 15.2025 12.12 15.2025Z" fill="#EB5B56"/>
<path d="M11.4075 6.2625C8.4675 6.2625 6.0825 8.6475 6.0825 11.5875H7.4025C9.4425 11.5875 11.22 11.6625 12.1125 9.9675C13.005 11.655 14.775 11.5875 16.8225 11.5875H18.1425C18.1425 8.6475 15.7575 6.2625 12.8175 6.2625H11.4075Z" fill="#D3ADF7"/>
<path d="M10.05 4.5C11.1975 4.5 12.12 5.43 12.12 6.5775C10.9725 6.5775 10.0425 5.6475 10.0425 4.5H10.05Z" fill="#FF94ED"/>
<path d="M12.1275 6.5775C12.1275 5.43 13.0575 4.5 14.205 4.5C14.205 5.6475 13.275 6.5775 12.1275 6.5775Z" fill="#FF94ED"/>
<path d="M6.18 11.445C7.05 4.455 17.385 4.59 18.0675 11.6025C17.7 10.245 16.905 9.0675 15.855 8.235C12.5775 5.4975 7.275 7.3425 6.18 11.445Z" fill="#FF94ED"/>
</svg>
