<svg width="24" height="24" viewBox="0 0 24 24" fill="none" xmlns="http://www.w3.org/2000/svg">
<path d="M23 12C23 18.0751 18.0751 23 12 23C5.92487 23 1 18.0751 1 12C1 5.92487 5.92487 1 12 1C18.0751 1 23 5.92487 23 12Z" fill="#EAEBEC"/>
<path fill-rule="evenodd" clip-rule="evenodd" d="M12 22C17.5228 22 22 17.5228 22 12C22 6.47715 17.5228 2 12 2C6.47715 2 2 6.47715 2 12C2 17.5228 6.47715 22 12 22ZM12 23C18.0751 23 23 18.0751 23 12C23 5.92487 18.0751 1 12 1C5.92487 1 1 5.92487 1 12C1 18.0751 5.92487 23 12 23Z" fill="white"/>
<path d="M18.9975 14.055C18.9975 13.275 18.5925 12.5925 17.985 12.195C17.655 9.2775 15.1575 7.0125 12.12 7.0125C9.0825 7.0125 6.585 9.2925 6.2625 12.2025C5.655 12.6 5.25 13.2825 5.25 14.0625C5.25 15.24 6.18 16.2 7.35 16.2675C8.4225 17.73 10.155 18.6825 12.12 18.6825C14.085 18.6825 15.8325 17.73 16.8975 16.26C18.0675 16.1925 18.9975 15.24 18.9975 14.055Z" fill="#FFCCA8"/>
<path d="M10.56 14.55C10.905 14.55 11.19 14.265 11.19 13.92C11.19 13.575 10.905 13.29 10.56 13.29C10.215 13.29 9.93 13.575 9.93 13.92C9.93 14.265 10.215 14.55 10.56 14.55Z" fill="black"/>
<path d="M13.695 14.55C14.04 14.55 14.325 14.265 14.325 13.92C14.325 13.575 14.04 13.29 13.695 13.29C13.35 13.29 13.065 13.575 13.065 13.92C13.065 14.265 13.35 14.55 13.695 14.55Z" fill="black"/>
<path d="M12.12 15.9525C11.58 15.9525 11.13 15.5025 11.13 14.9625C11.13 14.865 11.205 14.7975 11.295 14.7975C11.385 14.7975 11.46 14.8725 11.46 14.9625C11.46 15.3225 11.7525 15.6225 12.12 15.6225C12.4875 15.6225 12.78 15.33 12.78 14.9625C12.78 14.865 12.855 14.7975 12.945 14.7975C13.035 14.7975 13.11 14.8725 13.11 14.9625C13.11 15.5025 12.66 15.9525 12.12 15.9525Z" fill="#FF4D4F"/>
<path d="M18.9 8.6025C18.9 7.1625 17.7375 6 16.2975 6C15.3825 6 14.5875 6.4725 14.1225 7.1775C13.7025 7.0725 13.2675 7.0125 12.8175 7.0125H11.4075C10.9425 7.0125 10.5 7.08 10.0725 7.185C9.6075 6.4725 8.805 6 7.89 6C6.45 6 5.2875 7.1625 5.2875 8.6025C5.2875 9.4575 5.7075 10.215 6.345 10.6875C6.1725 11.205 6.0825 11.76 6.0825 12.3375H7.4025C9.4425 12.3375 11.22 12.4125 12.1125 10.7175C13.005 12.405 14.775 12.3375 16.8225 12.3375H18.1425C18.1425 11.7525 18.045 11.19 17.8725 10.665C18.495 10.1925 18.9 9.45 18.9 8.6025Z" fill="#00AEFF"/>
<path d="M7.57878 8.77564C7.47121 8.96358 7.40988 9.18111 7.40988 9.41235C7.64141 9.41235 7.8579 9.35137 8.04466 9.24485C8.23493 9.35611 8.45619 9.41971 8.69168 9.41971C8.69168 9.18412 8.62854 8.96411 8.51854 8.77514C8.62917 8.58526 8.69238 8.36463 8.69238 8.12985C8.45528 8.12985 8.23396 8.1938 8.04418 8.30512C7.85664 8.19816 7.63973 8.13721 7.40918 8.13721C7.40918 8.37025 7.47096 8.58805 7.57878 8.77564Z" fill="white"/>
<path d="M15.7321 8.77564C15.6245 8.96358 15.5632 9.18111 15.5632 9.41235C15.7947 9.41235 16.0112 9.35137 16.198 9.24485C16.3882 9.35611 16.6095 9.41971 16.845 9.41971C16.845 9.18412 16.7819 8.96411 16.6719 8.77514C16.7825 8.58526 16.8457 8.36463 16.8457 8.12985C16.6086 8.12985 16.3873 8.1938 16.1975 8.30512C16.01 8.19816 15.793 8.13721 15.5625 8.13721C15.5625 8.37025 15.6243 8.58805 15.7321 8.77564Z" fill="white"/>
</svg>
