<svg width="24" height="24" viewBox="0 0 24 24" fill="none" xmlns="http://www.w3.org/2000/svg">
<path d="M23 12C23 18.0751 18.0751 23 12 23C5.92487 23 1 18.0751 1 12C1 5.92487 5.92487 1 12 1C18.0751 1 23 5.92487 23 12Z" fill="#EAEBEC"/>
<path fill-rule="evenodd" clip-rule="evenodd" d="M12 22C17.5228 22 22 17.5228 22 12C22 6.47715 17.5228 2 12 2C6.47715 2 2 6.47715 2 12C2 17.5228 6.47715 22 12 22ZM12 23C18.0751 23 23 18.0751 23 12C23 5.92487 18.0751 1 12 1C5.92487 1 1 5.92487 1 12C1 18.0751 5.92487 23 12 23Z" fill="white"/>
<path d="M18.9977 13.725C18.9977 12.945 18.5927 12.2625 17.9852 11.865C17.6552 8.9475 15.1577 6.6825 12.1202 6.6825C9.08268 6.675 6.57018 8.9475 6.25518 11.88C5.64768 12.2775 5.24268 12.96 5.24268 13.7325C5.24268 14.91 6.17268 15.8775 7.34268 15.9375C8.41518 17.4 10.1477 18.3525 12.1127 18.3525C14.0777 18.3525 15.8252 17.4 16.8902 15.93C18.0602 15.8625 18.9902 14.91 18.9902 13.725H18.9977Z" fill="#FFCCA8"/>
<path d="M6.32268 11.7975C6.32268 8.595 8.91768 6 12.1202 6C15.3227 6 17.9177 8.595 17.9177 11.7975H6.32268Z" fill="#AEB0B6"/>
<path d="M16.8227 10.8075H7.41018V15.57H16.8227V10.8075Z" fill="#FFCCA8"/>
<path d="M10.5527 14.22C10.8977 14.22 11.1827 13.935 11.1827 13.59C11.1827 13.245 10.8977 12.96 10.5527 12.96C10.2077 12.96 9.92268 13.245 9.92268 13.59C9.92268 13.935 10.2077 14.22 10.5527 14.22Z" fill="black"/>
<path d="M13.6877 14.22C14.0327 14.22 14.3177 13.935 14.3177 13.59C14.3177 13.245 14.0327 12.96 13.6877 12.96C13.3427 12.96 13.0577 13.245 13.0577 13.59C13.0577 13.935 13.3427 14.22 13.6877 14.22Z" fill="black"/>
<path d="M12.1202 15.6225C11.5802 15.6225 11.1302 15.1725 11.1302 14.6325C11.1302 14.535 11.2052 14.4675 11.2952 14.4675C11.3852 14.4675 11.4602 14.5425 11.4602 14.6325C11.4602 14.9925 11.7527 15.2925 12.1202 15.2925C12.4877 15.2925 12.7802 15 12.7802 14.6325C12.7802 14.535 12.8552 14.4675 12.9452 14.4675C13.0352 14.4675 13.1102 14.5425 13.1102 14.6325C13.1102 15.1725 12.6602 15.6225 12.1202 15.6225Z" fill="#FF4D4F"/>
</svg>
