<svg width="24" height="24" viewBox="0 0 24 24" fill="none" xmlns="http://www.w3.org/2000/svg">
<path d="M23 12C23 18.0751 18.0751 23 12 23C5.92487 23 1 18.0751 1 12C1 5.92487 5.92487 1 12 1C18.0751 1 23 5.92487 23 12Z" fill="#EAEBEC"/>
<path fill-rule="evenodd" clip-rule="evenodd" d="M12 22C17.5228 22 22 17.5228 22 12C22 6.47715 17.5228 2 12 2C6.47715 2 2 6.47715 2 12C2 17.5228 6.47715 22 12 22ZM12 23C18.0751 23 23 18.0751 23 12C23 5.92487 18.0751 1 12 1C5.92487 1 1 5.92487 1 12C1 18.0751 5.92487 23 12 23Z" fill="white"/>
<path fill-rule="evenodd" clip-rule="evenodd" d="M12.15 11.495C12.405 11.495 12.6525 11.465 12.885 11.4125C13.11 11.78 13.4025 12.095 13.755 12.35C13.59 12.74 13.5 13.1675 13.5 13.61C13.5 15.4025 14.955 16.8575 16.7475 16.8575C18.54 16.8575 19.995 15.4025 19.995 13.61C19.995 12.53 19.4625 11.57 18.6525 10.9775C18.8175 10.5875 18.9075 10.16 18.9075 9.7175C18.9075 7.925 17.4525 6.47 15.66 6.47C15.405 6.47 15.1575 6.5 14.925 6.5525C14.355 5.6225 13.3275 5 12.15 5C10.9725 5 9.93 5.63 9.36 6.575C9.09 6.5075 8.8125 6.47 8.5275 6.47C6.735 6.47 5.28 7.925 5.28 9.7175C5.28 10.235 5.4 10.7225 5.6175 11.1575C4.935 11.75 4.5 12.6275 4.5 13.61C4.5 15.4025 5.955 16.8575 7.7475 16.8575C9.54 16.8575 10.995 15.4025 10.995 13.61C10.995 13.0925 10.875 12.605 10.6575 12.17C10.9125 11.945 11.1375 11.6825 11.31 11.39C11.58 11.4575 11.8575 11.495 12.1425 11.495H12.15Z" fill="#00BF40"/>
<path d="M19.0275 14.375C19.0275 13.595 18.6225 12.9125 18.015 12.515C17.685 9.5975 15.1875 7.3325 12.15 7.3325C9.1125 7.3325 6.6 9.5975 6.285 12.53C5.6775 12.9275 5.2725 13.61 5.2725 14.3825C5.2725 15.56 6.2025 16.5275 7.3725 16.5875C8.445 18.05 10.1775 19.0025 12.1425 19.0025C14.1075 19.0025 15.855 18.05 16.92 16.58C18.09 16.5125 19.02 15.56 19.02 14.375H19.0275Z" fill="#FFCCA8"/>
<path d="M10.5825 14.87C10.9275 14.87 11.2125 14.585 11.2125 14.24C11.2125 13.895 10.9275 13.61 10.5825 13.61C10.2375 13.61 9.9525 13.895 9.9525 14.24C9.9525 14.585 10.2375 14.87 10.5825 14.87Z" fill="black"/>
<path d="M13.7175 14.87C14.0625 14.87 14.3475 14.585 14.3475 14.24C14.3475 13.895 14.0625 13.61 13.7175 13.61C13.3725 13.61 13.0875 13.895 13.0875 14.24C13.0875 14.585 13.3725 14.87 13.7175 14.87Z" fill="black"/>
<path d="M12.1425 16.2725C11.6025 16.2725 11.1525 15.8225 11.1525 15.2825C11.1525 15.185 11.2275 15.1175 11.3175 15.1175C11.4075 15.1175 11.4825 15.1925 11.4825 15.2825C11.4825 15.6425 11.775 15.9425 12.1425 15.9425C12.51 15.9425 12.8025 15.65 12.8025 15.2825C12.8025 15.185 12.8775 15.1175 12.9675 15.1175C13.0575 15.1175 13.1325 15.1925 13.1325 15.2825C13.1325 15.8225 12.6825 16.2725 12.1425 16.2725Z" fill="#FF4D4F"/>
<path d="M11.505 6.6425C8.7825 6.935 6.6 9.1475 6.345 11.87C6.3225 12.1475 6.2775 12.26 6.285 12.5225C6.285 12.5225 8.205 12.8 9.8925 10.6925V12.41H14.295V10.685C14.3475 10.79 15.2625 12.5075 18.0075 12.5075C18.06 9.035 15.0375 6.2525 11.505 6.635V6.6425Z" fill="#00BF40"/>
<path d="M17.7105 10.4693L15.5168 12.3469L16.0045 12.9167L18.1982 11.0391L17.7105 10.4693Z" fill="#FAAD14"/>
<path d="M17.0919 9.74957L14.8982 11.6272L15.3859 12.1969L17.5796 10.3194L17.0919 9.74957Z" fill="#FAAD14"/>
</svg>
