<svg width="24" height="24" viewBox="0 0 24 24" fill="none" xmlns="http://www.w3.org/2000/svg">
<path d="M23 12C23 18.0751 18.0751 23 12 23C5.92487 23 1 18.0751 1 12C1 5.92487 5.92487 1 12 1C18.0751 1 23 5.92487 23 12Z" fill="#EAEBEC"/>
<path fill-rule="evenodd" clip-rule="evenodd" d="M12 22C17.5228 22 22 17.5228 22 12C22 6.47715 17.5228 2 12 2C6.47715 2 2 6.47715 2 12C2 17.5228 6.47715 22 12 22ZM12 23C18.0751 23 23 18.0751 23 12C23 5.92487 18.0751 1 12 1C5.92487 1 1 5.92487 1 12C1 18.0751 5.92487 23 12 23Z" fill="white"/>
<path d="M18.9975 13.74C18.9975 12.96 18.5925 12.2775 17.985 11.88C17.655 8.9625 15.1575 6.6975 12.12 6.6975C9.0825 6.6975 6.585 8.9775 6.2625 11.895C5.655 12.2925 5.25 12.975 5.25 13.755C5.25 14.9325 6.18 15.8925 7.35 15.96C8.4225 17.4225 10.155 18.375 12.12 18.375C14.085 18.375 15.8325 17.4225 16.8975 15.9525C18.0675 15.885 18.9975 14.9325 18.9975 13.7475V13.74Z" fill="#FFC998"/>
<path d="M10.56 14.235C10.905 14.235 11.19 13.95 11.19 13.605C11.19 13.26 10.905 12.975 10.56 12.975C10.215 12.975 9.93 13.26 9.93 13.605C9.93 13.95 10.215 14.235 10.56 14.235Z" fill="black"/>
<path d="M13.695 14.235C14.04 14.235 14.325 13.95 14.325 13.605C14.325 13.26 14.04 12.975 13.695 12.975C13.35 12.975 13.065 13.26 13.065 13.605C13.065 13.95 13.35 14.235 13.695 14.235Z" fill="black"/>
<path d="M12.12 15.6375C11.58 15.6375 11.13 15.1875 11.13 14.6475C11.13 14.55 11.205 14.4825 11.295 14.4825C11.385 14.4825 11.46 14.5575 11.46 14.6475C11.46 15.0075 11.7525 15.3075 12.12 15.3075C12.4875 15.3075 12.78 15.015 12.78 14.6475C12.78 14.55 12.855 14.4825 12.945 14.4825C13.035 14.4825 13.11 14.5575 13.11 14.6475C13.11 15.1875 12.66 15.6375 12.12 15.6375Z" fill="#EB5B56"/>
<path d="M11.475 6.1875C8.7525 6.48 6.57 8.6925 6.315 11.415C6.2925 11.6925 6.285 11.9625 6.2925 12.2325C6.2925 12.2325 8.175 12.345 9.8625 10.245V11.9625H14.265V10.2375C14.3175 10.3425 15.2025 12.1125 17.955 12.1125C18 8.64 15.015 5.805 11.475 6.1875Z" fill="#70D2FF"/>
<path d="M17.9325 10.3425H6.2925C6.20552 10.3425 6.135 10.413 6.135 10.5V12.0675C6.135 12.1545 6.20552 12.225 6.2925 12.225H17.9325C18.0195 12.225 18.09 12.1545 18.09 12.0675V10.5C18.09 10.413 18.0195 10.3425 17.9325 10.3425Z" fill="#DFF4F5"/>
<path d="M11.3796 9.2956L10.4632 9.19021C10.4185 9.18507 10.3844 9.2189 10.3801 9.25615L10.3098 9.86712C10.2079 10.7538 10.8484 11.5522 11.7276 11.6533L12.644 11.7587C12.6887 11.7638 12.7228 11.73 12.7271 11.6927L12.7556 11.4453C13.082 12.0536 13.6908 12.499 14.4299 12.584L15.6817 12.728C15.7338 12.734 15.7837 12.6944 15.7897 12.6422L15.8857 11.8077C15.9056 11.6342 15.9045 11.4628 15.8844 11.2963C16.1169 11.4886 16.4054 11.6179 16.7256 11.6547L17.6421 11.7601C17.6868 11.7653 17.7209 11.7315 17.7252 11.6942L17.7954 11.0832C17.8974 10.1966 17.2569 9.39817 16.3777 9.29706L15.4612 9.19167C15.4165 9.18653 15.3824 9.22036 15.3781 9.25761L15.3079 9.86859C15.3007 9.93076 15.2972 9.9925 15.2972 10.0536C14.9575 9.69624 14.4955 9.45099 13.9668 9.39019L12.715 9.24625C12.6629 9.24025 12.613 9.27981 12.607 9.33197L12.5308 9.99518C12.2755 9.61836 11.8638 9.35127 11.3796 9.2956Z" fill="#70D2FF"/>
</svg>
