<svg width="24" height="24" viewBox="0 0 24 24" fill="none" xmlns="http://www.w3.org/2000/svg">
<path d="M23 12C23 18.0751 18.0751 23 12 23C5.92487 23 1 18.0751 1 12C1 5.92487 5.92487 1 12 1C18.0751 1 23 5.92487 23 12Z" fill="#EAEBEC"/>
<path fill-rule="evenodd" clip-rule="evenodd" d="M12 22C17.5228 22 22 17.5228 22 12C22 6.47715 17.5228 2 12 2C6.47715 2 2 6.47715 2 12C2 17.5228 6.47715 22 12 22ZM12 23C18.0751 23 23 18.0751 23 12C23 5.92487 18.0751 1 12 1C5.92487 1 1 5.92487 1 12C1 18.0751 5.92487 23 12 23Z" fill="white"/>
<path d="M18.9975 13.49C18.9975 12.71 18.5925 12.0275 17.985 11.63C17.655 8.7125 15.1575 6.4475 12.12 6.4475C9.0825 6.4475 6.585 8.7275 6.2625 11.645C5.655 12.0425 5.25 12.725 5.25 13.505C5.25 14.6825 6.18 15.6425 7.35 15.71C8.4225 17.1725 10.155 18.125 12.12 18.125C14.085 18.125 15.8325 17.1725 16.8975 15.7025C18.0675 15.635 18.9975 14.6825 18.9975 13.4975V13.49Z" fill="#FFAE82"/>
<path d="M10.56 13.985C10.905 13.985 11.19 13.7 11.19 13.355C11.19 13.01 10.905 12.725 10.56 12.725C10.215 12.725 9.93 13.01 9.93 13.355C9.93 13.7 10.215 13.985 10.56 13.985Z" fill="black"/>
<path d="M13.695 13.985C14.04 13.985 14.325 13.7 14.325 13.355C14.325 13.01 14.04 12.725 13.695 12.725C13.35 12.725 13.065 13.01 13.065 13.355C13.065 13.7 13.35 13.985 13.695 13.985Z" fill="black"/>
<path d="M12.12 15.3875C11.58 15.3875 11.13 14.9375 11.13 14.3975C11.13 14.3 11.205 14.2325 11.295 14.2325C11.385 14.2325 11.46 14.3075 11.46 14.3975C11.46 14.7575 11.7525 15.0575 12.12 15.0575C12.4875 15.0575 12.78 14.765 12.78 14.3975C12.78 14.3 12.855 14.2325 12.945 14.2325C13.035 14.2325 13.11 14.3075 13.11 14.3975C13.11 14.9375 12.66 15.3875 12.12 15.3875Z" fill="#FF4D4F"/>
<path d="M15.9675 8.72H18.165C18.9675 8.72 19.6275 9.3725 19.6275 10.1825C19.6275 10.9925 18.975 11.645 18.165 11.645H15.9675V8.72Z" fill="#1A75FF"/>
<path d="M13.545 5.9375C13.425 5.3975 12.945 5 12.36 5C11.8275 5 11.385 5.345 11.22 5.8175C8.4075 6.2375 6.24 8.66 6.24 11.585V11.645H17.9325V11.585C17.9325 8.87 16.0725 6.59 13.5525 5.9375H13.545Z" fill="#3385FF"/>
<path d="M12.3675 8.81C13.23 8.81 13.935 9.515 13.935 10.3775V10.9475H10.8V10.3775C10.8 9.515 11.505 8.81 12.3675 8.81Z" fill="#FFE58F"/>
<path d="M13.845 10.85H10.89C10.8375 10.85 10.8 10.8875 10.8 10.94V11.555C10.8 11.6075 10.8375 11.645 10.89 11.645H13.845C13.8975 11.645 13.935 11.6075 13.935 11.555V10.94C13.935 10.8875 13.8975 10.85 13.845 10.85Z" fill="#1A75FF"/>
<path d="M16.845 11.645H17.4525V12.695C17.4525 13.0325 17.1825 13.3025 16.845 13.3025V11.6375V11.645Z" fill="#FFE58F"/>
<path d="M7.2375 13.31C6.9 13.31 6.63 13.04 6.63 12.7025V11.6525H7.2375V13.3175V13.31Z" fill="#FFE58F"/>
</svg>
