<svg width="24" height="24" viewBox="0 0 24 24" fill="none" xmlns="http://www.w3.org/2000/svg">
<path d="M23 12C23 18.0751 18.0751 23 12 23C5.92487 23 1 18.0751 1 12C1 5.92487 5.92487 1 12 1C18.0751 1 23 5.92487 23 12Z" fill="#EAEBEC"/>
<path fill-rule="evenodd" clip-rule="evenodd" d="M12 22C17.5228 22 22 17.5228 22 12C22 6.47715 17.5228 2 12 2C6.47715 2 2 6.47715 2 12C2 17.5228 6.47715 22 12 22ZM12 23C18.0751 23 23 18.0751 23 12C23 5.92487 18.0751 1 12 1C5.92487 1 1 5.92487 1 12C1 18.0751 5.92487 23 12 23Z" fill="white"/>
<path d="M7.47768 16.1075C7.47768 16.1075 6.27768 16.0475 6.21768 17.0975C6.15768 18.14 6.11268 18.92 5.44518 18.7475C5.62518 19.04 5.82768 19.1525 5.94768 19.205C6.52518 19.4525 7.19268 19.04 7.68018 18.74C7.92768 18.59 8.10018 18.485 8.27268 18.2825C8.66268 17.825 8.70768 17.285 8.71518 17.045L7.47768 16.1075Z" fill="#13C2C2"/>
<path d="M18.9977 13.88C18.9977 13.1 18.5927 12.4175 17.9852 12.02C17.6552 9.1025 15.1577 6.8375 12.1202 6.8375C9.08268 6.83 6.57018 9.1025 6.25518 12.035C5.64768 12.4325 5.24268 13.115 5.24268 13.8875C5.24268 15.065 6.17268 16.0325 7.34268 16.0925C8.41518 17.555 10.1477 18.5075 12.1127 18.5075C14.0777 18.5075 15.8252 17.555 16.8902 16.085C18.0602 16.0175 18.9902 15.065 18.9902 13.88H18.9977Z" fill="#FFCCA8"/>
<path d="M10.5602 14.375C10.9052 14.375 11.1902 14.09 11.1902 13.745C11.1902 13.4 10.9052 13.115 10.5602 13.115C10.2152 13.115 9.93018 13.4 9.93018 13.745C9.93018 14.09 10.2152 14.375 10.5602 14.375Z" fill="black"/>
<path d="M13.6952 14.375C14.0402 14.375 14.3252 14.09 14.3252 13.745C14.3252 13.4 14.0402 13.115 13.6952 13.115C13.3502 13.115 13.0652 13.4 13.0652 13.745C13.0652 14.09 13.3502 14.375 13.6952 14.375Z" fill="black"/>
<path d="M12.1202 15.7775C11.5802 15.7775 11.1302 15.3275 11.1302 14.7875C11.1302 14.69 11.2052 14.6225 11.2952 14.6225C11.3852 14.6225 11.4602 14.6975 11.4602 14.7875C11.4602 15.1475 11.7527 15.4475 12.1202 15.4475C12.4877 15.4475 12.7802 15.155 12.7802 14.7875C12.7802 14.69 12.8552 14.6225 12.9452 14.6225C13.0352 14.6225 13.1102 14.6975 13.1102 14.7875C13.1102 15.3275 12.6602 15.7775 12.1202 15.7775Z" fill="#EB5B56"/>
<path d="M18.0227 12.0275C18.0227 9.92 16.7927 8.1125 15.0152 7.2575C15.0152 7.235 15.0227 7.2125 15.0227 7.19C15.0227 5.9825 13.6877 5 12.0377 5C10.4777 5 9.21018 5.885 9.07518 7.0025C7.39518 7.6175 6.20268 9.23 6.20268 11.12V12.035H11.5052L11.9927 9.38C11.9927 9.38 12.0227 9.38 12.0377 9.38C12.0827 9.38 12.1202 9.3725 12.1652 9.3725L12.5777 12.0275H18.0227Z" fill="#13C2C2"/>
<path d="M15.0227 7.3775C14.9852 7.3775 14.9477 7.3775 14.9102 7.3625C13.9877 7.0625 13.0352 6.9125 12.0677 6.9125C11.1002 6.935 10.1252 7.0625 9.19518 7.3625C9.00018 7.4225 8.79018 7.3175 8.72268 7.1225C8.66268 6.9275 8.76768 6.7175 8.96268 6.65C9.96768 6.3275 11.0027 6.14 12.0677 6.1625C13.1102 6.1625 14.1452 6.3275 15.1352 6.65C15.3302 6.71 15.4427 6.9275 15.3752 7.1225C15.3227 7.28 15.1802 7.385 15.0152 7.385L15.0227 7.3775Z" fill="#FFA39E"/>
</svg>
