<!DOCTYPE svg PUBLIC "-//W3C//DTD SVG 1.1//EN" "http://www.w3.org/Graphics/SVG/1.1/DTD/svg11.dtd">
<!-- Uploaded to: SVG Repo, www.svgrepo.com, Transformed by: SVG Repo Mixer Tools -->
<svg width="256px" height="256px" viewBox="0 0 1024 1024" class="icon" version="1.1" xmlns="http://www.w3.org/2000/svg" fill="#000000">
<g id="SVGRepo_bgCarrier" stroke-width="0"/>
<g id="SVGRepo_tracerCarrier" stroke-linecap="round" stroke-linejoin="round"/>
<g id="SVGRepo_iconCarrier">
<path d="M766.96 862.96C763.36 751.36 752 437.12 752 336V80H272v256c0 101.12-11.36 415.36-14.96 526.96a32 32 0 0 0 22.96 31.6V928a16 16 0 0 0 16 16h128a16 16 0 0 0 16-16v-34.24a32 32 0 0 0 19.92-25.36A5102.4 5102.4 0 0 0 512 336a5102.4 5102.4 0 0 0 52.08 532.4 32 32 0 0 0 19.92 25.36V928a16 16 0 0 0 16 16h128a16 16 0 0 0 16-16v-33.44a32 32 0 0 0 22.96-31.6z" fill="#3DBADA"/>
<path d="M280 888h160v40a16 16 0 0 1-16 16H296a16 16 0 0 1-16-16v-40zM584 888h160v40a16 16 0 0 1-16 16H600a16 16 0 0 1-16-16v-40z" fill="#2E88A0"/>
</g>
</svg>