<!DOCTYPE svg PUBLIC "-//W3C//DTD SVG 1.1//EN" "http://www.w3.org/Graphics/SVG/1.1/DTD/svg11.dtd">
<!-- Uploaded to: SVG Repo, www.svgrepo.com, Transformed by: SVG Repo Mixer Tools -->
<svg width="256px" height="256px" viewBox="0 0 1024 1024" class="icon" version="1.1" xmlns="http://www.w3.org/2000/svg" fill="#000000">
<g id="SVGRepo_bgCarrier" stroke-width="0"/>
<g id="SVGRepo_tracerCarrier" stroke-linecap="round" stroke-linejoin="round"/>
<g id="SVGRepo_iconCarrier">
<path d="M809.92 440c-39.2-56-109.76-136-78.4-336 0 0-62.72-24-101.92-24 0 0-39.2 48-117.6 48s-117.6-48-117.6-48c-39.2 0-101.92 24-101.92 24 31.36 200-39.2 280-78.4 336-23.52 168 33.28 256 1.92 504h592c-31.36-248 25.44-336 1.92-504z" fill="#CC4F60"/>
<path d="M632 128a170.24 170.24 0 0 0-5.84-44.24A159.52 159.52 0 0 1 512 128a159.52 159.52 0 0 1-114.16-44.24A170.24 170.24 0 0 0 392 128c0 79.52 53.76 144 120 144s120-64.48 120-144z" fill="#FC9B64"/>
<path d="M460 460v232h-48v-176l-40 32-24-32 64-56h48zM660 604h-32v-144h-48l-96 144v40h96v48h48v-48h32z m-128 0l48-72v72z" fill="#FFFFFF"/>
</g>
</svg>