<!DOCTYPE svg PUBLIC "-//W3C//DTD SVG 1.1//EN" "http://www.w3.org/Graphics/SVG/1.1/DTD/svg11.dtd">
<!-- Uploaded to: SVG Repo, www.svgrepo.com, Transformed by: SVG Repo Mixer Tools -->
<svg width="256px" height="256px" viewBox="0 0 1024 1024" class="icon" version="1.1" xmlns="http://www.w3.org/2000/svg" fill="#000000">
<g id="SVGRepo_bgCarrier" stroke-width="0"/>
<g id="SVGRepo_tracerCarrier" stroke-linecap="round" stroke-linejoin="round"/>
<g id="SVGRepo_iconCarrier">
<path d="M768 216c-24-88-56-128-144-136 0 0-32 48-112 48s-112-48-112-48c-88 8-120 48-144 136S144 592 144 592h72.64a64 64 0 0 0 61.28-45.6C295.12 488.88 325.36 384 352 272c0 0 16 56 16 96 0 0-72 296-48 576h384c24-280-48-576-48-576 0-40 16-96 16-96 26.64 112 56.88 216.88 74.08 274.4a64 64 0 0 0 61.28 45.6H880S792 304 768 216z" fill="#FFD53E"/>
<path d="M631.6 80.88L624 80s-32 48-112 48-112-48-112-48l-7.6 0.88C400 184.96 512 280 512 280s112-95.04 119.6-199.12z" fill="#C0764A"/>
<path d="M316.24 763.2A1505.04 1505.04 0 0 0 320 944h384c13.76-160-4-325.92-21.68-438.16C601.04 723.84 451.04 644.32 316.24 763.2z" fill="#FF9200"/>
<path d="M316.48 888c0.8 18.64 1.92 37.36 3.52 56h384c1.6-18.64 2.72-37.36 3.52-56z" fill="#FF9200"/>
</g>
</svg>