<svg version="1.1" id="Layer_1" xmlns="http://www.w3.org/2000/svg" xmlns:xlink="http://www.w3.org/1999/xlink" x="0px" y="0px"
	 width="100%" viewBox="0 0 96 96" enable-background="new 0 0 96 96" xml:space="preserve">
<path fill="#FEFEFE" opacity="1.000000" stroke="none" 
	d="
M59.000000,97.000000 
	C39.333336,97.000000 20.166674,97.000000 1.000008,97.000000 
	C1.000005,65.000008 1.000005,33.000019 1.000003,1.000021 
	C32.999985,1.000014 64.999969,1.000014 96.999969,1.000007 
	C96.999977,32.999981 96.999977,64.999962 96.999985,96.999969 
	C84.500000,97.000000 72.000000,97.000000 59.000000,97.000000 
M7.913298,27.670050 
	C7.285801,30.900900 6.226861,34.117119 6.116683,37.365517 
	C5.851454,45.185246 6.111133,53.021114 6.007576,60.848473 
	C5.905741,68.545593 9.127574,74.423965 15.671107,78.251534 
	C23.707092,82.952080 31.884539,87.418999 40.096951,91.807022 
	C46.295944,95.119247 52.606144,94.793823 58.722076,91.447052 
	C66.602928,87.134468 74.504501,82.851196 82.259056,78.319031 
	C88.599075,74.613586 92.086494,69.090538 91.990082,61.495686 
	C91.886490,53.335144 91.887650,45.171246 91.991379,37.010696 
	C92.089447,29.296114 88.733070,23.553814 82.262962,19.636374 
	C77.713486,16.881819 72.924515,14.524536 68.355270,11.800660 
	C47.031590,-0.911098 45.805702,3.045791 28.724409,12.437340 
	C21.403032,16.462742 12.962026,19.193953 7.913298,27.670050 
z"/>
<path fill="#9EA1A7" opacity="1.000000" stroke="none" 
	d="
M8.072262,27.324915 
	C12.962026,19.193953 21.403032,16.462742 28.724409,12.437340 
	C45.805702,3.045791 47.031590,-0.911098 68.355270,11.800660 
	C72.924515,14.524536 77.713486,16.881819 82.262962,19.636374 
	C88.733070,23.553814 92.089447,29.296114 91.991379,37.010696 
	C91.887650,45.171246 91.886490,53.335144 91.990082,61.495686 
	C92.086494,69.090538 88.599075,74.613586 82.259056,78.319031 
	C74.504501,82.851196 66.602928,87.134468 58.722076,91.447052 
	C52.606144,94.793823 46.295944,95.119247 40.096951,91.807022 
	C31.884539,87.418999 23.707092,82.952080 15.671107,78.251534 
	C9.127574,74.423965 5.905741,68.545593 6.007576,60.848473 
	C6.111133,53.021114 5.851454,45.185246 6.116683,37.365517 
	C6.226861,34.117119 7.285801,30.900900 8.072262,27.324915 
M49.398331,8.031649 
	C47.451027,8.405422 45.273285,8.341709 43.594791,9.225820 
	C34.481388,14.026104 25.384007,18.877836 16.505198,24.093340 
	C12.249403,26.593239 10.196079,30.940313 10.116216,35.890575 
	C9.979312,44.376308 9.970791,52.867641 10.113694,61.353168 
	C10.216637,67.465858 12.968132,72.199135 18.400984,75.196671 
	C25.968201,79.371841 33.584465,83.458641 41.130981,87.670616 
	C46.567371,90.704842 51.847992,90.558281 57.233768,87.515900 
	C64.470795,83.427765 71.744347,79.400108 79.077797,75.488167 
	C85.140610,72.254028 87.930481,67.225739 87.927185,60.481308 
	C87.924995,55.987686 87.413208,51.423023 88.022507,47.013550 
	C89.976768,32.870716 84.845474,23.300352 71.295937,18.032038 
	C64.070778,15.222761 57.229820,11.425333 49.398331,8.031649 
z"/>
<path fill="#FEFEFE" opacity="1.000000" stroke="none" 
	d="
M49.806892,8.052774 
	C57.229820,11.425333 64.070778,15.222761 71.295937,18.032038 
	C84.845474,23.300352 89.976768,32.870716 88.022507,47.013550 
	C87.413208,51.423023 87.924995,55.987686 87.927185,60.481308 
	C87.930481,67.225739 85.140610,72.254028 79.077797,75.488167 
	C71.744347,79.400108 64.470795,83.427765 57.233768,87.515900 
	C51.847992,90.558281 46.567371,90.704842 41.130981,87.670616 
	C33.584465,83.458641 25.968201,79.371841 18.400984,75.196671 
	C12.968132,72.199135 10.216637,67.465858 10.113694,61.353168 
	C9.970791,52.867641 9.979312,44.376308 10.116216,35.890575 
	C10.196079,30.940313 12.249403,26.593239 16.505198,24.093340 
	C25.384007,18.877836 34.481388,14.026104 43.594791,9.225820 
	C45.273285,8.341709 47.451027,8.405422 49.806892,8.052774 
M81.959869,52.478428 
	C81.959869,46.316700 81.959869,40.154976 81.959869,32.624542 
	C71.450691,38.961025 62.504494,44.322334 53.614906,49.775913 
	C52.886112,50.223015 52.095783,51.293762 52.087868,52.082298 
	C51.985592,62.274616 52.020164,72.468307 52.020164,83.614471 
	C61.360283,78.443001 69.896576,74.043121 78.022812,68.984528 
	C80.020309,67.741074 81.197762,64.472923 81.812363,61.910194 
	C82.453308,59.237576 81.958992,56.292702 81.959869,52.478428 
z"/>
<path fill="#9D9FA6" opacity="1.000000" stroke="none" 
	d="
M81.960449,52.972641 
	C81.958992,56.292702 82.453308,59.237576 81.812363,61.910194 
	C81.197762,64.472923 80.020309,67.741074 78.022812,68.984528 
	C69.896576,74.043121 61.360283,78.443001 52.020164,83.614471 
	C52.020164,72.468307 51.985592,62.274616 52.087868,52.082298 
	C52.095783,51.293762 52.886112,50.223015 53.614906,49.775913 
	C62.504494,44.322334 71.450691,38.961025 81.959869,32.624542 
	C81.959869,40.154976 81.959869,46.316700 81.960449,52.972641 
M56.016705,55.136665 
	C56.016705,62.001179 56.016705,68.865692 56.016705,76.744698 
	C63.208328,72.732124 69.428688,69.348190 75.534805,65.769325 
	C76.554054,65.171928 77.700310,63.743698 77.728386,62.671642 
	C77.920189,55.348583 77.828911,48.018108 77.828911,39.980621 
	C73.090347,42.777763 69.160378,44.911114 65.433311,47.354015 
	C62.188305,49.480942 59.172382,51.957378 56.016705,55.136665 
z"/>
<path fill="#FDFDFD" opacity="1.000000" stroke="none" 
	d="
M56.035973,54.708019 
	C59.172382,51.957378 62.188305,49.480942 65.433311,47.354015 
	C69.160378,44.911114 73.090347,42.777763 77.828911,39.980621 
	C77.828911,48.018108 77.920189,55.348583 77.728386,62.671642 
	C77.700310,63.743698 76.554054,65.171928 75.534805,65.769325 
	C69.428688,69.348190 63.208328,72.732124 56.016705,76.744698 
	C56.016705,68.865692 56.016705,62.001179 56.035973,54.708019 
z"/>
</svg>