<svg width="24" height="24" viewBox="0 0 24 24" fill="none" xmlns="http://www.w3.org/2000/svg">
<g id="mage:box-3d-fill">
<path id="Vector" d="M21.22 6.89396C20.8857 6.3192 20.4019 5.84576 19.82 5.52396L13.82 2.21396C13.2622 1.91374 12.6385 1.75659 12.005 1.75659C11.3715 1.75659 10.7479 1.91374 10.19 2.21396L4.19002 5.52396C3.60815 5.84576 3.12435 6.3192 2.79002 6.89396C2.45001 7.46944 2.27045 8.12553 2.27002 8.79396V15.204C2.27469 15.8696 2.4546 16.5223 2.79166 17.0963C3.12871 17.6704 3.611 18.1455 4.19002 18.474L10.19 21.774C10.7453 22.0822 11.3699 22.2439 12.005 22.2439C12.6401 22.2439 13.2647 22.0822 13.82 21.774L19.82 18.464C20.4005 18.1407 20.8838 17.6678 21.2197 17.0945C21.5556 16.5212 21.7318 15.8684 21.73 15.204V8.84396C21.747 8.15891 21.5702 7.48299 21.22 6.89396ZM20.22 15.204C20.224 15.6017 20.1201 15.9931 19.9194 16.3364C19.7186 16.6798 19.4286 16.9623 19.08 17.154L13.08 20.464C12.9755 20.5227 12.8649 20.5696 12.75 20.604V12.424L20.05 8.03396C20.142 8.27596 20.186 8.53396 20.18 8.79396L20.22 15.204Z" fill="#00A5A1"/>
</g>
</svg>
