<svg width="24" height="24" viewBox="0 0 24 24" fill="none" xmlns="http://www.w3.org/2000/svg">
<g id="map:clothing-store">
<path id="Vector" d="M17.1685 4.82007L22.2378 7.19511C22.2348 7.20079 22.2313 7.2068 22.2272 7.21285L22.2264 7.21397L19.6438 11.0569C19.642 11.0579 19.6396 11.0591 19.6367 11.0605C19.6284 11.0644 19.6185 11.0678 19.6082 11.0701C19.5978 11.0725 19.5907 11.0729 19.5882 11.0729C19.5884 11.0729 19.5883 11.0729 19.5879 11.0729C19.5861 11.0728 19.5791 11.0726 19.5664 11.0719C19.552 11.0711 19.5349 11.0699 19.5177 11.0683C19.5002 11.0667 19.4856 11.0651 19.4754 11.0636C19.474 11.0634 19.4728 11.0632 19.4719 11.0631L17.399 10.5545L16.7798 10.4026V11.0401V20.1401H6.73984V11.0401V10.3835L6.10691 10.5581L4.26724 11.0654L1.71058 7.24235L6.83212 4.82007H9.09996C9.10911 5.55389 9.6206 6.10211 10.1489 6.43772C10.6936 6.78367 11.3797 6.98967 11.9758 6.98967C12.5701 6.98967 13.2663 6.786 13.8215 6.44277C14.3579 6.1112 14.8903 5.56337 14.8997 4.82007H17.1685Z" stroke="#989BA2"/>
</g>
</svg>
