<svg width="24" height="24" viewBox="0 0 24 24" fill="none" xmlns="http://www.w3.org/2000/svg">
<g id="map:clothing-store">
<path id="Vector" d="M22.7326 7.08007C22.771 7.21927 22.7226 7.37287 22.6414 7.49287L20.0542 11.3425C19.9582 11.4913 19.7566 11.5729 19.5882 11.5729C19.5402 11.5729 19.4058 11.5633 19.3534 11.5489L17.2798 11.0401V20.1601C17.2798 20.4385 17.083 20.6401 16.7998 20.6401H6.71984C6.43664 20.6401 6.23984 20.4385 6.23984 20.1601V11.0401L4.37744 11.5537C4.16144 11.6209 3.97424 11.5345 3.85424 11.3473L1.28624 7.50727C1.20464 7.38247 1.18064 7.24327 1.21904 7.10407C1.25264 6.96007 1.35344 6.86407 1.48304 6.79687L6.71984 4.32007H9.11984C9.40304 4.32007 9.59984 4.51687 9.59984 4.80007C9.59984 5.78887 10.987 6.48967 11.9758 6.48967C12.9646 6.48967 14.3998 5.79367 14.3998 4.80007C14.3998 4.52167 14.5966 4.32007 14.8798 4.32007H17.2798L22.4638 6.74887C22.5982 6.81607 22.6942 6.93607 22.7326 7.08007Z" fill="#00A5A1"/>
</g>
</svg>
